<svg version="1.1" xmlns="http://www.w3.org/2000/svg" style="display: block;" viewBox="0 0 2048 2048" width="1024" height="1024">
<path transform="translate(0,0)" fill="rgb(255,255,255)" d="M 0 0 L 0 2048 L 2048 2048 L 2048 0 L 0 0 z"/>
<path transform="translate(0,0)" fill="rgb(0,0,0)" d="M 970.222 0 L 1076.77 0 L 1077.76 0.170863 C 1097.81 3.47226 1118.52 4.20872 1138.72 6.61963 C 1177.14 11.3002 1215.3 17.9347 1253.05 26.4972 C 1493.5 81.2088 1706.04 221.068 1851.42 420.252 C 1939.36 541.081 2000.27 679.411 2030.03 825.856 C 2035.22 852.695 2039.44 879.715 2042.66 906.86 C 2044.19 920.322 2044.53 940.751 2048 953.326 L 2048 1097.66 L 2047.81 1098.67 C 2044.52 1116.74 2044.15 1135.54 2042.14 1153.79 C 2038.87 1183.43 2033.56 1214.04 2026.74 1243.05 C 1968.87 1496.98 1817.97 1720.01 1603.8 1868.18 C 1484.43 1950.44 1348.97 2006.46 1206.37 2032.55 C 1180.58 2037.2 1154.61 2040.8 1128.52 2043.34 C 1112.02 2044.89 1094.02 2044.63 1077.86 2048 L 963.442 2048 C 945.3 2043.82 925.26 2043.64 906.715 2041.61 C 880.46 2038.72 853.879 2034.42 827.912 2029.55 C 680.444 2000.56 541.141 1939.53 419.843 1850.8 C 220.568 1707.58 80.6775 1489.15 22.8943 1251.65 C 15.7777 1222.4 9.89061 1191.64 6.09083 1161.78 C 3.76347 1143.5 2.98724 1124.84 0 1106.67 L 0 950.084 C 3.45414 935.953 3.60155 920.18 5.22464 905.703 C 7.72562 882.166 11.3635 858.765 16.1256 835.58 C 47.3655 682.378 104.011 547.718 196.275 421.076 C 346.246 215.308 567.316 72.5942 816.579 20.6326 C 847.154 14.2715 878.027 9.44265 909.084 6.16424 C 929.369 4.06369 950.116 3.16211 970.222 0 z M 980.528 43.9084 C 439.478 68.0174 20.2089 525.819 43.6405 1066.9 C 67.0722 1607.98 524.348 2027.82 1065.46 2005.07 C 1607.52 1982.27 2028.27 1524.01 2004.8 981.97 C 1981.33 439.931 1522.54 19.7566 980.528 43.9084 z"/>
<path transform="translate(0,0)" fill="rgb(0,0,0)" d="M 1051.47 1997.98 C 513.859 2013.09 65.776 1589.55 50.5991 1051.95 C 35.4221 514.338 458.897 66.1987 996.503 50.9495 C 1534.21 35.6973 1982.45 459.27 1997.63 996.98 C 2012.81 1534.69 1589.18 1982.88 1051.47 1997.98 z M 1226.15 114.246 L 1226.57 114.776 C 1226.84 115.07 1227.1 115.381 1227.4 115.659 C 1235.18 123.074 1245.01 129.497 1253.83 135.664 C 1301.47 168.952 1345.82 178.654 1403.3 176.679 C 1372.69 157.653 1262.94 121.513 1226.57 114.776 L 1226.15 114.246 z M 900.596 374.63 C 926.275 396.58 942.95 438.865 956.052 469.498 C 952.262 477.553 947.667 485.806 945.003 494.292 L 961.824 494.375 C 981.464 456.854 997.823 417.705 1010.72 377.365 C 1014.37 384.813 1018.35 392.234 1021.64 399.847 C 1023.63 393.672 1025.48 387.43 1027.88 381.4 C 1041.88 418.067 1055.66 459.599 1074.28 493.95 L 1092.41 493.973 C 1089.34 485.666 1085.11 478.017 1081.02 470.188 C 1098.16 434.53 1111.04 399.383 1139.33 370.495 C 1123.58 400.525 1117.72 427.264 1127.96 460.526 C 1131.61 472.365 1137.04 483.302 1143.27 493.968 L 1171.8 493.974 C 1149.77 474.501 1139.34 462.053 1137.54 431.521 C 1136.46 413.109 1141.44 394.588 1154.22 380.897 C 1171.69 362.18 1200.04 355.864 1224.18 351.404 C 1204.81 342.014 1184.99 333.123 1172.33 314.935 C 1124.26 347.729 1095.32 397.725 1071.69 449.568 C 1059.92 421.51 1049.94 392.798 1039 364.427 C 1062.71 299.158 1100.32 228.824 1165.9 197.982 C 1191.04 186.161 1220.62 180.114 1247.43 189.843 C 1265.89 196.538 1281.19 209.922 1289.28 227.919 C 1296.57 244.125 1297.48 264.376 1290.89 280.982 C 1283.23 300.255 1265.89 310.435 1248.85 320.496 C 1261.16 327.982 1273.89 335.551 1285.28 344.374 C 1302.44 308.146 1321.98 266.787 1307.51 226.608 C 1299.44 204.193 1283.59 186.726 1261.92 176.696 C 1232.05 162.871 1200.09 166.543 1169.97 177.672 C 1116.65 197.38 1073.02 248.157 1049.02 298.548 C 1042.14 313.276 1036.21 328.294 1030.15 343.371 C 1029.71 291.094 1029.1 238.476 1030.09 186.21 C 1038.32 193.845 1046.32 201.546 1054.05 209.684 C 1049.13 191.201 1042.58 173.268 1036.5 155.147 C 1031.09 139.02 1026.15 122.431 1019.88 106.625 C 1008.2 140.518 996.082 174.254 983.517 207.826 C 991.498 199.991 999.48 192.214 1007.81 184.75 C 1008.04 215.435 1008 246.121 1007.67 276.805 C 1007.43 298.101 1006.3 319.845 1007.75 341.093 C 1001.48 328.049 996.236 314.549 989.713 301.626 C 961.921 246.564 922.255 195.591 861.968 174.354 C 833.736 164.409 800.894 164.047 773.604 177.276 C 751.101 187.909 733.871 207.211 725.849 230.771 C 713.117 268.368 732.415 312.172 749.377 345.582 C 749.876 346.551 750.386 347.514 750.908 348.471 C 761.119 338.446 771.721 329.381 783.225 320.839 C 765.131 311.432 749.238 304.06 742.691 282.931 C 736.727 263.684 737.402 242.072 747.19 224.186 C 757.029 206.205 774.493 192.991 794.142 187.57 C 824.223 179.271 856.091 187.383 882.565 202.624 C 940.184 235.797 978.315 303.795 998.999 365.421 C 993.602 375.594 990.432 387.785 986.474 398.676 C 980.146 415.974 972.942 432.939 964.889 449.505 C 941.179 398.21 913.835 349.925 866.58 316.439 C 852.412 333.03 836.272 338.968 817.513 348.866 C 844.651 357.11 878.285 369.328 892.885 395.545 C 902.248 412.358 901.462 433.099 895.962 451.051 C 890.038 470.393 878.704 481.613 863.053 493.632 C 872.312 493.637 881.663 493.923 890.909 493.481 C 908.366 472.866 916.451 444.557 914.261 417.779 C 912.918 401.36 907.166 389.342 900.596 374.63 z M 821.926 115.184 C 767.941 128.881 714.322 143.791 663.559 167.121 C 659.746 168.873 651.223 171.646 648.713 174.753 L 649.921 175.202 C 667.417 173.924 685.577 173.464 702.788 170.056 C 746.021 161.496 784.472 135.466 823.307 116.141 L 823.433 115.286 L 821.926 115.184 z M 635.659 179.969 C 623.15 185.961 610.508 191.834 598.44 198.688 C 607.092 199.317 612.206 201.789 620.403 197.899 C 634.319 192.111 648.563 186.67 662.121 180.096 C 653.395 180.004 644.349 179.39 635.659 179.969 z M 1383.08 183.34 C 1389.66 187.342 1421.37 200.109 1428.56 198.359 C 1427.3 197.085 1426.07 195.907 1424.64 194.808 L 1425.51 194.38 L 1425.74 195.406 L 1427.01 194.138 L 1429.75 194.088 C 1432.74 194.026 1437.68 194.595 1440.1 193.019 C 1429.53 181.993 1397.89 184.765 1383.08 183.34 z M 553.598 222.339 C 547.433 225.349 541.61 228.677 535.762 232.262 L 593.924 232.231 C 598.45 232.412 604.466 233.418 608.636 231.554 C 610.489 228.918 610.079 227.467 610.128 224.299 L 609.204 222.589 C 593.035 220.184 570.109 221.444 553.598 222.339 z M 1432.56 222.813 C 1432.56 225.753 1432.05 229.156 1433.76 231.684 C 1459.15 233.629 1485.22 232.115 1510.74 232.658 C 1506.02 228.868 1500.82 226.022 1495.58 223.046 C 1474.61 222.944 1453.52 222.424 1432.56 222.813 z M 1431.97 266.01 C 1431.95 269.131 1431.58 271.983 1432.83 274.886 C 1447.8 276.911 1464.53 275.477 1479.7 275.53 L 1574.57 275.913 C 1571.31 271.701 1566.12 268.9 1561.74 265.94 L 1431.97 266.01 z M 484.053 266.998 C 479.873 270.161 475.581 273.236 471.532 276.562 L 599.91 276.978 C 603.77 276.985 605.876 277.475 609.234 275.467 C 610.669 272.827 611.085 272.7 610.467 269.811 C 608.784 268.301 607.348 267.392 605.054 267.078 C 594.501 265.636 582.226 267.026 571.454 267.043 C 542.353 267.088 513.143 267.615 484.053 266.998 z M 1431.29 309.844 C 1431.49 312.885 1431.23 315.915 1432.79 318.583 C 1454.36 320.744 1477.57 319.082 1499.3 319.064 L 1628.66 319.082 C 1625.63 316.033 1622.65 312.89 1619.5 309.966 L 1431.29 309.844 z M 428.216 311.372 C 424.788 314.584 421.425 317.935 417.844 320.972 L 598.75 320.721 C 602.44 320.797 606.119 321.548 609.319 319.627 C 610.166 316.908 610.058 315.379 609.706 312.628 C 609.246 312.249 608.866 311.743 608.325 311.492 C 604.759 309.838 442.908 310.889 428.216 311.372 z M 377.793 356.487 C 374.84 359.669 371.952 362.944 368.825 365.954 L 605.25 365.99 L 608.504 365.748 C 610.084 363.536 610.116 362.823 610.433 360.086 C 609.898 358.885 609.756 357.567 608.447 357.045 C 606.351 356.21 395.495 355.896 377.793 356.487 z M 1432.02 355.958 C 1432.06 359.25 1431.55 362.072 1433.19 364.964 C 1446.95 366.043 1461 365.59 1474.8 365.662 L 1549.38 365.853 L 1631.06 365.937 C 1647.2 365.947 1663.53 366.465 1679.65 365.585 C 1678.2 361.768 1674.5 358.852 1671.65 356.022 L 1432.02 355.958 z M 335.698 400.282 L 328.127 408.86 L 605.25 409.238 L 608.485 409.106 C 610.177 407.162 610.24 406.959 610.524 404.392 C 609.092 402.235 608.824 401.631 606.071 401.122 C 599.619 399.931 590.469 401.036 583.739 401.026 L 525.468 401.007 L 335.698 400.282 z M 1441.76 400.48 C 1437.87 400.556 1436.09 400.081 1432.83 402.333 C 1431.68 404.632 1431.19 404.974 1431.67 407.456 C 1434.1 409.224 1434.77 409.249 1437.76 409.504 C 1448.79 410.441 1460.27 409.891 1471.35 409.899 L 1530.32 409.929 L 1714.25 409.923 L 1719.18 409.54 L 1720.2 408.16 C 1718.91 405.112 1716.66 403.029 1714.42 400.669 C 1675.13 399.356 1635.5 400.368 1596.18 400.359 C 1544.74 400.348 1493.19 399.624 1441.76 400.48 z M 1277.35 408.589 C 1278.04 435.439 1273.83 464.213 1254.46 484.5 C 1251.85 487.236 1248.97 489.753 1246.15 492.273 C 1253.56 492.491 1260.92 492.711 1268.32 492.38 C 1277.49 481.036 1283.83 468.995 1287.44 454.818 C 1288.79 458.612 1290.26 462.474 1291.16 466.403 C 1292.56 472.512 1292.14 485.125 1295.43 490.018 C 1297.77 490.755 1298.69 490.767 1300.88 489.491 C 1306.4 486.27 1311.05 479.056 1315.41 474.377 C 1328.46 460.385 1349.29 448.28 1369.02 452.148 C 1371.78 452.682 1374.51 453.369 1377.19 454.205 C 1390.65 459.621 1400.25 467.292 1406.14 480.962 C 1407.45 484.048 1408.7 487.157 1409.9 490.289 L 1424.55 490.415 C 1421.6 473.189 1414.07 458.389 1399.4 448.147 C 1384.88 438.058 1366.93 434.196 1349.55 437.422 C 1332.63 440.508 1316.7 449.41 1304.27 461.149 C 1298.97 447.621 1288.21 417.501 1277.35 408.589 z M 755.778 418.654 C 747.086 430.285 738.457 441.36 732.852 454.891 C 712.758 441.423 690.229 433.03 665.736 437.81 C 649.725 440.935 635.997 449.987 626.984 463.63 C 620.999 472.69 617.085 482.812 613.958 493.153 L 630.282 493.371 C 635.362 478.898 642.901 464.359 657.287 457.222 C 664.271 453.757 671.482 452.87 679.168 452.475 C 694.981 453.254 711.428 456.4 722.88 468.425 C 730.095 476.003 732.839 486.083 737.23 495.291 L 749.656 495.281 C 744.886 480.387 744.207 470.124 748.878 455.092 C 753.457 471.688 758.662 483.025 771.232 494.993 C 779.13 494.88 786.908 494.712 794.761 493.82 C 772.455 476.4 762.193 462.359 758.642 433.547 C 758.191 429.884 758.508 421.185 755.778 418.654 z M 299.046 444.212 L 291.508 453.53 L 604.25 453.139 L 608.474 452.875 C 610.097 450.94 610.397 450.478 610.895 448.015 C 609.826 445.812 609.646 444.844 607.029 444.184 C 600.293 442.486 540.22 443.995 529.209 444.006 L 299.046 444.212 z M 1431.03 445.062 C 1430.99 448.477 1430.24 451.228 1432.24 454.067 C 1441.93 456.549 1500.95 454.731 1516.11 454.732 L 1758.59 454.925 C 1756.45 451.466 1754.26 448.209 1751.73 445.022 L 1431.03 445.062 z M 268.944 498.051 C 269.056 499.554 268.787 502.727 269.945 503.71 C 274.192 507.319 285.646 505.009 291.1 505.08 C 290.913 502.015 291.342 500.946 289.177 498.665 C 282.695 496.758 275.659 498.025 268.944 498.051 z M 308.123 498.031 C 308.228 501.035 307.771 502.049 309.857 504.317 C 316.622 506.351 324.382 505.166 331.415 505.016 L 331.489 500.37 C 329.382 498.203 327.247 497.583 324.205 497.55 C 318.856 497.494 313.489 498.114 308.123 498.031 z M 349.951 498.042 L 350.237 503.029 C 353.437 505.828 356.27 505.822 360.396 505.563 C 364.371 505.314 368.272 505.23 372.255 505.223 C 372.049 502.052 372.505 500.967 370.22 498.645 C 363.89 496.767 356.551 497.925 349.951 498.042 z M 390.5 498.057 L 390.523 503.051 C 392.666 505.071 394.922 505.749 397.896 505.7 C 402.833 505.618 407.796 505.297 412.743 505.19 C 412.809 502.048 413.429 501.016 411.226 498.653 C 404.759 496.752 397.236 497.924 390.5 498.057 z M 431.031 498.039 C 431.3 499.736 431.223 502.742 432.647 503.777 C 437.268 507.137 446.917 504.962 452.522 505.036 C 452.298 503.493 452.342 500.23 451.107 499.274 C 446.691 495.856 436.521 498.129 431.031 498.039 z M 472.385 498.018 C 472.596 499.641 472.472 502.799 473.775 503.835 C 478.507 507.593 489.571 505.323 495.415 505.308 C 495.103 502.141 495.528 500.911 493.18 498.654 C 489.811 497.636 487.365 497.514 483.873 497.76 C 480.058 498.028 476.21 497.981 472.385 498.018 z M 513.359 498.076 C 513.572 499.688 513.45 502.801 514.764 503.812 C 519.263 507.277 531.791 505.185 537.633 505.178 C 537.357 503.475 537.412 500.237 535.949 499.253 C 530.642 495.687 519.672 498.149 513.359 498.076 z M 556.454 498.034 C 556.413 501.024 555.898 502.042 557.868 504.389 C 564.811 506.609 572.182 505.129 579.375 505.101 C 579.295 502.044 579.793 500.999 577.656 498.704 C 570.997 496.738 563.378 497.912 556.454 498.034 z M 598.133 498.264 C 598.17 501.539 597.636 502.5 599.917 504.973 C 608.026 507.406 616.738 505.613 625.101 505.668 C 624.656 502.416 624.908 501.357 622.584 498.933 C 614.698 496.51 606.268 498.14 598.133 498.264 z M 645.927 498.064 C 646.063 501.157 645.508 502.421 647.786 504.633 C 654.625 506.638 661.814 505.276 668.873 505.415 C 668.761 502.335 669.288 501.018 667.12 498.727 C 660.312 496.594 652.985 498.122 645.927 498.064 z M 687.884 498.047 C 688.152 499.549 688.22 502.759 689.448 503.668 C 694.256 507.226 707.215 505.079 713.273 504.955 C 713.05 503.382 713.14 500.209 711.816 499.278 C 706.528 495.559 694.333 498.156 687.884 498.047 z M 734.138 498.066 C 734.176 501.223 733.689 502.511 735.712 505.021 C 743.107 507.464 750.858 505.731 758.528 505.826 C 757.621 502.592 757.539 501.263 755.084 498.882 C 748.315 496.721 741.158 498.057 734.138 498.066 z M 788.047 498.361 C 784.764 498.647 781.73 498.659 778.817 500.373 L 777.7 502.19 C 780.152 504.838 783.084 505.961 786.668 506.106 C 789.728 506.23 792.814 506.124 795.875 506.022 C 798.834 505.99 801.302 506.293 803.731 504.32 L 804.454 503.006 C 802.924 500.59 801.487 499.19 798.562 498.436 C 795.4 497.62 791.283 498.215 788.047 498.361 z M 822.017 498.291 C 822.082 501.593 821.564 502.509 823.885 504.986 C 831.401 507.142 839.209 505.553 846.936 505.71 C 846.855 502.508 847.485 501.101 845.143 498.796 C 837.66 496.689 829.714 498.294 822.017 498.291 z M 867.358 498.409 C 866.152 499.84 865.707 500.652 865.338 502.49 C 866.586 504.542 866.703 504.8 869.173 505.361 C 875.375 506.769 883.307 505.888 889.684 505.769 C 890.629 504.084 890.902 503.116 890.97 501.185 C 889.461 499.106 888.594 498.665 886.008 498.296 C 880.087 497.452 873.335 498.197 867.358 498.409 z M 910.274 498.039 C 910.583 499.705 910.603 502.789 912.028 503.781 C 917.543 507.622 929.337 505.12 935.96 505.139 C 935.672 503.545 935.617 500.22 934.27 499.297 C 928.845 495.583 916.815 498.136 910.274 498.039 z M 957.785 498.057 C 958.438 501.263 958.257 502.21 960.736 504.47 C 967.542 506.355 975.245 505.211 982.294 505.097 C 982.125 502.257 982.525 500.969 980.593 498.801 C 973.14 496.556 965.459 498.159 957.785 498.057 z M 1002.07 498.052 C 1002.14 501.14 1001.57 502.415 1003.78 504.683 C 1010.06 506.697 1017.2 505.521 1023.76 505.332 C 1023.63 502.059 1024.16 500.991 1021.78 498.614 C 1015.69 496.705 1008.49 498.045 1002.07 498.052 z M 1040.97 498.043 C 1041.22 499.585 1041.23 502.778 1042.44 503.777 C 1046.98 507.532 1057.92 505.197 1063.6 505.246 C 1063.41 503.658 1063.55 500.228 1062.25 499.276 C 1057.41 495.731 1046.85 498.136 1040.97 498.043 z M 1081.75 497.96 C 1082.61 500.787 1082.66 503.369 1085.63 504.748 C 1090.49 507.007 1098.83 505.162 1104.17 505.017 L 1104.1 500 C 1101.82 497.938 1099.55 497.276 1096.45 497.347 C 1091.56 497.459 1086.64 497.817 1081.75 497.96 z M 1122.51 498.025 L 1122.33 503.081 C 1124.5 505.213 1126.33 506.045 1129.43 506.014 C 1134.23 505.966 1139.06 505.487 1143.87 505.397 C 1143.85 502.203 1144.42 501.023 1142.23 498.588 C 1136.13 496.625 1128.93 497.93 1122.51 498.025 z M 1160.49 497.868 C 1160.69 499.517 1160.58 502.798 1161.86 503.882 C 1166.48 507.79 1177.54 505.439 1183.34 505.446 C 1183.14 502.083 1183.63 500.987 1181.22 498.507 C 1174.65 496.458 1167.31 497.631 1160.49 497.868 z M 1198.89 498.045 L 1199.17 503.043 C 1204.58 507.865 1214.27 505.314 1221.11 505.346 C 1220.95 502.182 1221.44 500.989 1219.19 498.652 C 1212.71 496.715 1205.61 498.017 1198.89 498.045 z M 1238.9 498.042 L 1239.16 503.026 C 1244.7 507.691 1254.91 505.109 1261.82 505.165 C 1261.59 501.998 1262.05 500.944 1259.74 498.646 C 1253.04 496.721 1245.82 498.021 1238.9 498.042 z M 1280.84 498.031 C 1280.94 499.551 1280.64 502.756 1281.84 503.73 C 1286.38 507.415 1298.06 505.001 1303.84 505.082 C 1303.56 503.51 1303.52 500.283 1302.24 499.304 C 1297.5 495.667 1286.69 498.103 1280.84 498.031 z M 1321.37 497.997 C 1321.59 499.566 1321.5 502.791 1322.78 503.759 C 1327.51 507.354 1338.58 505.202 1344.43 504.992 C 1344.23 503.481 1344.31 500.213 1343.11 499.277 C 1338.42 495.654 1327.2 498.051 1321.37 497.997 z M 1360.91 497.85 C 1361.1 500.933 1360.67 502.027 1362.86 504.316 C 1369.49 506.355 1376.67 505.071 1383.56 505.053 C 1383.31 501.739 1383.86 500.595 1381.29 498.344 C 1374.9 496.531 1367.55 497.72 1360.91 497.85 z M 1401.11 497.754 C 1401.2 500.859 1400.71 502 1402.84 504.359 C 1408.84 506.363 1415.94 505.142 1422.27 505.073 L 1422.12 499.991 C 1417.72 495.976 1411.19 497.339 1405.63 497.601 C 1404.12 497.673 1402.63 497.738 1401.11 497.754 z M 1439.13 497.948 C 1439.49 501.016 1439.23 501.849 1441.4 504.161 C 1447.65 506.115 1454.79 504.974 1461.3 504.796 C 1461.19 503.268 1461.48 500.226 1460.26 499.243 C 1455.78 495.643 1444.78 497.966 1439.13 497.948 z M 1477.68 497.991 C 1477.85 499.416 1477.72 502.259 1478.87 503.154 C 1483.43 506.675 1494.4 504.414 1500.02 504.437 C 1499.72 501.441 1500.18 500.462 1497.83 498.453 C 1491.19 496.636 1484.46 498.059 1477.68 497.991 z M 1515.61 497.986 C 1515.86 499.656 1515.74 502.257 1517.12 503.343 C 1521.97 507.173 1533.15 504.869 1539.07 504.756 L 1538.86 499.993 C 1533.27 495.49 1522.56 498.058 1515.61 497.986 z M 1554.97 498.069 C 1555.15 499.72 1554.91 502.242 1556.24 503.332 C 1560.66 506.924 1572.04 504.778 1577.64 504.759 C 1577.65 501.842 1578.14 500.934 1576.16 498.683 C 1569.32 496.694 1562.04 498.021 1554.97 498.069 z M 1593.96 498.044 C 1594.25 499.624 1594.26 502.754 1595.62 503.663 C 1600.66 507.034 1610.78 504.824 1616.73 504.784 C 1616.52 503.231 1616.62 500.194 1615.32 499.255 C 1610.53 495.791 1599.81 498.154 1593.96 498.044 z M 1633.35 498.041 C 1633.56 501.336 1633.05 502.119 1635.59 504.382 C 1642.1 506.114 1649.51 504.949 1656.26 504.877 C 1656.16 503.349 1656.5 500.235 1655.26 499.274 C 1650.63 495.686 1639.15 498.113 1633.35 498.041 z M 1671.95 498.023 C 1672.19 501.17 1671.72 502.016 1674.14 504.192 C 1681.01 506.06 1688.65 504.879 1695.74 504.689 C 1695.93 501.882 1696.5 500.976 1694.67 498.745 C 1687.31 496.611 1679.52 498.105 1671.95 498.023 z M 1711.84 497.981 C 1712.01 499.493 1711.81 502.272 1713.11 503.173 C 1718.02 506.592 1728.74 504.244 1734.66 504.315 C 1734.44 502.835 1734.53 500.165 1733.29 499.235 C 1728.65 495.723 1717.56 498.044 1711.84 497.981 z M 1751.01 498.038 C 1751.12 499.431 1750.89 502.278 1752.02 503.147 C 1756.51 506.612 1769.26 504.559 1774.95 504.418 C 1775.03 501.557 1775.49 500.928 1773.68 498.761 C 1766.32 496.693 1758.57 498 1751.01 498.038 z M 252.939 502.5 L 254.049 502.5 L 252.939 502.5 z M 244.111 519.012 C 146.1 668.632 93.0033 843.199 91.1051 1022.05 L 462.851 1022.02 C 463.246 1056.48 463.291 1090.94 462.989 1125.4 C 449.824 1130.39 439.933 1136.56 433.94 1150.01 C 429.151 1160.89 428.969 1173.25 433.435 1184.27 C 437.418 1194.17 445.606 1203.62 455.623 1207.72 C 457.97 1208.68 460.432 1209.46 462.876 1210.13 L 462.083 1330.41 C 356.141 1330.23 250.038 1328.66 144.114 1329.93 C 146.275 1336.7 148.244 1343.63 150.748 1350.27 L 1897.26 1350.83 L 1904.52 1330.99 L 1574.89 1330.63 L 1574.8 1210.65 C 1587.89 1206.5 1598.24 1200.64 1604.67 1187.84 C 1609.89 1177.55 1610.64 1165.57 1606.77 1154.71 C 1603.2 1144.59 1595.61 1135.81 1585.84 1131.24 C 1582.61 1129.72 1579.3 1128.67 1575.84 1127.85 C 1575.55 1098.6 1575.41 1069.36 1575.42 1040.11 C 1578.98 1040.17 1583.34 1040.78 1586.59 1039.18 C 1587.11 1037.15 1587.03 1036.72 1586.49 1034.68 C 1577.58 1032.25 1565.08 1033.83 1555.72 1033.97 C 1555.77 1065.2 1555.46 1096.47 1555.95 1127.7 C 1544.36 1132.46 1535.35 1138.69 1530.16 1150.65 C 1525.45 1161.6 1525.42 1174 1530.08 1184.98 C 1535.29 1197.03 1544.4 1203.84 1555.3 1210.22 L 1555.02 1330.89 L 1288.5 1330.9 L 485.095 1330.49 L 485.437 1211.45 C 498.801 1206.78 509.932 1201.14 516.581 1187.78 C 522.049 1176.75 522.682 1163.94 518.328 1152.42 C 514.283 1141.64 505.924 1133.02 495.263 1128.65 C 492.176 1127.36 488.904 1126.48 485.689 1125.57 L 485.814 1021.7 L 1958.04 1022.61 C 1951.79 872.117 1921.07 733.137 1851.2 599.18 C 1836.92 571.819 1821.97 544.227 1804.41 518.805 L 866.587 518.868 L 517.452 518.714 C 426.367 518.549 335.188 517.908 244.111 519.012 z M 103.776 1034.21 C 104.05 1035.73 103.968 1038.18 105.376 1038.99 C 110.676 1042.07 121.132 1039.83 127.288 1039.95 C 127.023 1038.4 127.133 1035.84 125.68 1035.04 C 120.21 1032.03 110.025 1034.27 103.776 1034.21 z M 142.532 1034.18 C 142.777 1035.64 142.702 1038.24 144.032 1039.03 C 149.279 1042.14 159.775 1039.87 165.91 1040.05 C 165.457 1036.91 165.849 1036.43 163.396 1034.51 C 156.497 1032.95 149.535 1034.26 142.532 1034.18 z M 182.765 1034.17 C 183.063 1035.68 183.043 1038.16 184.427 1038.98 C 189.758 1042.15 200.311 1039.83 206.529 1039.95 C 206.29 1038.55 206.404 1036.22 205.184 1035.32 C 200.544 1031.9 188.531 1034.24 182.765 1034.17 z M 225.271 1034.3 L 223.175 1035.04 L 222.626 1037.7 C 224.332 1039.85 225.764 1039.92 228.398 1040.12 C 233.499 1040.53 238.951 1039.95 244.093 1039.97 L 246.044 1039.05 L 246.224 1035.88 C 241.366 1032.45 231.045 1034.11 225.271 1034.3 z M 273.255 1034.5 C 269.963 1034.42 266.961 1033.9 264.193 1036 L 263.964 1037.63 C 267.762 1040.66 270.814 1040.13 275.5 1039.97 C 279.076 1040.09 282.483 1040.7 285.552 1038.53 L 285.996 1036.81 C 284.474 1035.1 283.002 1034.2 280.68 1034.13 C 278.231 1034.06 275.693 1034.32 273.255 1034.5 z M 303.19 1034.29 C 303.453 1035.67 303.465 1038.23 304.701 1038.99 C 309.777 1042.09 320.708 1039.84 326.727 1039.99 C 326.286 1037.06 326.682 1036.45 324.363 1034.67 C 317.455 1032.98 310.229 1034.33 303.19 1034.29 z M 343.989 1034.18 C 344.244 1035.65 344.174 1038.13 345.5 1038.96 C 350.541 1042.1 361.022 1039.85 366.985 1039.98 C 366.472 1036.9 366.814 1036.41 364.4 1034.51 C 357.619 1032.95 350.862 1034.21 343.989 1034.18 z M 397.765 1034.5 C 393.453 1034.39 389.171 1033.71 385.365 1036.05 L 384.265 1037.69 C 385.844 1039.5 386.304 1039.79 388.876 1040.08 C 390.748 1040.29 392.86 1040.07 394.75 1040 C 398.61 1040.14 402.871 1040.9 406.245 1038.71 L 407.642 1036.71 C 406.314 1034.76 406 1034.55 403.579 1034.25 C 401.774 1034.03 399.59 1034.37 397.765 1034.5 z M 440.765 1034.49 C 435.071 1034.38 430.378 1034.21 424.979 1036.43 L 424.208 1037.31 L 425.096 1039.49 C 426.986 1039.73 428.843 1040.01 430.75 1040.02 C 436.385 1040.26 441.055 1040.66 446.339 1038.22 L 447.917 1036.13 C 445.017 1034.16 444.176 1034.47 440.765 1034.49 z M 502.65 1034.12 C 502.881 1035.57 502.793 1038.2 504.101 1038.98 C 509.834 1042.39 522.305 1039.9 528.99 1040.02 C 528.457 1036.94 528.81 1036.42 526.371 1034.56 C 518.655 1033.07 510.496 1034 502.65 1034.12 z M 544.779 1034.18 C 545 1035.59 544.917 1038.19 546.174 1038.96 C 551.713 1042.4 564.417 1039.88 570.962 1040.02 C 570.628 1038.45 570.615 1035.8 569.137 1035.03 C 563.021 1031.81 551.655 1034.24 544.779 1034.18 z M 585.744 1034.2 C 586.175 1035.76 586.333 1038.3 587.842 1039.05 C 594.131 1042.19 605.502 1039.97 612.492 1039.87 C 611.988 1038.31 611.696 1035.71 610.165 1034.97 C 603.81 1031.92 592.744 1034.07 585.744 1034.2 z M 628.678 1034.14 C 628.891 1035.59 628.764 1038.23 630.08 1039 C 635.783 1042.36 647.886 1039.88 654.51 1040.01 C 654.248 1038.54 654.28 1035.79 652.937 1035.03 C 647.132 1031.77 635.33 1034.22 628.678 1034.14 z M 671.67 1034.16 C 671.877 1035.62 671.729 1038.23 673.059 1039.01 C 678.846 1042.41 691.314 1039.89 698.044 1040.02 C 697.782 1038.53 697.838 1035.89 696.48 1035.09 C 690.702 1031.67 678.373 1034.24 671.67 1034.16 z M 713.729 1034.13 C 713.938 1035.57 713.814 1038.22 715.111 1039 C 720.672 1042.34 732.948 1039.88 739.452 1040.01 C 739.208 1038.54 739.276 1035.78 737.936 1035.02 C 732.154 1031.75 720.36 1034.2 713.729 1034.13 z M 755.752 1034.17 C 755.949 1035.61 755.791 1038.23 757.098 1039.01 C 762.896 1042.46 775.65 1039.89 782.423 1040.02 C 782.117 1038.45 782.167 1035.84 780.679 1035.05 C 774.487 1031.77 762.74 1034.24 755.752 1034.17 z M 815.255 1034.5 C 809.506 1034.37 804.861 1034.18 799.44 1036.53 L 798.637 1037.46 C 798.712 1038.01 799.529 1039 799.841 1039.47 C 801.847 1039.78 803.718 1040.06 805.75 1040 C 812.175 1040.21 819.98 1041.17 825.547 1037.33 L 824.821 1035.27 C 821.412 1034.2 818.799 1034.27 815.255 1034.5 z M 841.758 1034.12 C 841.975 1035.55 841.882 1038.22 843.155 1039 C 848.648 1042.35 860.944 1039.86 867.391 1039.97 C 867.169 1038.51 867.28 1035.8 865.944 1035.04 C 860.181 1031.79 848.373 1034.21 841.758 1034.12 z M 886.696 1034.16 C 886.911 1035.61 886.788 1038.24 888.101 1039.02 C 894.025 1042.51 907.111 1039.91 914.029 1040.05 L 913.423 1035.69 C 907.651 1031.43 893.754 1034.25 886.696 1034.16 z M 932.576 1034.07 C 932.82 1035.53 932.743 1038.21 934.089 1038.97 C 940.036 1042.28 956.415 1040.07 963.426 1039.98 C 963.183 1038.52 963.26 1035.79 961.91 1035.05 C 955.779 1031.67 939.787 1034.07 932.576 1034.07 z M 982.452 1034.04 C 982.793 1035.62 982.787 1038.16 984.298 1038.95 C 990.917 1042.38 1003.73 1039.72 1011.23 1039.9 L 1010.71 1035.62 C 1005.55 1031.7 989.121 1033.96 982.452 1034.04 z M 1033.5 1034.02 C 1033.82 1035.61 1033.79 1038.16 1035.3 1038.95 C 1041.69 1042.29 1054.22 1039.75 1061.47 1039.9 L 1060.82 1035.62 C 1055.05 1031.41 1040.59 1034.13 1033.5 1034.02 z M 1081.15 1034.26 C 1081.47 1035.78 1081.47 1038.3 1082.93 1039.04 C 1089.35 1042.3 1104.44 1039.98 1111.71 1039.77 C 1111.33 1038.18 1111.31 1035.71 1109.75 1034.97 C 1102.99 1031.78 1088.76 1033.97 1081.15 1034.26 z M 1129.35 1034.17 C 1129.63 1035.66 1129.59 1038.23 1130.98 1038.99 C 1137.18 1042.39 1149.87 1039.82 1156.98 1039.97 C 1156.7 1038.55 1156.67 1035.83 1155.35 1035.11 C 1149.19 1031.73 1136.41 1034.24 1129.35 1034.17 z M 1175.76 1034.21 C 1175.98 1035.62 1175.89 1038.2 1177.16 1038.97 C 1182.34 1042.08 1196.93 1039.98 1203.38 1039.96 C 1203.15 1038.51 1203.23 1035.8 1201.9 1035.06 C 1196.23 1031.9 1182.52 1034.19 1175.76 1034.21 z M 1219.94 1034.25 C 1220.32 1035.79 1220.4 1038.29 1221.88 1039.03 C 1227.72 1041.94 1239.87 1040.41 1246.21 1039.53 C 1245.81 1038.1 1245.71 1035.84 1244.35 1035.06 C 1238.98 1032.02 1226.23 1033.97 1219.94 1034.25 z M 1263.9 1034.27 C 1264.14 1035.78 1264.01 1038.17 1265.41 1038.98 C 1271.03 1042.24 1282.85 1039.82 1289.36 1039.92 L 1288.64 1035.65 C 1282.9 1031.75 1270.7 1034.29 1263.9 1034.27 z M 1307.76 1034.19 C 1308.03 1035.72 1307.93 1038.18 1309.36 1038.98 C 1315.13 1042.23 1326.66 1039.82 1333.27 1039.95 C 1333 1038.39 1333.11 1035.83 1331.66 1035.03 C 1325.79 1031.82 1314.42 1034.25 1307.76 1034.19 z M 1349.96 1034.15 L 1350.48 1038.34 C 1355.93 1042.45 1368.56 1039.85 1375.25 1039.99 C 1374.95 1038.48 1374.94 1035.87 1373.55 1035.06 C 1367.9 1031.8 1356.52 1034.21 1349.96 1034.15 z M 1392.06 1034.17 C 1392.5 1035.78 1392.61 1038.29 1394.2 1039.04 C 1400.26 1041.93 1410.97 1040.1 1417.62 1039.71 C 1417.23 1038.16 1417.14 1035.73 1415.66 1034.94 C 1409.82 1031.8 1398.58 1033.93 1392.06 1034.17 z M 1433.79 1034 C 1434.02 1035.51 1433.82 1037.79 1435.15 1038.74 C 1440.15 1042.32 1452.77 1039.83 1459 1039.95 C 1458.76 1038.45 1458.86 1035.87 1457.5 1035.04 C 1451.99 1031.66 1440.3 1034.08 1433.79 1034 z M 1475.8 1034.08 C 1476.05 1035.63 1475.93 1038.17 1477.36 1038.99 C 1482.96 1042.2 1494.33 1039.84 1500.84 1040 C 1500.51 1038.48 1500.45 1035.78 1499.04 1035.01 C 1493.27 1031.84 1482.34 1034.19 1475.8 1034.08 z M 1517.62 1034.09 C 1517.81 1035.58 1517.61 1038.23 1518.97 1039.02 C 1524.14 1042.05 1534.48 1039.82 1540.5 1039.97 C 1540.24 1038.51 1540.28 1035.78 1538.95 1035 C 1533.81 1031.98 1523.59 1034.21 1517.62 1034.09 z M 1605.84 1034.17 C 1606.16 1035.63 1606.21 1038.11 1607.53 1038.92 C 1612.88 1042.2 1624.24 1039.83 1630.57 1039.95 C 1630.16 1037.08 1630.53 1036.42 1628.32 1034.61 C 1621.1 1033.05 1613.23 1034.1 1605.84 1034.17 z M 1646.86 1034.28 C 1647.06 1035.66 1646.96 1038.2 1648.18 1038.97 C 1653.36 1042.22 1665.15 1039.83 1671.37 1039.94 L 1670.64 1035.64 C 1665.14 1031.88 1653.48 1034.35 1646.86 1034.28 z M 1690.27 1034.26 L 1688.01 1035.51 L 1687.6 1037.07 C 1689.51 1039.37 1690.97 1039.49 1693.91 1039.79 C 1699.15 1040.32 1704.69 1040.03 1709.96 1039.95 L 1711.78 1037.96 C 1711.48 1036.7 1711.7 1035.87 1710.42 1035.24 C 1705.63 1032.88 1695.67 1034.12 1690.27 1034.26 z M 1744.77 1034.5 C 1740.38 1034.4 1732.95 1033.66 1729.29 1036.47 C 1728.95 1036.74 1728.69 1037.1 1728.39 1037.42 L 1729.41 1039.35 C 1731.61 1039.78 1733.51 1040.06 1735.75 1039.99 C 1741.22 1040.21 1745.97 1040.71 1751.04 1038.2 L 1752.3 1036.64 C 1750.06 1034.28 1749.99 1034.55 1746.83 1034.46 C 1745.49 1034.42 1746.01 1034.41 1744.77 1034.5 z M 1769.68 1034.11 C 1769.9 1035.55 1769.81 1038.21 1771.1 1038.99 C 1776.16 1042.09 1786.57 1039.83 1792.54 1039.98 C 1792.28 1038.5 1792.32 1035.77 1790.98 1034.99 C 1785.81 1031.98 1775.67 1034.21 1769.68 1034.11 z M 1810.62 1034.28 C 1811.12 1035.79 1811.42 1038.32 1812.89 1039.07 C 1818.51 1041.91 1828.45 1040.05 1834.73 1039.85 C 1834.34 1038.25 1834.29 1035.73 1832.76 1034.94 C 1827.02 1031.98 1817.01 1034.09 1810.62 1034.28 z M 1852.67 1034.18 C 1852.85 1035.66 1852.65 1038.24 1853.99 1039.04 C 1859.08 1042.07 1869.45 1039.86 1875.4 1040 C 1875.11 1038.43 1875.18 1035.82 1873.71 1035.02 C 1868.38 1032.15 1858.73 1034.3 1852.67 1034.18 z M 1892.8 1034.21 C 1893.07 1035.72 1893.01 1038.17 1894.4 1038.99 C 1899.76 1042.12 1910.28 1039.82 1916.51 1039.95 C 1916.26 1038.57 1916.35 1036.25 1915.16 1035.36 C 1910.59 1031.99 1898.52 1034.25 1892.8 1034.21 z M 1933.63 1034.06 C 1933.86 1035.52 1933.79 1038.22 1935.07 1039.04 C 1939.4 1041.83 1947.7 1039.86 1952.77 1040 C 1952.49 1038.41 1952.56 1035.8 1951.11 1034.94 C 1946.64 1032.29 1938.71 1034.17 1933.63 1034.06 z M 986.463 1049.47 C 985.425 1050.81 984.843 1051.62 984.235 1053.24 C 984.946 1054.88 984.804 1055.73 986.558 1056.44 C 993.051 1059.07 1005.91 1056.73 1013.1 1056.21 L 1014.74 1055.41 C 1015.02 1052.72 1015.45 1052.21 1013.95 1050.01 C 1006.05 1047.15 994.881 1049 986.463 1049.47 z M 1033.93 1049.13 C 1034.05 1052.53 1033.44 1053.9 1035.91 1056.36 C 1044.79 1058.81 1053.86 1057.66 1062.92 1059.42 C 1062.9 1056.01 1063.39 1054.07 1061.48 1051.19 C 1053.08 1047.44 1042.99 1049.49 1033.93 1049.13 z M 956.956 1053.35 C 950.195 1054.21 941.866 1054.39 935.591 1056.93 C 934.353 1059.22 934.776 1060.94 935.012 1063.43 L 936.459 1064.68 C 939.015 1064.39 941.49 1064 944.018 1063.52 C 949.409 1062.86 961.302 1062.66 965.006 1058.72 C 965.916 1057.75 965.583 1056.65 965.599 1055.42 L 963.887 1052.86 C 961.418 1052.73 959.385 1052.9 956.956 1053.35 z M 1081.88 1052.6 C 1082 1055.89 1081.51 1058.64 1083.33 1061.43 C 1093.27 1063.75 1103.33 1065.41 1113.13 1068.27 C 1113.2 1064.58 1113.81 1062.64 1111.73 1059.52 C 1103.03 1054.93 1091.52 1054.95 1081.88 1052.6 z M 914.81 1062.38 C 905.138 1063.94 891.818 1066.12 884.357 1072.8 C 883.663 1075.02 883.36 1077.22 884.522 1079.42 C 884.729 1079.81 885.056 1080.12 885.323 1080.48 C 893.262 1077.78 910.371 1074.11 915.88 1068.03 C 916.156 1065.77 916.462 1064.73 915.198 1062.7 C 915.11 1062.55 914.94 1062.48 914.81 1062.38 z M 1130.73 1064.24 C 1130.45 1067.77 1129.76 1069.33 1131.7 1072.38 C 1140.79 1078 1151.96 1078.85 1161.66 1083.37 C 1162.17 1080.49 1163.21 1077.37 1161.97 1074.6 C 1152.92 1069.34 1140.83 1067.08 1130.73 1064.24 z M 864.689 1078.98 C 857.142 1082.52 836.487 1090.17 833.049 1097.54 C 832.509 1098.7 832.414 1100.12 832.315 1101.38 C 833.115 1102.87 833.214 1103.83 834.787 1104.57 C 842.34 1100.49 862.489 1091.99 866.627 1085.44 C 866.732 1082.96 866.402 1080.92 864.689 1078.98 z M 1181.59 1082.43 C 1181.25 1085 1179.92 1089.39 1181.75 1091.32 C 1186.31 1096.15 1204.42 1102.51 1211.12 1105.55 C 1211.35 1102.33 1212.37 1099.5 1210 1096.91 C 1203.82 1090.13 1189.87 1086.55 1181.59 1082.43 z M 996.344 1085.57 L 985.982 1086.08 L 986.008 1282.47 L 1004.75 1282.51 L 1015.16 1282.53 L 1015.07 1084.97 C 1008.84 1085.09 1002.55 1085.05 996.344 1085.57 z M 1034.83 1085.46 C 1034.31 1151.04 1034.19 1216.62 1034.49 1282.2 L 1063.89 1282.27 C 1064.65 1260.41 1064.14 1238.39 1064.11 1216.5 L 1063.79 1085.6 L 1034.83 1085.46 z M 960.068 1089.27 L 936.457 1094.31 L 936.706 1234.87 C 936.729 1243.66 935.368 1273.88 936.751 1280.55 C 936.893 1281.24 937.476 1281.75 937.839 1282.35 L 941.75 1282.56 L 965.838 1282.6 C 965.884 1262.05 967.685 1096.3 964.935 1089.12 C 963.101 1088.83 961.882 1088.88 960.068 1089.27 z M 1083.93 1088.55 L 1083.83 1282.38 L 1113.8 1282.26 C 1113.68 1220.11 1114.64 1157.81 1113.51 1095.69 C 1103.7 1093.15 1093.89 1090.4 1083.93 1088.55 z M 916.18 1098.15 L 888.016 1107.95 C 888.02 1125.77 886.85 1279.2 889.169 1282.34 L 916.997 1282.34 C 917.033 1259.75 919.06 1105.76 916.555 1098.51 L 916.18 1098.15 z M 1132.77 1100.91 C 1131.78 1161.29 1131 1222.23 1132.24 1282.6 L 1161.93 1282.69 L 1161.98 1112.37 C 1152.38 1108.11 1142.64 1104.48 1132.77 1100.91 z M 814.942 1104.8 C 807.222 1109.86 787.161 1120.36 784.932 1129.41 C 785.256 1131.69 785.374 1132.74 786.573 1134.76 L 788.234 1134.22 C 796.196 1128.94 814.938 1119.38 818.465 1111.01 C 818.195 1108.6 817.543 1107.03 815.739 1105.31 C 815.512 1105.09 815.208 1104.97 814.942 1104.8 z M 1229.89 1107.42 C 1229.82 1110.53 1228.85 1114.3 1231.08 1116.75 C 1233.77 1119.69 1257.53 1137.27 1260.3 1137.32 C 1260.96 1134.54 1262.09 1131.73 1260.94 1128.97 C 1253.19 1120.96 1240.03 1112.2 1229.89 1107.42 z M 867.088 1115.96 C 857.583 1121 847.947 1125.87 838.915 1131.73 C 838.914 1145.8 838.179 1279.02 838.993 1280.58 C 839.278 1281.13 839.784 1281.54 840.262 1281.92 C 840.444 1282.07 840.705 1282.07 840.926 1282.14 L 868.608 1282.13 L 868.77 1174.83 C 868.791 1156.66 869.969 1137.76 868.557 1119.7 C 868.429 1118.06 868.093 1117.24 867.088 1115.96 z M 1181.79 1120.06 L 1181.58 1283.02 L 1211.01 1283.01 L 1211.22 1136.75 C 1201.71 1131.21 1191.82 1124.46 1181.79 1120.06 z M 765.999 1138.84 C 756.368 1146 747.138 1153.6 737.878 1161.23 C 738.387 1164.15 738.412 1167.83 740.449 1169.96 L 741.634 1169.66 C 748.547 1163.27 765.974 1152.83 769.373 1144.97 C 769.022 1142.48 768.407 1141.03 766.571 1139.22 C 766.409 1139.06 766.19 1138.97 765.999 1138.84 z M 818.862 1142.96 C 809.612 1150.38 800.342 1157.65 790.708 1164.57 L 790.67 1243.51 C 790.639 1255.65 789.079 1269.67 791.006 1281.52 L 792.257 1282.58 L 820.204 1282.62 C 820.205 1266.77 821.761 1147.55 818.862 1142.96 z M 1279.92 1146.41 C 1279.74 1152.83 1279.32 1155.95 1284.1 1160.96 C 1289.09 1166.17 1306.14 1183.47 1311.54 1185.66 C 1311.58 1182.11 1311.82 1178.46 1311.45 1174.93 C 1301.83 1165.41 1291.48 1153.49 1279.92 1146.41 z M 1229.53 1147.85 C 1229.13 1192.86 1228.96 1237.87 1229.02 1282.88 L 1259.95 1282.91 C 1259.95 1245.08 1260.34 1207.19 1259.9 1169.36 C 1249.95 1161.95 1240.12 1154.34 1229.53 1147.85 z M 720.919 1175.16 C 714.404 1180.72 691.36 1198.14 689.788 1206.06 C 689.425 1207.9 689.932 1209.63 690.386 1211.38 L 691.706 1212.16 C 700.313 1204.64 717.997 1191.92 722.421 1182.08 C 722.331 1179.93 722.302 1176.95 720.919 1175.16 z M 218.316 1179.22 C 195.994 1183.65 180.66 1195.14 165.461 1211.73 C 154.872 1200.85 134.307 1179.96 118.064 1179.32 L 115.308 1180.57 C 114.872 1185.61 115.882 1190.73 116.536 1195.72 C 132.865 1202.75 143.036 1211.2 154.674 1224.44 C 145.225 1237.69 134.791 1250.05 123.934 1262.16 L 128.18 1278.01 C 142.58 1265.52 154.024 1251.46 167.24 1237.93 C 183.926 1256.7 207.29 1275.58 233.508 1277.14 C 258.147 1278.61 282.15 1265.16 299.685 1248.94 C 306.824 1242.34 313.806 1234.95 319.807 1227.3 C 326.85 1218.63 333.706 1209.94 340.241 1200.88 C 365.426 1233.64 387.207 1273.52 432.787 1279.24 C 437.214 1279.79 441.665 1280.11 446.124 1280.21 L 446.129 1265.14 C 408.866 1259.99 392.483 1244.45 370.247 1215 C 362.114 1204.04 354.514 1192.68 347.473 1180.98 C 340.914 1180.98 337.415 1180.42 332.406 1185.45 C 319.32 1198.57 308.94 1214.85 296.553 1228.74 C 281.955 1207.21 265.465 1185.35 238.39 1180.08 C 231.743 1178.78 225.054 1178.7 218.316 1179.22 z M 1812.52 1179.2 C 1789.47 1184.17 1773.19 1192.93 1760.05 1213.05 C 1756.58 1218.48 1753.5 1224.15 1750.84 1230.01 C 1735.42 1215.36 1723.47 1201.12 1713.68 1182.23 C 1709.73 1182.29 1705.75 1182.24 1701.82 1182.58 C 1685.12 1216.1 1655.89 1249.22 1619.61 1261.62 C 1611.49 1264.39 1603.28 1265.84 1594.8 1267.04 L 1594.7 1280.43 C 1626 1281.17 1651.36 1269.17 1673.92 1247.78 C 1687.44 1234.98 1698.33 1220.64 1708.07 1204.81 C 1716.19 1216.93 1725.39 1227.62 1735.23 1238.32 C 1755.63 1258.53 1783.87 1277.7 1813.76 1277.45 C 1835.31 1277.27 1853.86 1264.86 1868.47 1249.92 C 1872.49 1245.82 1876.02 1241.52 1879.23 1236.76 C 1891.49 1250.69 1903.66 1265.63 1918.41 1277.03 C 1920.25 1272.37 1921.99 1267.63 1924.06 1263.06 C 1912.33 1250.26 1901.19 1237.32 1891.34 1222.99 C 1903.54 1210.4 1912.45 1201.19 1929.7 1195.86 C 1930.04 1190.89 1930.48 1186.04 1931.27 1181.11 C 1929.61 1179.32 1929.36 1178.86 1926.71 1178.95 C 1913.7 1179.4 1889.74 1201.41 1881.13 1210.81 C 1861.55 1192.55 1844.22 1177.74 1815.87 1178.96 C 1814.75 1179.01 1813.64 1179.11 1812.52 1179.2 z M 770.125 1179.82 C 760.053 1187.01 750.775 1195.09 741.819 1203.62 C 741.816 1214.29 740.377 1277.87 743.038 1282.61 L 744.752 1282.96 L 771.554 1282.97 L 771.622 1180.93 L 770.125 1179.82 z M 1278.05 1188.38 L 1278.03 1283.01 L 1309.94 1282.99 C 1309.93 1261.44 1310.57 1239.6 1309.7 1218.08 C 1300.31 1208.58 1289.57 1195.19 1278.05 1188.38 z M 1328.95 1190.99 C 1328.87 1193.84 1328.09 1199.62 1329.85 1201.8 C 1333.39 1206.18 1358.77 1227.41 1362.36 1227.54 L 1363 1216.67 C 1352 1208.31 1340.75 1198 1328.95 1190.99 z M 672.55 1215.83 C 665.522 1221.11 646.621 1232.72 643.35 1240.04 C 643.53 1242.58 644.102 1243.81 645.436 1245.97 C 656.076 1240.39 665.645 1232.37 675.191 1225.12 C 674.632 1222.22 674.431 1218.03 672.55 1215.83 z M 722.719 1218.89 L 693.966 1245.23 C 693.923 1252.3 692.226 1278.34 695.321 1282.7 L 723.951 1282.74 C 723.986 1273.59 725.913 1223.72 722.719 1218.89 z M 1381 1229.4 C 1380.95 1232.84 1380.39 1237.12 1382.03 1240.18 C 1391.39 1246.84 1407.42 1254.21 1418.69 1257.23 C 1418.98 1254.31 1419.83 1250.88 1418.55 1248.14 C 1406.4 1241.33 1393.6 1235.35 1381 1229.4 z M 1328.19 1233.54 C 1328.14 1250.02 1327.93 1266.51 1328.08 1282.98 L 1360.22 1283 L 1360.25 1256.01 C 1349.95 1248.58 1339.35 1239.56 1328.19 1233.54 z M 624.525 1247.96 C 617.583 1251.15 602.152 1255.82 598.388 1262.41 C 598.269 1264.62 598.256 1266.48 598.667 1268.66 L 600.638 1269.15 C 608.636 1265.62 622.317 1261.48 627.532 1254.36 C 627.842 1252 627.362 1250.59 626.59 1248.37 L 624.525 1247.96 z M 1438.23 1255.37 C 1438.1 1258.37 1437.47 1261.69 1439.11 1264.34 C 1449.11 1269.8 1463.7 1272.08 1474.96 1273.93 C 1475.07 1270.82 1475.71 1267.35 1473.93 1264.64 C 1462.13 1261.11 1450.02 1258.96 1438.23 1255.37 z M 674.67 1258.89 C 668.729 1263.32 649.107 1274.93 646.738 1280.78 L 648.249 1281.47 C 657.466 1281.72 666.686 1281.87 675.907 1281.92 C 675.939 1277.5 677.268 1261.53 674.67 1258.89 z M 579.256 1265.29 C 570.463 1266.97 559.962 1268.03 551.842 1271.94 C 550.536 1274.01 550.367 1274.36 550.321 1276.79 C 551.209 1277.96 551.673 1278.8 553 1279.49 C 561.165 1278.22 574.118 1277.66 580.691 1272.63 C 581.505 1270.53 582.019 1269.76 580.99 1267.56 C 580.694 1266.93 579.874 1265.7 579.256 1265.29 z M 1496.88 1266.67 C 1496.91 1269.64 1496.41 1273.14 1498.15 1275.67 C 1508.83 1278.88 1522.81 1277.4 1533.98 1277.35 C 1534.02 1274.27 1534.63 1269.89 1532.9 1267.3 C 1521.53 1265.42 1508.45 1266.63 1496.88 1266.67 z M 1380 1268.17 L 1379.97 1282.49 C 1389.22 1282.31 1398.48 1282.01 1407.72 1281.59 C 1399.01 1276.46 1389.31 1272.12 1380 1268.17 z M 502.942 1272.01 C 503.07 1275.37 502.431 1276.88 504.909 1279.28 C 513.763 1281.77 523.039 1280 532.144 1280.16 C 532.069 1276.93 532.572 1275.51 530.466 1272.97 C 521.588 1270.23 512.128 1272.14 502.942 1272.01 z M 225.51 1307.5 C 214.205 1307.51 140.6 1305.79 136.351 1308.68 C 137.385 1310.85 137.44 1311.5 139.802 1312.4 C 144.943 1314.36 331.572 1312.95 356.5 1312.95 C 371.184 1312.96 436.791 1315.07 445.838 1311.52 L 446.048 1310.11 C 443.263 1307.87 439.882 1307.07 436.354 1306.88 C 427.887 1306.43 419.133 1307.2 410.622 1307.22 L 347.389 1307.24 C 306.973 1307.25 265.82 1305.6 225.51 1307.5 z M 500.153 1307.14 L 501.339 1312 C 507.424 1314.93 629.52 1312.93 648.53 1312.93 L 1240.69 1312.91 L 1436.54 1313 C 1469.39 1313.01 1503.15 1314.56 1535.92 1312.8 C 1535.14 1310.13 1535.34 1309.01 1532.9 1307.53 C 1511.25 1306.26 1489.16 1307.11 1467.46 1307.13 L 1360.1 1306.95 L 1010.16 1306.93 L 670.503 1306.92 L 558.37 1306.88 C 539.136 1306.87 519.333 1305.98 500.153 1307.14 z M 1596.41 1307.3 L 1593.23 1308.2 L 1592.33 1309.87 C 1593.83 1312.21 1595.13 1312.62 1597.86 1313.14 C 1604.97 1314.52 1614.61 1313.2 1621.99 1313.15 L 1675.24 1313.13 L 1909.07 1313.13 L 1910.95 1312.06 L 1911.65 1309.45 C 1910.23 1307.56 1911.09 1307.97 1909.02 1307.64 C 1901.47 1306.43 1891.92 1307.64 1884.15 1307.63 L 1823.27 1307.54 L 1596.41 1307.3 z M 337.014 1386.22 C 331.43 1387.76 327.435 1389.46 324.605 1394.8 C 317.79 1407.66 317.903 1450.96 322.614 1465.14 C 323.966 1469.21 325.79 1472.43 329.844 1474.29 C 332.404 1475.47 335.513 1475.93 338.291 1476.33 C 344.134 1474.54 348.806 1473.07 351.687 1467.27 C 357.276 1456.02 356.862 1407.24 352.335 1395.81 C 350.859 1392.08 347.957 1389.42 344.292 1387.86 C 342.013 1386.9 339.448 1386.58 337.014 1386.22 z M 718.241 1386.02 C 712.824 1388.55 708.246 1390.81 706.043 1396.72 C 701.908 1407.82 702.232 1456.98 707.565 1467.4 C 709.373 1470.93 712.459 1473.4 716.232 1474.57 C 719.079 1475.46 721.876 1475.59 724.833 1475.57 C 730.407 1473.17 733.567 1470.74 735.761 1464.92 C 740.271 1452.97 740.678 1407.37 735.07 1395.92 C 733.048 1391.78 730.059 1387.95 725.455 1386.66 C 723.032 1385.97 720.734 1385.93 718.241 1386.02 z M 897.283 1386.4 L 890.977 1437.38 C 888.984 1421.05 889.925 1403.78 886.92 1387.78 C 884.316 1386.4 881.441 1387.09 878.524 1387.21 C 876.229 1388.96 876.196 1391.09 875.734 1393.9 C 872.974 1410.72 873.216 1428.21 871.017 1445.15 C 869.703 1433.42 869.05 1395.19 863.601 1387.72 C 860.768 1387.12 858.631 1386.9 855.741 1387.06 C 851.854 1393.98 857.382 1412.15 858.522 1420.25 C 859.869 1430.78 862.338 1468.32 869.171 1474.32 C 870.495 1475.49 871.018 1475.08 872.626 1474.99 C 878.759 1469.9 880.147 1435.62 881.103 1426.74 C 881.913 1433.83 884.169 1471.26 887.514 1474.02 C 890.316 1474.06 892.994 1474.49 895.548 1473.24 C 899.36 1445.19 905.445 1415.84 906.336 1387.64 C 903.526 1385.85 900.575 1386.45 897.283 1386.4 z M 928.203 1385.98 C 923.122 1388.06 918.331 1390.26 916.029 1395.59 C 910.929 1407.4 910.372 1451.88 915.689 1463.5 C 917.646 1467.78 920.69 1471.85 925.265 1473.49 C 928.082 1474.5 931.186 1474.33 934.124 1474.19 C 939.667 1472.08 942.835 1469.74 945.2 1464.14 C 950.563 1451.42 951.352 1409.45 945.557 1396.66 C 943.688 1392.53 940.673 1388.17 936.114 1386.78 C 933.585 1386.02 930.819 1385.94 928.203 1385.98 z M 1176.89 1386.22 C 1171.31 1389.74 1168.08 1392.92 1166.75 1399.61 C 1162.04 1423.23 1199.39 1450.64 1183.33 1461.28 C 1181.48 1462.5 1178.75 1463.15 1176.57 1462.63 C 1173.32 1461.85 1169.83 1458.41 1167.24 1456.32 L 1165.57 1456.73 C 1164.31 1458.93 1164.26 1460.84 1164.87 1463.26 C 1166.05 1467.95 1169.43 1472.11 1173.73 1474.28 C 1176.72 1475.78 1179.61 1475.81 1182.88 1475.7 C 1189.21 1472.82 1194.17 1469.1 1196.89 1462.43 C 1200.02 1454.74 1198.18 1444.28 1194.8 1436.98 C 1190.53 1427.73 1174.29 1412.55 1177.54 1402.27 C 1178.33 1399.78 1179.77 1398.83 1181.97 1397.71 C 1184.99 1398.48 1192.39 1401.22 1195.16 1399.78 C 1196.53 1399.07 1196.9 1397.93 1197.03 1396.44 C 1197.32 1393.12 1195.16 1390.48 1192.83 1388.43 C 1188.55 1384.64 1182.04 1385.65 1176.89 1386.22 z M 1218.96 1386.04 C 1213.1 1389.09 1208.88 1392.34 1206.74 1398.84 C 1204.29 1406.26 1206.34 1414.79 1209.95 1421.47 C 1215.32 1431.41 1229.79 1444.61 1228.08 1456.62 C 1227.77 1458.85 1226.55 1460.01 1224.59 1460.98 C 1222.08 1462.22 1218.48 1461.97 1215.8 1461.69 C 1213.51 1460.06 1211.63 1458.42 1209.63 1456.44 C 1207.96 1456.26 1206.17 1455.87 1204.59 1456.73 C 1203.34 1457.41 1203.09 1457.91 1202.98 1459.12 C 1202.63 1463.08 1205.95 1467.4 1208.48 1470.14 C 1211.19 1473.09 1214.72 1474.17 1218.42 1475.39 C 1225.12 1474.28 1231.39 1471.86 1235.3 1465.89 C 1239.31 1459.77 1238.52 1450.03 1236.66 1443.33 C 1233.64 1432.4 1211.88 1410.98 1217.14 1400.55 C 1217.87 1399.11 1219.35 1398.3 1220.88 1397.85 C 1224.95 1396.64 1228.61 1399.43 1231.89 1401.44 C 1234.65 1400.84 1234.49 1400.88 1236.05 1398.53 C 1236.21 1395.07 1235.77 1392.79 1233.45 1390.1 C 1230.95 1387.19 1227.8 1385.98 1224.03 1385.88 C 1222.34 1385.84 1220.65 1385.9 1218.96 1386.04 z M 1524.09 1386.08 C 1518.24 1388.94 1513.98 1391.96 1511.74 1398.32 C 1508.9 1406.38 1511.29 1415.69 1515.2 1422.95 C 1519.95 1431.76 1534.78 1446.97 1532.3 1457.54 C 1531.76 1459.88 1530.22 1460.92 1528.13 1461.79 C 1525.66 1462.81 1522.38 1462.59 1520.12 1461.29 C 1518.06 1460.09 1516.02 1458.26 1514.17 1456.77 C 1511.71 1457.08 1511.85 1457.07 1510.29 1459.01 C 1509.59 1462.93 1510.14 1465.66 1512.41 1468.93 C 1515.09 1472.81 1519.14 1475.15 1523.8 1475.79 C 1525.11 1475.96 1526.42 1476.05 1527.73 1476.13 C 1533.71 1474.21 1538.77 1471.71 1541.87 1465.94 C 1545.22 1459.7 1544.06 1451.67 1541.84 1445.26 C 1537.89 1433.85 1517.96 1413.51 1522.2 1401.74 C 1523 1399.53 1525.48 1397.81 1527.71 1397.24 C 1530.87 1396.43 1533.74 1399.04 1535.96 1400.95 C 1536.52 1401.43 1537.08 1401.92 1537.63 1402.42 C 1539.87 1402.22 1539.71 1402.07 1541.38 1400.81 C 1542.3 1398.52 1542.45 1397.92 1541.38 1395.46 C 1539.94 1392.11 1534.76 1387.05 1531.18 1386.24 C 1528.95 1385.73 1526.37 1385.97 1524.09 1386.08 z M 477.481 1387.45 C 476.159 1396.23 475.705 1468.75 477.526 1473.7 C 480.227 1474.24 482.554 1474.03 485.26 1473.77 C 487.764 1471.18 487.253 1466.74 487.198 1463.26 C 486.984 1449.74 485.163 1434.85 486.749 1421.46 C 488.634 1431.91 492.894 1468.26 499.715 1474.11 C 501.951 1473.88 501.394 1474.4 502.559 1472.92 C 507.863 1466.21 511.451 1430.81 513.096 1420.27 C 513.278 1426.15 513.562 1432.04 513.153 1437.92 C 513.012 1448.63 511.328 1462.24 513.237 1472.61 C 515.018 1474.32 516.019 1475.21 518.738 1475.16 C 521.147 1475.11 522.073 1474.61 523.406 1472.77 C 524.864 1462 524.15 1450.72 524.107 1439.86 C 523.955 1422.44 523.954 1405.01 524.106 1387.58 C 520.008 1387.54 515.85 1387.33 511.758 1387.47 C 508.037 1406.53 505.482 1427.04 500.168 1445.64 C 496.858 1426.29 494.289 1406.61 490.367 1387.38 L 477.481 1387.45 z M 557.129 1387.01 L 557.056 1399.23 L 580.457 1399.07 C 573.417 1423.65 559.437 1450.8 555.303 1474.66 C 567.109 1474.91 578.917 1475.01 590.726 1474.97 C 592.151 1473.01 592.412 1470.92 592.871 1468.61 C 591.847 1466.09 591.854 1465.43 589.125 1464.43 C 583.67 1462.41 574.735 1463.62 568.966 1463.76 C 574.828 1448.37 589.78 1413.33 592.061 1398.75 C 592.657 1394.94 592.246 1390.87 591.991 1387.04 L 557.129 1387.01 z M 658.418 1387.42 C 663.272 1408.29 674.544 1429.68 673.824 1451.32 C 673.645 1456.7 671.661 1470.02 675.183 1473.59 C 678.1 1473.88 680.316 1474.02 683.209 1473.25 C 686.957 1462.01 682.284 1445.06 686.283 1431.32 C 688.821 1422.8 699.539 1394.27 697.591 1387.46 C 694.419 1387.18 691.767 1387.1 688.62 1387.64 C 683.289 1395.96 681.304 1410.18 678.742 1419.92 C 675.568 1409.09 673.155 1398.11 670.674 1387.11 L 658.418 1387.42 z M 749.832 1386.97 L 749.658 1432.93 C 749.631 1441.95 748.865 1451.77 750.418 1460.65 C 751.032 1464.16 752.202 1467.57 754.694 1470.2 C 757.809 1473.49 762.664 1474.87 767.101 1474.72 C 771.194 1474.59 774.775 1472.89 777.447 1469.78 C 787.953 1457.58 783.703 1417.3 783.462 1400.95 C 783.634 1397.55 784.583 1391.63 782.339 1388.86 C 780.793 1386.96 779.758 1386.6 777.525 1386.13 C 775.012 1387.21 774.809 1387.58 773.259 1389.87 C 771.924 1403.37 777.137 1452.61 769.267 1460.02 C 766.536 1460.99 766.269 1461.07 763.481 1460.34 C 753.052 1449.28 765.754 1392.37 757.998 1387.13 C 755.277 1387.04 752.555 1386.98 749.832 1386.97 z M 795.216 1387.03 C 795.179 1401.49 793.112 1463.66 796.15 1472.55 C 799.066 1473.81 801.403 1473.68 804.49 1473.59 L 805.787 1472.35 C 805.962 1458.98 805.239 1445.41 806.19 1432.09 C 809.566 1441.26 812.789 1450.99 814.748 1460.58 C 815.806 1464.87 816.494 1470.1 819.168 1473.67 C 822.367 1473.93 824.642 1473.79 827.752 1472.97 C 829.471 1466.98 820.299 1440.92 818.217 1433.35 C 825.3 1427.49 827.96 1422.2 828.81 1412.96 C 829.433 1406.19 828.494 1398.15 823.726 1392.92 C 818.818 1387.53 812.405 1387.02 805.556 1386.98 L 795.216 1387.03 z M 1045.91 1387.09 L 1045.75 1443.26 C 1045.72 1452.79 1044.79 1463.23 1046.4 1472.6 C 1048.83 1473.92 1052.69 1474.42 1055.4 1473.5 C 1055.66 1473.42 1055.89 1473.27 1056.14 1473.16 C 1057.29 1466.44 1056.8 1459.31 1056.72 1452.5 L 1056.73 1438.24 C 1062.97 1438.04 1067.71 1437.93 1072.09 1433.01 C 1078.22 1426.11 1079.36 1416.45 1078.56 1407.57 C 1078.02 1401.44 1076.11 1394.82 1071.18 1390.75 C 1064.83 1385.5 1053.65 1386.94 1045.91 1387.09 z M 1087.99 1387.05 L 1087.78 1441.17 C 1087.71 1451.44 1086.74 1462.39 1088.3 1472.54 C 1090.6 1474.22 1093.59 1473.5 1096.41 1473.47 L 1097.83 1472.63 C 1100.58 1459.26 1097.88 1444.71 1099.87 1431.11 C 1102.31 1439.77 1104.43 1448.53 1106.21 1457.35 C 1107.12 1462.48 1107.53 1468.26 1110.31 1472.74 C 1113.1 1474.31 1114.99 1473.89 1118.15 1473.86 L 1119.79 1472.92 C 1119.09 1460.29 1113.35 1447.35 1110.88 1434.87 C 1117.65 1429.6 1120.3 1424.52 1121.22 1415.93 C 1122.02 1408.5 1120.99 1399.24 1116.03 1393.3 C 1112.46 1389.01 1107.53 1387.39 1102.1 1387.06 C 1097.43 1386.77 1092.67 1386.96 1087.99 1387.05 z M 1270.29 1387.36 L 1270.21 1473.71 C 1280.18 1473.95 1289.79 1475.28 1298.12 1468.82 C 1300.13 1466.47 1302.12 1464.18 1303 1461.14 C 1306.39 1449.38 1305.34 1422.44 1304.31 1410.21 C 1303.72 1403.23 1302.43 1395.67 1296.84 1390.91 C 1295.64 1389.9 1294.37 1389.06 1293.05 1388.23 C 1285.44 1387.73 1277.91 1387.34 1270.29 1387.36 z M 1324.09 1386.74 C 1322.6 1396.23 1308.31 1469.2 1310.32 1472.63 C 1313.46 1472.94 1316.59 1473.56 1319.64 1472.55 C 1321.74 1467.97 1321.32 1462.36 1322.23 1457.43 L 1333.76 1457.65 C 1333.93 1458 1334.13 1458.33 1334.27 1458.69 C 1335.94 1463.09 1334.31 1468.7 1337.13 1472.55 C 1339.78 1473.46 1341.44 1473.18 1344.15 1472.85 C 1346.21 1471.03 1346.77 1470.09 1346.96 1467.29 C 1347.16 1464.16 1334.17 1394.12 1332.48 1388.35 C 1330.18 1386.33 1327.07 1386.69 1324.09 1386.74 z M 1393.89 1387.43 C 1390.69 1402.83 1389.06 1418.62 1386.48 1434.15 C 1384.54 1445.81 1380.15 1460.25 1380.39 1471.89 C 1382.15 1473.05 1384.49 1473.63 1386.6 1473.08 C 1388.83 1472.49 1390.24 1471.88 1391.07 1469.65 C 1392.35 1466.19 1392.21 1461.18 1392.84 1457.44 L 1404.45 1457.32 L 1404.72 1458.35 C 1405.8 1462.55 1405.5 1468.55 1408.19 1471.89 C 1410.98 1473.33 1413.64 1472.81 1416.65 1472.56 C 1418.12 1470.76 1417.65 1468.9 1417.43 1466.62 C 1416.06 1452.53 1411.61 1438.23 1409.03 1424.29 C 1406.87 1412.58 1406.58 1400.08 1403.41 1388.64 C 1400.52 1386.89 1397.24 1387.34 1393.89 1387.43 z M 1552.89 1387.52 C 1549.81 1396.79 1551.98 1461.39 1551.97 1475.94 L 1579.99 1475.82 L 1579.86 1462.66 L 1563.17 1463.18 L 1563.21 1435.01 C 1567.25 1435.09 1571.38 1435.82 1574.74 1433.23 C 1576.22 1430.73 1576.7 1430.39 1576.44 1427.54 C 1574.81 1425.4 1574.11 1423.86 1571.23 1423.39 C 1568.83 1423 1565.52 1423.47 1563.07 1423.6 L 1563.23 1399.64 L 1578.29 1399.63 L 1578.46 1387.52 L 1552.89 1387.52 z M 367.522 1387.59 L 367.827 1474.52 L 378.384 1474.45 L 377.981 1450.76 C 378.02 1447.56 377.51 1445.58 379.378 1442.93 C 386.904 1440.41 395.771 1440.35 399.609 1432.31 C 403.456 1424.24 403.846 1407.95 400.641 1399.83 C 398.658 1394.81 394.845 1391.2 389.807 1389.29 C 382.829 1386.66 374.876 1387.42 367.522 1387.59 z M 409.382 1387.86 C 408.795 1391.2 407.535 1395.27 408.894 1398.45 C 412.391 1400.45 416.168 1399.8 420.153 1399.84 L 420.289 1474.12 C 424.056 1474.35 427.684 1475.27 431.02 1473.4 C 431.816 1470.82 431.716 1468.91 431.598 1466.25 C 431.508 1443.9 431.01 1421.44 431.474 1399.1 C 434.838 1399.14 439.397 1399.82 442.129 1397.7 C 443.4 1394.51 443.023 1391.27 442.922 1387.9 L 409.382 1387.86 z M 453.2 1387.77 L 453.211 1446.55 C 453.211 1454.95 452.041 1465.34 453.693 1473.49 C 456.55 1475.41 460.558 1474.64 463.87 1474.61 L 463.999 1419.29 C 463.999 1409.17 464.553 1398.7 463.583 1388.63 C 460.223 1387.36 456.733 1387.71 453.2 1387.77 z M 536.542 1387.59 L 536.239 1442.24 C 536.194 1452.46 535.481 1463.1 536.557 1473.25 C 539.469 1475.07 543.681 1474.49 547.017 1474.5 L 547.139 1420.15 C 547.155 1409.79 547.702 1399.09 546.681 1388.78 C 543.993 1386.87 539.734 1387.56 536.542 1387.59 z M 601.154 1387.89 L 600.828 1475.04 L 632.244 1475.17 L 632.303 1463.16 C 625.877 1463.26 618.935 1463.83 612.609 1462.72 C 612.182 1462.09 611.59 1461.5 611.45 1460.76 C 611.518 1452.51 611.452 1444.25 611.679 1436.01 L 626.817 1435.95 L 626.938 1424.04 L 612.369 1424.03 L 612.452 1399.99 L 632.39 1399.93 L 632.568 1387.92 L 601.154 1387.89 z M 958.618 1387.84 L 958.343 1441.93 C 958.296 1452.09 957.582 1462.75 958.975 1472.81 C 960.981 1473.99 962.825 1474.77 965.227 1474.21 C 966.476 1473.92 967.905 1473.17 968.495 1471.98 C 970.591 1467.76 969.077 1439.13 969.139 1431.99 C 972.612 1441.52 975.514 1451.25 977.83 1461.13 L 981.179 1473.91 C 984.506 1473.89 988.76 1474.36 991.804 1473.03 C 989.609 1459.71 984.631 1446.38 981.029 1433.34 C 987.855 1428.21 990.552 1423.48 991.752 1414.95 C 992.703 1408.2 992.098 1399.92 987.776 1394.33 C 984.773 1390.44 980.453 1388.31 975.598 1387.89 C 970.049 1387.41 964.195 1387.78 958.618 1387.84 z M 1001 1387.98 L 1000.85 1473.9 C 1012.14 1474.12 1019.96 1475.21 1028.79 1467.25 C 1038.08 1454.07 1037.96 1423.66 1035.21 1407.86 C 1034.14 1401.67 1031.8 1394.72 1026.56 1390.79 C 1020.57 1386.29 1008.28 1387.88 1001 1387.98 z M 1130.73 1387.76 L 1130.08 1473.55 L 1159.09 1473.71 C 1159.2 1470.2 1159.9 1466.05 1157.77 1463.09 C 1153.62 1460.54 1145.51 1461.79 1140.56 1461.79 L 1140.71 1435.31 C 1144.71 1435.4 1150.36 1436.26 1153.7 1433.68 C 1154.73 1432.88 1155.66 1431.57 1156.45 1430.57 C 1156.39 1428.05 1156.39 1427.69 1154.52 1425.79 C 1151.49 1422.72 1147.14 1423.38 1143.18 1423.47 L 1141.41 1423.52 C 1141.53 1415.39 1141.53 1407.24 1141.79 1399.12 L 1158.9 1399.23 L 1158.94 1387.8 L 1130.73 1387.76 z M 1349.66 1387.8 C 1349.55 1391.31 1348.83 1395.53 1350.99 1398.46 C 1353.02 1399.58 1354.45 1399.95 1356.75 1400.22 C 1362.43 1414.93 1352.76 1463.75 1360.16 1472.75 C 1362.79 1473.16 1364.88 1473.07 1367.5 1472.84 C 1369.21 1471.22 1368.8 1472.19 1368.86 1469.98 C 1368.97 1466.91 1369.03 1463.83 1369.02 1460.75 C 1368.98 1450.74 1366.66 1404.62 1370.76 1399.42 C 1374.03 1399.3 1375.26 1399.58 1378.01 1397.7 C 1379.6 1394.52 1379.14 1391.27 1379.01 1387.82 L 1349.66 1387.8 z M 1425.39 1387.79 C 1424.99 1416.31 1424.76 1444.84 1424.68 1473.36 C 1433.6 1473.71 1446.35 1475.8 1453.39 1469.22 C 1454.51 1468.18 1455.55 1467.05 1456.5 1465.84 C 1459.42 1458.23 1461.67 1447.69 1457.97 1439.98 C 1456.05 1435.97 1452.01 1431.9 1452.41 1427.37 C 1458.41 1420.86 1458.28 1416.4 1458.05 1407.75 C 1457.89 1402.06 1456.64 1396.45 1452.3 1392.46 C 1445.27 1386.02 1434.15 1387.58 1425.39 1387.79 z M 1478.34 1388.01 C 1474.31 1416.59 1469.69 1445.09 1464.48 1473.48 C 1468.4 1473.59 1471.35 1474.18 1474.93 1472.36 C 1477.72 1468.27 1477.28 1462.54 1478.17 1457.76 L 1489.86 1457.41 C 1490.49 1462.95 1491.21 1468.48 1492.04 1474 L 1504.19 1473.85 C 1500.03 1454.94 1496.92 1435.81 1493.65 1416.73 C 1492.11 1407.73 1491.39 1397.37 1488.38 1388.79 C 1485.01 1387.56 1481.88 1387.86 1478.34 1388.01 z M 885.048 1492.41 L 884.673 1546.33 C 884.572 1557.44 883.965 1568.81 884.905 1579.87 C 887.587 1581.62 892.81 1580.92 895.961 1580.93 L 895.987 1545.75 L 896.378 1543.06 C 900.02 1540.83 906.405 1541.86 910.574 1541.93 L 910.619 1530.01 L 895.738 1530.01 L 895.877 1504.79 L 915.784 1504.84 L 915.683 1492.58 L 885.048 1492.41 z M 936.073 1492.12 C 930.352 1494.74 927.37 1496.97 925.162 1503.03 C 920.179 1516.72 919.573 1559.48 925.694 1572.13 C 927.887 1576.67 931.306 1581.08 936.353 1582.51 C 938.876 1583.23 941.423 1583.08 944.011 1582.98 C 950.499 1579.73 953.32 1576.33 955.56 1569.39 C 959.605 1556.85 960.772 1513.56 954.96 1502.22 C 952.968 1498.33 949.865 1494.55 945.602 1493.11 C 942.454 1492.05 939.349 1491.99 936.073 1492.12 z M 752.151 1492.94 L 752.019 1548.38 C 752.002 1558.83 751.357 1569.74 752.542 1580.12 C 755.566 1581.39 758.42 1581.21 761.629 1581.19 C 763.372 1579.53 763.121 1575.94 763.194 1573.55 C 763.397 1566.97 763.211 1560.34 763.161 1553.75 C 763.216 1552.05 762.786 1548.23 763.943 1547.02 C 771.683 1538.93 786.639 1548.79 788.508 1521.42 C 789.027 1513.82 788.422 1505.57 783.073 1499.65 C 778.421 1494.5 771.306 1492.85 764.64 1492.76 C 760.476 1492.73 756.312 1492.79 752.151 1492.94 z M 798.713 1493.04 C 798.15 1522.51 797.975 1551.99 798.19 1581.47 C 806.226 1581.8 821.318 1584.54 827.611 1579.24 C 828.816 1576.92 828.756 1575.82 828.401 1573.26 C 826.882 1571.09 826.481 1570.28 823.732 1569.64 C 819.473 1568.64 813.552 1570.09 808.992 1569.58 L 809.032 1541.62 C 812.647 1541.71 818.53 1542.56 821.445 1540.13 C 823.282 1538.61 823.776 1537.72 824.298 1535.44 C 823.226 1533.12 822.278 1531.56 819.872 1530.41 C 817.186 1529.13 812.153 1529.8 809.169 1529.91 L 809.298 1504.93 C 814.84 1505.1 822.719 1506.42 827.563 1503.49 C 828.585 1501.6 829.308 1499.65 828.351 1497.49 C 827.208 1494.91 825.447 1493.81 822.843 1493.02 C 816.192 1491.02 805.858 1493.14 798.713 1493.04 z M 838.782 1493.39 C 838.522 1512.05 838.462 1530.72 838.599 1549.38 C 838.619 1559.1 837.432 1570.97 839.53 1580.42 C 841.95 1582.1 844.991 1581.54 847.807 1581.46 C 849.663 1580.07 849.586 1580.15 849.911 1577.8 C 851.696 1564.88 849.069 1551.47 850.696 1538.38 C 853.654 1546.95 855.997 1555.61 858.318 1564.36 L 862.403 1580.99 C 865.209 1580.96 870.716 1581.63 872.772 1579.96 C 870.742 1566.67 865.691 1553.85 862.921 1540.66 C 869.858 1534.46 872.102 1527.91 872.521 1518.64 C 872.826 1511.9 871.764 1503.79 867.082 1498.57 C 863.083 1494.11 858.01 1493.34 852.299 1493.24 C 847.801 1493.15 843.279 1493.29 838.782 1493.39 z M 970.294 1493.17 C 970.278 1504.16 968.547 1576.85 971.038 1580.7 C 974.154 1581.24 976.573 1581.13 979.7 1580.72 C 983.6 1576.26 980.922 1544.94 982.381 1536.07 C 985.646 1545.35 987.117 1555.08 990.18 1564.37 C 991.177 1568.86 991.968 1577.78 996.011 1580.5 C 997.169 1581.27 1001.33 1581.47 1002.65 1581.09 C 1003.28 1580.9 1003.82 1580.51 1004.41 1580.23 C 1004.48 1567.45 997.612 1553.41 994.806 1540.87 C 1001.23 1534.94 1004.43 1526.28 1004.69 1517.58 C 1004.88 1511.27 1003.22 1505.01 998.857 1500.29 C 994.219 1495.28 987.566 1493.13 980.888 1493.03 C 977.36 1492.98 973.821 1493.08 970.294 1493.17 z M 1016.55 1494.01 L 1016.29 1581.65 L 1028 1581.55 L 1027.02 1534.34 C 1030.38 1550.11 1033.63 1565.9 1036.77 1581.71 L 1048.54 1581.72 C 1050.75 1565.52 1053.41 1549.38 1056.54 1533.32 C 1057 1542.73 1057.03 1552.09 1056.98 1561.5 C 1057 1566.65 1055.69 1577.12 1058.03 1581.34 C 1061.17 1581.56 1063.74 1581.65 1066.82 1580.96 C 1070.08 1574.87 1067.5 1507.55 1068.66 1494.05 L 1054.26 1494.03 C 1049.45 1515.55 1045.2 1537.62 1042.08 1559.44 C 1038.49 1537.58 1034.13 1515.94 1030.8 1494.01 L 1016.55 1494.01 z M 1090.01 1494 C 1086.21 1523.58 1081.47 1552.64 1075.5 1581.87 L 1087.31 1581.92 C 1087.88 1577.22 1088.28 1572.42 1089.16 1567.77 L 1103.7 1567.77 C 1104.2 1571.7 1104.14 1578.25 1106.26 1581.54 C 1109.54 1581.99 1111.92 1581.93 1115.18 1581.28 L 1116.44 1580.1 C 1115 1571.08 1102.88 1498.71 1099.47 1494.61 C 1096.23 1493.73 1093.35 1493.86 1090.01 1494 z M 1125.87 1494.03 C 1125.83 1506.5 1123.85 1576.92 1127.32 1582.22 C 1130.03 1583.3 1129.95 1583.12 1132.7 1582.04 C 1134.41 1580.21 1135.59 1578.73 1136.07 1576.16 C 1137.1 1570.69 1136.15 1563.83 1136.05 1558.23 C 1135.85 1546.55 1135.57 1534.58 1136.49 1522.93 C 1140.35 1542.86 1144.91 1562.74 1151.6 1581.93 C 1154.75 1581.94 1158.88 1582.43 1161.74 1581.09 C 1162.82 1563.92 1162.13 1546.41 1162.11 1529.21 C 1162.1 1518.27 1163.1 1506.3 1161.63 1495.5 C 1159.87 1494.05 1158.09 1493.48 1155.76 1493.68 C 1152.95 1493.93 1152.2 1494.85 1150.45 1496.78 C 1148.35 1510.54 1150.76 1526.73 1150.79 1540.78 C 1145.8 1526.54 1143.18 1508.06 1136.88 1494.82 C 1133.32 1493.51 1129.61 1493.92 1125.87 1494.03 z M 1190.15 1494.08 C 1182.7 1497.15 1179.23 1500.34 1176.26 1507.92 C 1170.79 1521.87 1170.78 1557.4 1177.01 1570.93 C 1179.2 1575.68 1182.8 1580.33 1187.9 1582.13 C 1192.05 1583.59 1196.78 1582.94 1200.67 1580.99 C 1203.2 1579.73 1204.74 1578.05 1205.77 1575.39 C 1206.84 1572.6 1206.35 1568.14 1206.3 1565.1 L 1204.67 1564.4 L 1203.68 1565.22 C 1201.02 1567.4 1197.88 1570.22 1194.12 1569.7 C 1191.48 1569.33 1188.79 1566.9 1187.64 1564.57 C 1181.92 1552.92 1182.6 1524.83 1187.24 1512.85 C 1188.1 1510.62 1189.28 1508.41 1191.64 1507.54 C 1194.9 1506.34 1197.1 1507.4 1199.94 1508.96 C 1201.69 1509.92 1203.3 1510.81 1205.16 1511.54 L 1205.13 1511.5 C 1205.45 1510.99 1205.79 1510.49 1206.11 1509.98 C 1207.49 1507.78 1208.2 1505.44 1207.33 1502.87 C 1206.23 1499.61 1202.64 1496.26 1199.49 1494.97 C 1196.55 1493.77 1193.26 1493.92 1190.15 1494.08 z M 1214.73 1495 L 1214.63 1581.96 C 1221.48 1581.99 1238.02 1584.14 1243.21 1580.62 C 1244.22 1578.23 1245.16 1575.46 1244.38 1572.83 C 1244.04 1571.67 1243.87 1571.52 1243.28 1570.62 C 1238.9 1568.79 1227.7 1572.35 1225.86 1568.08 L 1225.92 1543.73 L 1240.86 1543.79 L 1240.85 1531.98 L 1226.13 1532.02 L 1226.14 1507.35 L 1242.99 1507.74 L 1242.98 1495.03 L 1214.73 1495 z M 301.628 1608.18 C 305.535 1613.98 309.346 1619.87 313.413 1625.55 L 782.446 1626.23 C 833.091 1626.24 883.808 1627.21 934.444 1626.69 C 906.272 1644.56 877.697 1661.78 848.741 1678.35 C 835.701 1685.93 822.743 1694.06 809.363 1701.01 C 823.941 1702.25 838.531 1703.32 852.992 1705.6 C 858.703 1713.68 863.455 1722.04 867.408 1731.11 C 886.804 1707.64 906.221 1684.35 925.21 1660.54 C 933.687 1649.91 943.818 1639.13 950.092 1627.01 L 1012.62 1627.05 C 992.341 1708.1 958.103 1797.55 882.954 1842.8 C 855.839 1859.12 822.842 1868.24 791.543 1860.11 C 774.363 1855.65 759.996 1846.14 750.981 1830.6 C 740.922 1813.25 739.058 1790.33 744.38 1771.17 C 750.88 1747.77 767.258 1730.4 785.408 1715.12 C 774.674 1710.56 765.285 1704.38 755.607 1697.94 C 735.636 1735.07 716.42 1779.76 729.466 1822.15 C 735.804 1842.75 750.118 1859.27 769.266 1869.06 C 796.231 1882.84 831.23 1881.89 859.439 1872.6 C 920.296 1852.55 961.41 1799.66 989.054 1744.31 C 997.628 1727.14 1004.09 1709.36 1009.96 1691.13 C 1008.35 1712.44 1008.85 1734 1008.72 1755.37 C 1008.39 1788.96 1008.42 1822.55 1008.81 1856.13 C 1000.01 1849.15 991.127 1842.38 981.608 1836.38 C 986.474 1847.19 992.446 1857.43 997.19 1868.31 C 1007.38 1891.67 1014.74 1916.86 1020.93 1941.57 C 1032.06 1903.77 1042.07 1871.37 1059.86 1835.84 C 1050.41 1842.39 1041.02 1849.01 1031.69 1855.72 C 1031.13 1802.54 1030.9 1749.37 1031 1696.19 C 1055.66 1763.23 1089.8 1833.55 1158.34 1865.31 C 1175.15 1873.2 1193.36 1877.65 1211.91 1878.41 C 1240.07 1879.37 1269.61 1872.77 1290.69 1852.88 C 1305.77 1838.65 1313.41 1819.4 1313.84 1798.83 C 1314.53 1765.48 1296.26 1729.2 1281.81 1699.79 C 1272.17 1706.7 1262.78 1712.31 1251.49 1716.12 C 1273.94 1731.34 1291.56 1755.59 1296.56 1782.53 C 1299.55 1798.68 1297.74 1816.07 1288.38 1829.93 C 1276.98 1846.81 1255.84 1857.14 1236.24 1860.66 C 1204.36 1866.37 1169.03 1854.97 1143.02 1836.56 C 1076.08 1789.2 1047.32 1703.37 1028.86 1627.14 L 1091.28 1627.08 C 1098.89 1645.69 1153.85 1714.1 1169.88 1730.52 C 1172.68 1723.85 1175.25 1717.18 1177.64 1710.35 C 1190.25 1705.07 1203.27 1699.85 1216.35 1695.87 C 1193.25 1682.68 1170.41 1669.04 1147.85 1654.95 C 1133.64 1646.15 1118.69 1637.49 1105.75 1626.88 L 1733.42 1626.15 C 1737.6 1620.72 1741.71 1615.2 1746 1609.85 C 1722.73 1608.72 1699.22 1609.25 1675.91 1609.21 L 1553.34 1609.05 L 1215.79 1608 L 301.628 1608.18 z M 328.225 1639.1 L 336.404 1649.06 L 513.546 1649.24 C 544.988 1649.27 576.855 1648.18 608.235 1649.64 C 608.239 1646.47 608.758 1642.4 607.029 1639.66 C 596.258 1638.45 585.009 1639.12 574.166 1639.12 L 516.667 1639.11 L 328.225 1639.1 z M 1626.25 1643.5 C 1601.67 1643.61 1438 1642 1431.71 1644.59 C 1431.13 1646.84 1431.22 1648.2 1431.65 1650.47 C 1437.51 1654.3 1506.61 1651.72 1519.75 1651.71 C 1583.59 1651.25 1647.42 1651.11 1711.26 1651.29 L 1719.1 1643.5 C 1688.24 1642.4 1657.14 1643.29 1626.25 1643.5 z M 368.221 1683.7 L 376.608 1692.48 C 430.281 1692.09 483.956 1691.98 537.63 1692.16 C 561.356 1692.17 585.245 1692.75 608.954 1692.08 C 608.963 1689.07 609.326 1686.89 607.822 1684.19 C 598.007 1682.91 587.558 1683.61 577.657 1683.61 L 522.582 1683.62 C 471.213 1683.66 419.562 1682.54 368.221 1683.7 z M 1431.45 1684.25 C 1431.36 1687.65 1430.66 1690.25 1432.51 1693.16 C 1442.79 1695.92 1461.01 1694.02 1472.05 1694.03 L 1556.62 1694.02 L 1628.53 1693.98 C 1642.43 1694 1656.5 1694.74 1670.36 1693.67 C 1672.57 1692.3 1673.67 1690.8 1675.23 1688.77 L 1678.16 1685.47 L 1677.38 1684.17 C 1644.85 1682.61 1611.47 1684.1 1578.85 1684.12 C 1529.77 1684.15 1480.51 1683.32 1431.45 1684.25 z M 1431.88 1726.86 C 1431.84 1730.07 1431.33 1733.59 1432.99 1736.45 C 1452.75 1738.94 1474.96 1737.01 1494.94 1736.99 L 1623.35 1736.87 C 1626 1734.97 1628.71 1733.12 1631.27 1731.1 L 1634.24 1727.98 L 1633.7 1726.94 C 1604.61 1725.5 1574.91 1726.66 1545.75 1726.67 C 1507.86 1726.69 1469.74 1725.88 1431.88 1726.86 z M 415.301 1728.92 C 418.659 1731.83 422.153 1734.63 425.106 1737.96 L 609.107 1737.94 C 609.074 1734.93 609.409 1732.05 608.169 1729.27 C 586.479 1727.14 563.376 1728.85 541.481 1728.87 L 415.301 1728.92 z M 1431.86 1770.08 C 1431.85 1773 1431.33 1777.06 1432.8 1779.59 C 1448.88 1781.1 1465.9 1780.07 1482.1 1780.06 C 1511 1780.04 1539.92 1780.24 1568.81 1779.9 L 1576.41 1774.78 L 1579.62 1772.21 C 1578.64 1770.74 1578.08 1770.75 1576.38 1770.43 C 1564.73 1768.25 1549.69 1770.44 1537.61 1770.43 L 1431.86 1770.08 z M 470.113 1772.26 C 474.818 1775.11 478.864 1778.04 483.031 1781.63 C 525.115 1781.45 567.304 1780.78 609.383 1781.31 C 609.443 1778.26 609.967 1775.21 608.075 1772.63 C 592.417 1770.66 575.062 1772.16 559.252 1772.19 L 470.113 1772.26 z M 1446.76 1812.48 C 1442.62 1812.35 1437.12 1811.44 1433.44 1813.52 C 1431.83 1815.91 1432.1 1817.45 1432.19 1820.22 C 1433.54 1822.03 1433.47 1821.68 1435.64 1821.98 C 1443.91 1823.15 1452.78 1822.47 1461.13 1822.42 L 1505.94 1822.15 C 1510.97 1819.26 1515.59 1816.15 1520.23 1812.68 C 1495.87 1811.77 1471.13 1811.88 1446.76 1812.48 z M 536.388 1816.34 C 542.061 1819.6 547.641 1823.3 554.106 1824.67 C 554.648 1824.79 555.186 1824.92 555.728 1825.03 C 571.999 1828.39 592.043 1825.77 608.776 1825.83 C 608.812 1822.74 609.35 1819.35 607.557 1816.67 C 596.371 1814.9 549.471 1815.22 536.388 1816.34 z M 598.98 1850.43 C 603.767 1857.47 633.634 1868.16 643.239 1871.76 L 658.417 1868.19 L 659.72 1867.11 C 652.137 1861.39 620.38 1858.79 606.188 1851.06 C 604.261 1850.01 603.384 1850.12 601.267 1850.28 C 600.811 1850.32 600.353 1850.32 599.896 1850.35 C 599.59 1850.37 599.285 1850.4 598.98 1850.43 z M 1443.54 1853.27 C 1432.79 1854.32 1421.97 1859.04 1411.68 1862.22 C 1399.47 1865.98 1386.93 1869.28 1374.47 1872.09 C 1356.77 1876.09 1313.93 1879.69 1301.07 1885.57 C 1288.8 1891.17 1277.17 1900.44 1265.92 1907.94 C 1251.89 1917.29 1237.57 1926.18 1223.54 1935.51 C 1232.09 1933.37 1240.65 1931.32 1249.25 1929.36 C 1280.82 1921.07 1312.02 1912.68 1342.65 1901.25 C 1361.69 1894.14 1379.88 1884.82 1399.09 1878.2 C 1389.48 1877.83 1380 1877.35 1370.44 1876.23 C 1389.06 1872.56 1437.29 1866.74 1449.23 1853.4 C 1447.26 1853.19 1445.52 1853.08 1443.54 1853.27 z M 659.018 1879.07 C 709.967 1900.71 761.758 1923.31 816.354 1934.11 C 799.189 1923.23 780.642 1914.09 762.902 1904.17 C 751.506 1897.8 730.401 1882.58 718.514 1879.88 C 705.097 1876.83 673.14 1878.03 659.018 1879.07 z"/>
<path transform="translate(0,0)" fill="rgb(0,0,0)" d="M 900.596 374.63 L 900.108 374.215 L 900.596 374.63 z"/>
<path transform="translate(0,0)" fill="rgb(0,0,0)" d="M 560.521 654.759 C 557.31 652.905 554.079 651.048 550.976 649.018 C 542.15 643.243 533.54 634.932 531.736 624.106 C 530.132 614.484 533.849 604.515 539.488 596.831 C 550.759 581.472 568.124 575.176 586.199 572.31 C 594.956 571.538 603.302 570.933 611.855 573.646 C 619.988 576.227 627.631 581.486 631.436 589.323 C 633.91 594.418 634.376 600.193 632.173 605.468 C 628.461 614.358 620.666 617.958 612.39 621.498 C 613.032 619.875 613.644 618.238 614.299 616.62 C 615.95 612.539 617.023 608.977 617.227 604.519 C 617.465 599.294 615.945 594.489 612.325 590.652 C 608.094 586.168 602.774 583.36 596.518 583.455 C 588.016 583.584 579.57 588.385 573.938 594.541 C 566.633 602.409 562.906 612.947 563.64 623.659 C 564.229 631.21 567.235 638.558 573.214 643.411 C 582.25 650.747 593.812 650.042 604.683 649.231 C 603.094 653.865 601.714 658.585 600.255 663.262 C 587.881 662.306 575.631 660.948 563.762 665.662 C 552.738 670.04 544.302 679.379 540.001 690.314 C 535.857 700.852 535.127 713.964 539.861 724.446 C 543.112 731.642 549.003 736.904 556.441 739.526 C 573.444 745.523 593.068 739.428 608.359 731.527 C 627.099 721.844 651.216 703.81 660.589 684.337 C 664.979 675.217 667.372 663.684 670.49 653.939 L 700.842 647.154 L 688.757 692.991 C 698.897 678.163 709.13 663.405 724.216 653.116 C 730.959 648.518 739.043 645.199 747.313 647.131 C 751.216 648.023 754.595 650.452 756.684 653.868 C 766.947 670.503 749.542 703.583 745.527 721.353 C 744.469 726.036 743.363 731.062 746.065 735.272 L 748.363 735.42 C 756.284 732.111 762.778 724.86 768.336 718.487 C 776.169 709.505 785.082 699.061 789.991 688.088 C 792.851 681.695 793.922 673.762 795.553 666.963 C 799.892 648.879 805.978 629.399 816.798 614.078 C 829.121 596.628 846.55 585.53 867.748 582.429 C 872.364 581.754 877.39 581.727 881.151 584.883 C 883.819 587.121 885.215 590.161 885.332 593.624 C 886.141 617.681 842.84 652.8 826.68 668.88 C 825.455 673.237 824.745 677.784 823.881 682.226 C 828.502 676.561 833.199 671.009 838.477 665.936 C 847.945 656.835 861.912 647.169 875.551 647.928 C 879.405 648.143 883.074 649.437 885.621 652.45 C 898.663 667.884 875.211 710.226 873.388 728.731 C 873.063 732.03 873.215 734.433 875.276 737.055 C 885.602 738.148 903.321 715.364 908.27 707.404 C 913.538 698.932 917.035 689.454 922.88 681.311 C 929.106 672.546 936.69 664.829 945.346 658.45 C 955.267 651.092 968.536 643.513 981.301 645.802 C 990.487 647.45 996.489 653.393 1001.52 660.811 C 1003.57 658.669 1005.67 656.635 1008.04 654.842 C 1015.99 648.827 1025.88 645.831 1035.81 647.122 C 1036.63 649.747 1028.59 659.564 1027.17 662.86 C 1023.68 670.963 1011.52 723.919 1013.89 729.626 C 1014.25 729.765 1014.6 729.947 1014.98 730.044 C 1018.89 731.057 1024.05 728.558 1027.28 726.537 C 1055.69 708.781 1059.31 684.565 1065.63 654.67 C 1076.13 650.267 1086.35 647.741 1097.54 645.645 L 1085.32 694.201 C 1097.03 677.19 1109.51 657.199 1129.27 648.626 C 1134.47 646.37 1140.23 645.351 1145.56 647.807 C 1174.74 661.255 1131.71 717.293 1139.36 734.955 C 1139.97 736.372 1140.95 736.306 1142.28 736.806 C 1153.05 734.345 1171.75 714.512 1176.09 704.364 C 1181.5 691.705 1179.27 685.321 1188.77 671.879 C 1197.6 659.392 1212.31 647.493 1227.77 645.216 C 1235.95 644.013 1245.53 645.39 1252.13 650.66 C 1255.89 653.655 1258.38 657.891 1258.86 662.698 C 1259.31 667.367 1257.79 671.884 1254.69 675.4 C 1248.97 681.888 1241.05 682.674 1232.99 683.377 C 1234.84 675.938 1238.49 664.093 1234.17 657.18 C 1232.92 655.171 1230.66 653.452 1228.29 653.055 C 1225.1 652.52 1221.93 654.296 1219.57 656.264 C 1208.41 665.557 1203.59 684.792 1202.76 698.817 C 1202.19 708.364 1203.14 722.12 1209.94 729.349 C 1213.66 733.3 1218.69 734.714 1223.99 734.74 C 1246.05 734.848 1259.32 716.965 1273.65 703.366 C 1276.25 692.509 1280.5 682.668 1286.78 673.424 C 1296.43 659.227 1310.05 648.592 1327.25 645.572 C 1335.07 644.2 1343.11 644.793 1349.65 649.65 C 1355.89 654.275 1360.12 662.646 1361.04 670.271 C 1361.57 674.673 1360.78 679.152 1357.93 682.652 C 1349.63 692.813 1314.83 699.94 1301.37 701.55 C 1301.77 711.025 1302.27 720.712 1309.26 727.981 C 1313.59 732.476 1319.51 734.483 1325.68 734.309 C 1342.12 733.846 1355.9 720.637 1366.32 709.27 C 1372.44 703.314 1373.73 691.71 1377.41 684.032 C 1381.05 676.461 1387.27 669.124 1393.41 663.444 C 1403.55 654.051 1418.21 645.562 1432.42 646.453 C 1442.71 647.098 1449.26 652.518 1455.68 659.967 C 1461.56 637.196 1465.37 613.719 1469.6 590.591 C 1480.95 585.893 1492.99 582.839 1504.99 580.349 C 1503.73 590.987 1499.59 601.858 1496.82 612.238 C 1492.12 629.827 1468.83 714.533 1471.24 725.911 C 1471.82 728.637 1472.93 729.495 1475.1 731.037 C 1486.4 731.617 1496.4 714.832 1505.05 708.822 L 1506.36 709.291 C 1506.39 709.666 1506.46 710.039 1506.45 710.414 C 1506.28 717.508 1497.23 726.333 1492.65 731.231 C 1483.31 741.221 1471.5 753.928 1456.73 753.945 C 1453.16 753.949 1449.64 752.853 1447.36 749.926 C 1439.38 739.672 1447.73 712.307 1449.84 700.625 C 1444.92 709.674 1440.16 719.241 1433.73 727.321 C 1424.62 738.766 1409.33 752.369 1394.15 753.581 C 1388.16 754.059 1382.41 752.432 1377.95 748.331 C 1368.89 739.996 1368.99 727.263 1368.77 715.933 C 1355.93 733.157 1337.51 749.327 1315.76 753.537 C 1306.53 755.323 1296.96 754.457 1289.22 748.736 C 1277.88 740.352 1275.32 725.73 1273.42 712.716 C 1260.34 731.552 1239.33 750.063 1216 753.907 C 1206.67 755.443 1196.43 754.498 1188.72 748.582 C 1178.39 740.656 1176.89 727.754 1175.57 715.78 C 1165.31 728.61 1153.61 743.907 1138.12 750.605 C 1132.09 753.215 1123.83 754.973 1117.54 752.237 C 1092.53 741.372 1131.06 681.761 1125.15 668.17 C 1122.12 667.161 1119.64 668.355 1116.82 669.811 C 1094.47 681.347 1080.01 723.863 1073.4 746.7 C 1064.19 749.791 1055.05 752.577 1045.65 755.036 C 1048.52 738.84 1052.57 722.904 1055.03 706.622 C 1047.45 718.134 1039.59 728.479 1029.26 737.676 C 1021.16 744.879 1007.98 755.483 996.553 754.372 C 993.46 754.072 990.832 752.415 989.014 749.939 C 980.761 738.702 986.756 716.949 988.691 704.244 C 983.684 713.921 978.666 723.794 972.003 732.459 C 964.46 742.268 953.8 752.388 940.963 753.748 C 934.62 754.42 928.588 752.578 923.669 748.521 C 914.01 740.555 911.533 728.392 910.534 716.598 C 905.468 722.977 900.356 729.449 894.645 735.268 C 884.828 745.27 870.889 754.604 856.366 754.276 C 852.442 754.188 849.24 753.138 846.608 750.085 C 832.996 734.293 857.012 688.762 858.265 669.525 C 856.95 667.231 857.01 667.227 854.52 666.364 C 850.387 666.856 846.959 668.744 843.468 670.916 C 821.673 684.479 814.267 722.973 809.172 746.14 C 798.261 748.354 787.553 751.079 776.794 753.922 L 788.907 701.503 C 778.99 716.957 767.429 733.752 752.696 744.93 C 744.997 750.771 734.618 755.381 724.728 753.766 C 720.843 753.132 717.452 751.277 715.236 747.96 C 704.178 731.406 724.541 693.45 727.146 675.748 C 727.603 672.642 727.661 670.411 725.75 667.882 C 722.884 667.65 721.136 668.685 718.88 670.316 C 695.746 687.043 683.555 720.821 678.596 747.684 C 667.735 749.233 657.056 750.888 646.357 753.364 C 649.091 735.136 654.516 716.924 658.168 698.781 C 636.593 725.145 606.874 747.116 572.72 753.204 C 553.395 756.649 529.05 755.891 512.618 743.816 C 503.963 737.455 497.644 728.11 496.129 717.371 C 494.397 705.087 498.897 692.838 506.298 683.151 C 519.831 665.435 539.115 657.74 560.521 654.759 z M 867.234 590.009 C 848.026 604.023 835.318 629.598 829.855 652.261 L 837.997 645.741 C 850.96 635.72 874.237 615.056 877.254 597.905 C 877.75 595.08 877.295 593.764 875.987 591.292 C 872.809 589.241 870.78 589.603 867.234 590.009 z M 1327.67 652.897 C 1316.14 658.567 1310.8 667.15 1306.79 679.02 C 1305.21 683.679 1304.1 688.503 1302.97 693.287 L 1314.28 690.078 C 1322.4 687.359 1333.05 685.196 1337.44 676.986 C 1339.95 672.305 1340.24 666.682 1338.51 661.698 C 1337.26 658.087 1335.19 655.263 1331.54 653.81 C 1330.37 653.342 1328.89 653.135 1327.67 652.897 z M 971.345 654.145 C 958.227 660.332 952.169 672.239 947.373 685.319 C 943.406 696.136 938.676 712.779 943.982 723.64 C 945.238 726.212 947.09 728.288 949.916 729.172 C 953.894 730.416 957.983 727.819 961.245 725.811 C 976.422 712.923 988.726 692.27 994.768 673.398 C 992.297 666.309 989.696 659.102 982.399 655.656 C 978.767 653.94 975.268 653.87 971.345 654.145 z M 1429.34 654.954 C 1417.12 659.925 1410 669.7 1404.95 681.518 C 1400.43 692.124 1395.48 710.033 1400.13 721.042 C 1401.26 723.714 1403.08 725.983 1405.85 727.084 C 1409.9 728.695 1414.49 727.104 1418.28 725.456 C 1433.65 713.394 1444.72 692.235 1451.5 674.098 C 1448.65 666.856 1445.56 659.28 1437.73 656.226 C 1435.17 655.229 1432.07 654.94 1429.34 654.954 z"/>
<path transform="translate(0,0)" fill="rgb(0,0,0)" d="M 241.218 874.97 C 234.606 861.013 230.309 845.269 225.315 830.617 C 219.421 813.321 212.774 795.994 207.801 778.427 C 299.711 777.049 391.857 778.981 483.801 778.733 L 1335.02 778.607 L 1644.89 778.678 L 1738.86 778.754 C 1755.84 778.768 1773.7 779.862 1790.57 778.155 C 1784.19 801.839 1776.23 825.329 1769.33 848.893 C 1766.88 857.257 1762.21 868.616 1762.25 877.318 C 1762.35 897.851 1791.65 972.401 1789.33 982.3 L 1786.75 982.629 C 1721.87 980.533 1656.47 982.112 1591.52 982.127 L 1241.48 982.102 L 205.462 981.978 C 217.668 946.405 229.587 910.735 241.218 874.97 z M 870.113 830.567 C 853.957 863.545 838.015 896.628 822.287 929.813 L 841.051 930.037 L 848.295 912.049 L 870.5 911.986 L 890.148 912.035 C 893.413 918.187 896.415 924.343 899.198 930.728 L 916.443 930.413 C 906.312 909.269 897.059 887.727 887.517 866.315 C 882.454 854.956 877.239 840.624 870.113 830.567 z M 1403.58 830.529 C 1387.73 862.986 1375.13 898.454 1358.04 929.965 L 1376.63 930.123 C 1379.1 923.962 1381.47 917.723 1384.14 911.648 L 1403.59 911.748 L 1423.14 911.797 C 1426.17 917.766 1429.56 923.765 1432.03 929.987 L 1448.64 929.922 C 1442.42 916.476 1407.03 833.213 1403.58 830.529 z M 1068.92 831.585 C 1059.95 864.095 1053.23 897.024 1046.01 929.945 L 1062.45 930.013 C 1066.51 911.888 1070.4 893.724 1074.11 875.523 C 1083.13 894.657 1091.24 914.83 1101.08 933.486 C 1110.87 915.303 1117.82 895.84 1127.13 877.466 L 1130.12 889.214 C 1132.95 902.82 1136.04 916.437 1138.39 930.133 L 1154.65 929.981 L 1143.37 873.5 C 1140.61 859.297 1138.43 844.111 1133.69 830.41 C 1122.04 852.721 1111.93 875.814 1100.77 898.367 C 1092.92 880.188 1080.88 846.631 1068.92 831.585 z M 1206.2 831.512 C 1197.4 848.495 1189.8 866.091 1181.67 883.398 C 1174.36 898.936 1166.52 914.032 1160.17 930.012 L 1177.93 930.113 L 1186.13 912.101 L 1207.5 911.997 L 1227.23 912.013 L 1234.05 931.037 L 1251.51 930.705 C 1247.15 919.888 1210.02 835.191 1206.2 831.512 z M 341.743 833.069 C 332.849 851.582 324.804 870.477 316.422 889.222 C 310.446 902.588 303.506 916.12 299.1 930.103 L 316.204 930.082 L 325.116 911.634 L 348.25 911.539 L 365.965 911.379 L 373.692 930.038 L 391.92 929.933 C 379.595 897.39 365.621 865.34 352.556 833.077 L 341.743 833.069 z M 597.452 832.848 C 569.98 835.286 549.52 859.275 551.447 886.788 C 553.374 914.301 576.978 935.204 604.522 933.79 C 622.801 932.851 639.149 922.114 647.272 905.713 C 655.396 889.311 654.03 869.801 643.699 854.692 C 633.368 839.582 615.684 831.229 597.452 832.848 z M 765.296 832.916 C 747.186 835.249 731.734 847.148 724.85 864.059 C 717.967 880.971 720.717 900.279 732.049 914.596 C 743.381 928.913 761.541 936.023 779.581 933.207 C 806.963 928.933 825.827 903.449 821.919 876.013 C 818.011 848.578 792.781 829.375 765.296 832.916 z M 1264.01 832.186 C 1263.98 865.047 1263.69 897.932 1264.02 930.79 L 1279.86 930.76 C 1279.89 909.776 1279.59 888.719 1280 867.743 C 1292.67 880.267 1333.14 925.856 1345.81 932.515 C 1346.11 899.691 1346.18 866.865 1346.04 834.04 L 1330.26 833.993 L 1330.11 896.76 C 1321.16 887.089 1273.14 835.72 1264.01 832.186 z M 1491.72 833.252 C 1477.52 837.276 1464.24 844.374 1456.86 857.821 C 1450.53 869.362 1449.88 884.743 1453.68 897.169 C 1457.52 909.745 1466.27 919.571 1477.83 925.681 C 1490.5 932.382 1506.75 934.085 1520.39 929.285 C 1530.78 925.626 1538.09 917.983 1542.42 907.956 C 1546.25 899.107 1547.25 890.044 1547.62 880.509 C 1540.14 880.254 1509.02 878.117 1504.56 881.796 C 1504.25 885.303 1504.1 888.728 1504.14 892.25 L 1504.57 895.894 C 1509.91 899.973 1522.33 897.541 1528.94 897.756 C 1525.74 905.43 1522.48 911.41 1514.19 914.534 C 1506.11 917.583 1495.32 917.375 1487.46 913.724 C 1478.71 909.655 1472.56 901.593 1469.68 892.508 C 1466.71 883.298 1467.65 873.272 1472.27 864.773 C 1476.16 857.846 1482.69 852.793 1490.37 850.772 C 1499.55 848.284 1510.02 848.651 1518.34 853.559 C 1522.03 855.731 1524.86 858.681 1527.78 861.744 C 1532.34 858.49 1537.02 855.359 1541.18 851.588 C 1530.68 840.335 1519.46 833.17 1503.57 832.611 C 1499.59 832.47 1495.68 832.828 1491.72 833.252 z M 400.07 834.84 C 399.965 852.719 397.554 893.802 401.36 909.358 C 402.609 914.464 405.001 919.303 408.717 923.067 C 415.861 930.303 426.164 932.283 435.979 932.037 C 444.887 931.813 453.86 929.941 460.069 923.043 C 472.648 909.07 468.467 868.254 468.435 849.5 L 468.416 835.047 L 451.997 835.012 C 452.05 853.232 454.01 885.703 451.487 902.369 C 450.911 906.176 450.048 909.473 447.261 912.25 C 443.556 915.941 437.083 916.931 432.1 916.652 C 427.489 916.394 423.422 914.214 420.627 910.547 C 412.199 899.491 415.982 850.232 415.954 834.712 C 410.674 834.745 405.346 834.65 400.07 834.84 z M 481.149 834.882 L 481.179 849.791 L 505.144 849.883 L 505.062 929.969 L 520.837 929.913 L 520.897 905.5 L 520.969 849.997 L 544.985 849.901 L 544.984 834.637 C 523.742 834.703 502.376 834.308 481.149 834.882 z M 669.077 834.938 L 668.936 930.01 C 685.084 930.023 701.408 930.534 717.533 929.857 L 717.841 914.977 C 706.675 915.17 695.506 915.188 684.339 915.031 L 684.788 834.956 L 669.077 834.938 z M 927.978 835.343 C 927.467 866.943 928.559 898.667 927.346 930.239 C 949.267 930.433 972.473 934.293 990.04 918.474 C 999.775 906.193 1004.18 892.162 1002.54 876.483 C 1001.31 864.777 996.52 853.38 987.247 845.817 C 971.358 832.86 947.246 835.308 927.978 835.343 z M 1565.17 834.947 L 1564.94 930.063 C 1583.9 930.088 1602.91 929.816 1621.86 930.237 L 1621.9 915.713 C 1608.11 915.864 1594.31 915.941 1580.52 915.943 L 1580.6 888.75 C 1580.75 887.331 1580.42 885.296 1581.71 884.44 C 1586.96 880.966 1612.46 883.269 1620.04 883.145 L 1620.03 869.136 C 1607.02 869.261 1593.96 869.176 1580.97 869.748 L 1581.04 849.569 L 1621.55 849.066 C 1621.56 844.39 1621.66 839.695 1621.5 835.022 C 1602.72 834.87 1583.94 834.845 1565.17 834.947 z M 1639.63 835.698 L 1639.15 930.474 L 1654.89 930.377 C 1654.98 915.214 1654.62 899.901 1655.35 884.761 C 1663.33 900.331 1673.13 914.141 1682.18 928.996 C 1684.25 931.156 1686.04 930.897 1688.96 930.988 C 1692.84 931.109 1696.78 930.922 1700.67 930.838 C 1691.64 915.786 1681.36 901.536 1672.44 886.428 C 1681.12 884.518 1687.35 882.603 1692.29 874.529 C 1695.91 868.595 1696.72 860.951 1695.09 854.251 C 1693.6 848.124 1689.75 843.045 1684.33 839.853 C 1672.49 832.88 1653.13 835.545 1639.63 835.698 z"/>
<path transform="translate(0,0)" fill="rgb(0,0,0)" d="M 608.45 916.741 C 589.943 920.3 572.039 908.237 568.388 889.748 C 564.737 871.259 576.712 853.295 595.182 849.552 C 613.783 845.783 631.901 857.86 635.578 876.48 C 639.255 895.099 627.087 913.157 608.45 916.741 z"/>
<path transform="translate(0,0)" fill="rgb(0,0,0)" d="M 777.492 916.924 C 758.963 920.166 741.274 907.899 737.816 889.409 C 734.358 870.919 746.418 853.088 764.866 849.415 C 776.993 847.001 789.481 851.291 797.563 860.649 C 805.645 870.007 808.072 882.987 803.919 894.633 C 799.765 906.279 789.671 914.793 777.492 916.924 z"/>
<path transform="translate(0,0)" fill="rgb(0,0,0)" d="M 943.397 915.228 C 943.222 893.538 943.207 871.847 943.352 850.157 C 955.467 850.093 968.923 850.288 978.355 859.113 C 984.543 864.903 986.773 872.849 987.138 881.1 C 987.615 891.861 985.737 899.306 978.461 907.413 C 967.555 915.767 956.373 915.144 943.397 915.228 z"/>
<path transform="translate(0,0)" fill="rgb(0,0,0)" d="M 1655.26 874.048 C 1655.23 866.014 1655.36 857.974 1655.43 849.94 C 1661.41 849.837 1668.24 849.595 1673.7 852.327 C 1676.41 853.682 1678.76 855.748 1679.32 858.895 C 1680.09 863.259 1677.95 867.47 1675.86 871.112 C 1669.09 874.31 1662.57 874.062 1655.26 874.048 z"/>
<path transform="translate(0,0)" fill="rgb(0,0,0)" d="M 330.912 895.804 C 335.56 884.628 340.789 873.652 345.804 862.634 C 351.294 867.933 356.835 887.844 359.786 895.666 L 343.75 895.829 L 330.912 895.804 z"/>
<path transform="translate(0,0)" fill="rgb(0,0,0)" d="M 1192.46 897.687 C 1197.42 887.152 1201.75 876.364 1206.15 865.591 C 1211.49 875.163 1215.14 887.236 1219.44 897.442 L 1205.05 897.623 L 1192.46 897.687 z"/>
<path transform="translate(0,0)" fill="rgb(0,0,0)" d="M 855.84 896.556 C 860.323 886.602 864.859 876.671 869.449 866.765 C 876.054 873.872 879.586 887.47 882.99 896.598 L 870.895 896.457 L 855.84 896.556 z"/>
<path transform="translate(0,0)" fill="rgb(0,0,0)" d="M 1390.43 897.784 L 1403.71 867.581 C 1407.86 870.911 1415.02 891.701 1417.62 897.624 L 1405.61 897.819 L 1390.43 897.784 z"/>
<path transform="translate(0,0)" fill="rgb(0,0,0)" d="M 177.194 1222.81 C 188.85 1209.15 201.539 1200.29 218.743 1195.24 C 223.538 1194.83 228.235 1194.53 233.014 1195.32 C 257.436 1199.39 271.574 1221.59 285.262 1239.87 C 273.782 1250.27 260.434 1257.16 245.391 1260.71 C 240.649 1261.42 236.276 1261.81 231.512 1261.01 C 209.714 1257.36 189.752 1240.18 177.194 1222.81 z"/>
<path transform="translate(0,0)" fill="rgb(0,0,0)" d="M 1763.86 1241.27 C 1766.14 1234.65 1769.8 1228.24 1773.78 1222.49 C 1784.59 1206.89 1798.81 1198.57 1817.31 1195.27 C 1820.22 1195.16 1823.13 1195.27 1826.01 1195.62 C 1844.44 1197.9 1857.98 1210.37 1868.94 1224.33 C 1853.09 1241.72 1839.54 1258.12 1814.96 1261.71 C 1796.79 1261.91 1777.75 1252.36 1763.86 1241.27 z"/>
<path transform="translate(0,0)" fill="rgb(0,0,0)" d="M 932.661 1460.88 C 930.861 1460.7 928.377 1460.47 927.017 1459.22 C 923.924 1456.37 923.693 1451.15 923.446 1447.18 C 922.755 1436.11 921.771 1412.58 925.03 1402.45 C 925.773 1400.14 927.451 1398.27 929.025 1396.48 C 930.53 1396.91 932.009 1397.52 933.483 1398.05 C 937.37 1401.9 937.74 1407.25 937.98 1412.49 C 938.521 1424.26 940.715 1451.89 932.661 1460.88 z"/>
<path transform="translate(0,0)" fill="rgb(0,0,0)" d="M 389.402 1427.18 C 385.731 1428.44 381.993 1429.73 378.38 1427.96 C 376.976 1418.96 377.19 1407.37 378.441 1398.34 C 380.829 1398.47 383.685 1398.44 385.904 1399.4 C 388.406 1400.48 390.283 1402.94 391.294 1405.41 C 394.048 1412.12 391.84 1420.73 389.402 1427.18 z"/>
<path transform="translate(0,0)" fill="rgb(0,0,0)" d="M 815.472 1422.2 C 814.143 1422.79 812.313 1423.82 810.888 1424 C 809.687 1424.16 808.261 1424.11 807.435 1423.12 C 803.496 1418.37 805.961 1403.45 806.228 1397.57 C 808.127 1398.09 810.172 1398.53 811.947 1399.4 C 814.397 1400.6 816.278 1403.83 817.174 1406.32 C 819.06 1411.59 817.653 1417.3 815.472 1422.2 z"/>
<path transform="translate(0,0)" fill="rgb(0,0,0)" d="M 1065.25 1423.73 C 1064.66 1423.87 1064.07 1424.03 1063.47 1424.14 C 1060.64 1424.7 1059.7 1424.9 1057.38 1423.15 C 1054.87 1415.24 1056.03 1406.26 1057.25 1398.13 C 1059.36 1398.39 1061.43 1398.83 1063.51 1399.23 C 1066.04 1401.15 1067.18 1402.65 1068.12 1405.72 C 1069.77 1411.15 1067.95 1418.91 1065.25 1423.73 z"/>
<path transform="translate(0,0)" fill="rgb(0,0,0)" d="M 340.242 1462.83 L 335.56 1461.74 C 332.733 1459.27 332.001 1457.04 331.428 1453.46 C 329.412 1440.87 328.781 1408.77 336.02 1398.37 C 337.839 1398.44 339.212 1398.77 340.962 1399.23 C 344.64 1402.82 344.995 1408.09 345.222 1412.99 C 345.641 1422.08 346.915 1450.24 343.791 1458.04 C 343.07 1459.84 341.542 1461.42 340.242 1462.83 z"/>
<path transform="translate(0,0)" fill="rgb(0,0,0)" d="M 723.184 1461.87 C 722.173 1461.69 719.949 1461.48 718.968 1460.94 C 716.207 1459.43 715.392 1456.33 714.937 1453.43 C 713.126 1441.9 712.034 1407.72 718.988 1398.46 C 720.84 1398.58 722.526 1398.72 723.946 1400.08 C 730.472 1406.34 728.55 1442.56 727.902 1451.76 C 727.548 1456.8 727.068 1458.49 723.184 1461.87 z"/>
<path transform="translate(0,0)" fill="rgb(0,0,0)" d="M 978.524 1421.4 C 976.473 1422.13 974.898 1422.81 972.687 1422.78 C 970.95 1422.76 970.774 1422 969.622 1420.86 C 967.62 1413.95 968.922 1405.8 969.106 1398.61 C 970.955 1398.75 973.295 1398.76 975.048 1399.33 C 977.388 1400.1 979.298 1402.52 980.15 1404.79 C 982.131 1410.08 980.395 1416.34 978.524 1421.4 z"/>
<path transform="translate(0,0)" fill="rgb(0,0,0)" d="M 1021.74 1457.41 C 1019.77 1459.01 1017.78 1460.65 1015.19 1460.96 C 1013.47 1461.16 1013.94 1461 1012.37 1459.76 C 1009.82 1442.99 1011.83 1416.4 1011.92 1398.67 C 1014.02 1398.7 1016.75 1398.52 1018.65 1399.5 C 1020.57 1400.48 1021.87 1402.65 1022.65 1404.58 C 1027.13 1415.69 1026.36 1446.52 1021.74 1457.41 z"/>
<path transform="translate(0,0)" fill="rgb(0,0,0)" d="M 1108.35 1422.22 C 1105.71 1423.36 1103.99 1424.23 1101.02 1423.73 C 1096.45 1418.57 1098.67 1405.43 1098.81 1398.74 C 1100.53 1398.9 1102.6 1398.97 1104.23 1399.5 C 1106.48 1400.25 1107.9 1401.7 1108.98 1403.78 C 1111.76 1409.14 1109.89 1416.73 1108.35 1422.22 z"/>
<path transform="translate(0,0)" fill="rgb(0,0,0)" d="M 1291.13 1459.42 C 1288.96 1460.15 1286.99 1460.9 1284.66 1460.83 C 1282.98 1460.77 1283.52 1460.82 1282.29 1459.45 C 1280.37 1441.74 1280.93 1416.87 1282.17 1398.91 C 1284.07 1399.24 1287.18 1399.5 1288.89 1400.41 C 1290.45 1401.25 1291.41 1402.1 1292.08 1403.71 C 1294.92 1410.5 1294.23 1452.84 1291.13 1459.42 z"/>
<path transform="translate(0,0)" fill="rgb(0,0,0)" d="M 1445.11 1423.65 C 1443.9 1423.95 1442.11 1424.55 1440.81 1424.59 C 1439.39 1424.64 1438.27 1424.64 1437.36 1423.48 C 1433.69 1418.77 1435.93 1404.76 1436.06 1398.84 L 1442.65 1399.01 C 1444.95 1400.44 1446.06 1401.52 1447.03 1404.13 C 1449.01 1409.49 1447.42 1418.57 1445.11 1423.65 z"/>
<path transform="translate(0,0)" fill="rgb(0,0,0)" d="M 1330.4 1447 C 1328.74 1446.62 1327.21 1446.16 1325.6 1445.62 C 1322.59 1439.8 1327.41 1423.33 1328.51 1416.75 C 1329.44 1418.49 1329.54 1419.26 1329.8 1421.19 C 1330.39 1425.4 1333.32 1441.48 1332.21 1444.62 C 1331.87 1445.56 1331 1446.21 1330.4 1447 z"/>
<path transform="translate(0,0)" fill="rgb(0,0,0)" d="M 1401.4 1446.84 C 1399.73 1446.52 1398.18 1446.13 1396.55 1445.68 C 1393.37 1440.19 1397.62 1425.48 1398.43 1418.84 L 1399.49 1420.11 C 1400.71 1426.8 1404.91 1441.32 1401.4 1446.84 z"/>
<path transform="translate(0,0)" fill="rgb(0,0,0)" d="M 1486.51 1445.9 C 1484.64 1445.62 1482.97 1445.22 1481.17 1444.65 C 1478.03 1438.87 1482.39 1425.18 1483.48 1418.69 L 1484.6 1419.85 C 1486.05 1426.26 1489.73 1440.35 1486.51 1445.9 z"/>
<path transform="translate(0,0)" fill="rgb(0,0,0)" d="M 1446.07 1460.09 C 1443.43 1461.08 1441.46 1462 1438.58 1461.45 C 1433.55 1455.86 1436.21 1442.91 1436.55 1435.76 C 1438.51 1435.76 1440.8 1435.64 1442.67 1436.28 C 1445.28 1437.16 1447.34 1439.69 1448.28 1442.2 C 1450.43 1447.95 1448.5 1454.77 1446.07 1460.09 z"/>
<path transform="translate(0,0)" fill="rgb(0,0,0)" d="M 775.656 1528.94 C 775.201 1529.22 774.75 1529.51 774.291 1529.79 C 771.495 1531.49 768.999 1532.19 765.823 1531.37 C 761.263 1526.12 763.695 1511.18 763.813 1504.42 C 765.829 1504.5 768.019 1504.51 769.988 1504.99 C 773.21 1505.79 775.385 1508.2 776.748 1511.11 C 779.296 1516.55 777.757 1523.62 775.656 1528.94 z"/>
<path transform="translate(0,0)" fill="rgb(0,0,0)" d="M 860.096 1528.7 C 858.487 1529.14 856.523 1529.86 854.87 1529.94 C 853.4 1530.02 852.185 1529.94 851.195 1528.8 C 847.143 1524.14 849.562 1510.32 849.765 1504.36 C 850.583 1504.4 851.401 1504.46 852.218 1504.54 C 855.537 1504.87 857.429 1505.57 859.502 1508.34 C 863.377 1513.53 861.392 1522.94 860.096 1528.7 z"/>
<path transform="translate(0,0)" fill="rgb(0,0,0)" d="M 942.11 1570.45 L 937.42 1569.51 C 934.063 1566.65 933.692 1565.18 933.25 1560.84 C 932.112 1549.65 931.575 1520.48 934.28 1510.15 C 934.882 1507.85 936.2 1506.2 937.67 1504.39 C 940.128 1504.85 942.517 1505.16 944.458 1506.87 C 946.699 1508.83 946.896 1512.93 947.095 1515.68 C 947.885 1526.62 948.771 1555.09 945.893 1564.62 C 945.22 1566.85 943.602 1568.72 942.11 1570.45 z"/>
<path transform="translate(0,0)" fill="rgb(0,0,0)" d="M 990.156 1529.17 C 988.852 1529.59 987.232 1530.27 985.875 1530.38 C 984.522 1530.48 983.264 1530.53 982.376 1529.41 C 978.553 1524.61 981.069 1510.83 981.363 1504.96 C 983.434 1505.21 985.957 1505.57 987.852 1506.48 C 990.319 1507.67 992.101 1510.29 992.897 1512.85 C 994.594 1518.3 992.586 1524.29 990.156 1529.17 z"/>
<path transform="translate(0,0)" fill="rgb(0,0,0)" d="M 1098.89 1555.75 C 1096.22 1555.51 1093.96 1555.43 1091.56 1554.1 C 1092.67 1543.65 1093.35 1533.02 1095.13 1522.66 C 1098.49 1531.93 1099.59 1544.52 1100.32 1554.35 L 1098.89 1555.75 z"/>
</svg>