<svg version="1.1" xmlns="http://www.w3.org/2000/svg" style="display: block;" viewBox="0 0 2048 2048" width="1024" height="1024">
<path transform="translate(0,0)" fill="rgb(255,255,255)" d="M 0 0 L 0 2048 L 2048 2048 L 2048 0 L 0 0 z"/>
<path transform="translate(0,0)" fill="rgb(0,0,0)" d="M 990.115 0 L 1057.55 0 L 1058.58 0.135684 C 1075.6 2.24401 1093.08 1.91511 1110.23 3.58391 C 1151.47 7.89342 1192.48 14.1745 1233.11 22.4057 C 1464.64 71.1372 1671.86 199.219 1818.97 384.516 C 1923.78 516.343 1995.72 671.209 2028.86 836.327 C 2034.53 867.236 2039.18 898.324 2042.79 929.54 C 2044.31 943.634 2044.76 967.042 2048 980.065 L 2048 1064.87 C 2043.59 1092.53 2043.25 1125.37 2039.51 1154.17 C 2031.57 1215.41 2017.02 1274.18 1999.33 1333.21 C 1958.53 1334.53 1917.29 1333.31 1876.45 1333.42 L 1614.03 1333.39 L 1133.35 1333.45 L 394.091 1333.62 C 278.849 1333.6 163.437 1334.97 48.2202 1333.25 C 28.033 1269.43 14.1116 1203.79 6.65341 1137.26 C 4.86994 1121.08 3.47635 1104.86 2.47384 1088.62 C 1.79955 1077.72 1.76097 1066.39 0.14881 1055.61 L 0 1054.67 L 0 986.388 C 3.43124 971.2 3.22772 951.806 4.72174 935.954 C 7.23666 908.77 10.9612 881.711 15.8843 854.859 C 44.724 688.656 113.671 531.997 216.747 398.466 C 365.283 207.526 575.989 74.6239 812.29 22.8271 C 851.159 14.5267 890.448 8.32591 929.984 4.25159 C 949.594 2.39633 969.672 2.64515 989.136 0.133929 L 990.115 0 z M 1004.15 71.5347 C 898.007 73.1151 792.999 93.6787 694.096 132.253 C 693.904 276.788 692.506 421.487 694.164 566.005 L 1044.28 566.345 L 1353.78 565.954 C 1354.35 421.224 1354.16 276.491 1353.23 131.762 C 1249.81 90.3798 1115.51 66.8922 1004.15 71.5347 z M 1377.07 141.763 C 1376.89 157.78 1376.88 173.798 1377.07 189.815 C 1409.39 189.87 1441.92 190.684 1474.22 189.669 C 1462.54 178.528 1397.19 150.839 1377.07 141.763 z M 669.92 144.019 C 655.562 149.909 579.609 182.552 574.764 191.575 L 575.436 191.974 L 671.225 192.148 C 671.259 184.598 672.98 147.981 669.92 144.019 z M 448.101 265.948 C 427.766 280.681 407.41 298.056 389.925 316.105 C 465.307 316.707 540.692 316.848 616.076 316.526 L 671.106 316.362 L 671.094 265.955 L 448.101 265.948 z M 1377.06 266.028 L 1377 316.785 L 1562.51 316.899 C 1593.25 316.969 1627.57 319.074 1657.84 316.615 C 1653.8 309.087 1608.84 272.339 1599.06 265.966 L 1377.06 266.028 z M 315.481 389.882 C 301.257 405.876 286.996 423.018 275.07 440.798 L 632.5 440.959 L 671.061 440.942 L 671.011 389.924 L 315.481 389.882 z M 1471.25 390.504 C 1440.12 390.565 1408.94 390.24 1377.81 390.712 L 1377.77 440.609 L 1675.76 440.424 C 1707.88 440.417 1740.05 440.008 1772.16 440.57 C 1759.64 423.784 1747.4 406.147 1733.09 390.848 C 1700.38 389.69 1667.5 390.31 1634.77 390.291 L 1471.25 390.504 z M 225.42 514.49 C 219.984 517.502 197.528 557.535 193.535 565.588 C 246.63 566.821 299.935 565.976 353.052 565.984 L 638.5 565.978 L 671.013 565.979 C 671.037 548.888 671.298 531.762 671.025 514.676 C 645.796 513.453 620.336 514.123 595.073 514.14 L 467.697 514.273 L 315.056 514.179 C 285.226 514.149 255.233 513.66 225.42 514.49 z M 1428.51 514.5 C 1411.43 514.582 1394.22 514.224 1377.16 514.934 L 1377.1 565.924 L 1802.5 565.949 C 1819.87 565.914 1837.33 566.262 1854.68 565.671 C 1846.57 548.644 1836.16 530.15 1824.84 515.033 L 1428.51 514.5 z M 154.637 631.896 C 136.814 670.953 122.435 711.693 109.324 752.54 C 105.054 765.845 99.5995 779.68 97.5049 793.521 C 95.9176 804.011 96.8856 815.644 96.9218 826.271 L 97.0528 884.903 L 97.0552 1096.16 L 1915.5 1096.06 L 1972.08 1096.07 C 1972.5 1020.67 1974.38 944.812 1969.84 869.52 C 1966.02 806.206 1959.09 743.05 1954.41 679.783 C 1953.24 664.029 1951.32 648.224 1950.65 632.449 L 154.637 631.896 z M 270.116 1181.97 C 263.086 1187.53 261.231 1192.72 260.058 1201.54 C 258.572 1212.71 257.853 1231.88 264.955 1241.18 C 267.284 1244.23 270.138 1245.99 273.994 1246.42 C 275.265 1246.56 276.689 1246.42 277.954 1246.36 C 284.191 1241.99 286.252 1237.39 287.626 1229.98 C 289.766 1218.44 290.461 1197.42 283.302 1187.62 C 280.911 1184.35 278.065 1182.49 274.032 1181.97 C 272.777 1181.81 271.366 1181.93 270.116 1181.97 z M 300.062 1182.38 C 299.984 1191.81 297.712 1240.91 301.241 1244.87 C 303.821 1245.25 305.58 1245.62 308.186 1245.07 C 309.888 1240.43 308.788 1231.82 308.753 1226.75 L 309.437 1224.53 C 315.316 1222.17 322.953 1219.95 325.673 1213.67 C 328.265 1207.68 327.963 1197.05 325.293 1191.11 C 323.643 1187.43 320.589 1185.04 316.827 1183.74 C 311.664 1181.95 305.483 1182.32 300.062 1182.38 z M 335.321 1182.15 C 335.324 1185.85 334.764 1188.05 336.812 1191.19 C 339.101 1192.03 341.214 1192.62 343.611 1193.06 C 348.583 1204.52 340.809 1238.6 346.632 1245.89 C 349.298 1246.12 349.758 1245.75 352.18 1244.52 C 353.222 1242.67 353.121 1241.34 353.09 1239.25 C 353 1224.64 351.456 1208.31 353.711 1193.93 C 357.835 1191.07 361.404 1195.68 362.586 1188.47 C 362.837 1186.94 362.456 1185.89 361.929 1184.48 C 356.801 1179.87 342.241 1182.07 335.321 1182.15 z M 372.108 1182.36 C 372.055 1191.56 369.627 1240.61 373.622 1245.19 C 376.246 1245.6 378.506 1245.66 381.141 1245.57 C 381.302 1231.44 383.678 1195.06 380.938 1183.27 C 378.192 1181.69 375.155 1182.23 372.108 1182.36 z M 396.198 1182.27 C 396.093 1193.3 393.689 1237.58 397.237 1245.09 C 399.745 1245.97 400.232 1245.87 402.86 1245.34 C 405.446 1241.94 404.125 1216.16 404.631 1209.76 C 406.442 1219.39 407.454 1233.78 413.016 1241.88 L 414.684 1241.89 C 420.162 1234.17 421.251 1219.51 423.308 1210.21 C 423.546 1215.11 423.944 1220.06 423.899 1224.97 C 423.759 1231.13 422.969 1238.24 424.469 1244.21 C 426.485 1246.03 427.615 1245.38 430.203 1245.28 L 431.56 1244.27 C 434.367 1224.48 432.116 1202.56 432.307 1182.54 L 422.635 1182.45 C 419.663 1195.43 416.468 1208.42 414.066 1221.52 C 412.557 1213.83 408.981 1187.34 404.522 1182.65 C 401.649 1182.27 399.095 1182.17 396.198 1182.27 z M 476.765 1182.48 C 473.059 1182.51 469.853 1181.89 466.696 1183.97 C 466.047 1186.65 466.183 1187.71 467.188 1190.27 C 471.853 1193.76 477.87 1191.85 483.408 1192.05 C 476.751 1208.82 466.496 1227.42 464.045 1245.27 L 481.5 1245.49 C 485.685 1245.57 489.558 1246.14 492.862 1243.07 C 494.034 1241.98 493.678 1241.15 493.763 1239.65 C 490.412 1236.33 487.676 1235.24 482.94 1235.29 L 481.532 1235.31 C 479.364 1235.31 477.196 1235.32 475.028 1235.34 C 482.285 1218.8 490.912 1200.51 494.059 1182.69 C 488.311 1182.59 482.509 1182.32 476.765 1182.48 z M 611.001 1182.02 C 603.811 1187.23 601.518 1192.5 600.177 1201.24 C 598.476 1212.34 597.834 1232.68 604.976 1241.78 C 607.031 1244.41 610.117 1246.53 613.503 1246.84 C 614.772 1246.96 616.051 1246.78 617.308 1246.64 C 623.261 1243.13 625.516 1238.9 627.232 1232.26 C 630.335 1220.25 631.428 1199.33 624.996 1188.52 C 623.32 1185.71 620.916 1183.21 617.639 1182.34 C 615.55 1181.78 613.147 1181.96 611.001 1182.02 z M 659.097 1182.32 C 659.074 1191.02 661.203 1229.3 655.947 1234.4 C 654.993 1235.32 653.816 1234.79 652.607 1234.68 C 650.356 1232.69 650.159 1232.02 650.018 1229.03 C 649.312 1214.03 650.258 1198.91 649.573 1183.9 C 647.407 1182.23 647.11 1182.68 644.497 1182.67 C 642.176 1184.12 641.544 1184.43 640.808 1187.26 C 639.781 1191.22 640.892 1198.26 641.007 1202.5 C 640.863 1213.22 638.281 1233.86 645.631 1242.35 C 647.835 1244.9 651.81 1246.7 655.178 1246.6 C 658.86 1246.49 661.854 1244.34 663.92 1241.44 C 670.615 1232.05 668.95 1196.42 667.668 1184.06 C 665.952 1182.19 664.35 1182.5 661.871 1182.37 C 660.947 1182.33 660.022 1182.32 659.097 1182.32 z M 681.373 1182.09 C 681.177 1195.81 678.223 1233.99 683.264 1245.11 L 685.207 1246.35 C 687.508 1245.28 688.12 1244.61 688.915 1242.15 C 691.496 1234.15 689.213 1224.04 690.318 1215.55 C 692.962 1223.08 694.814 1230.7 696.639 1238.47 C 697.674 1241.59 697.754 1243.71 700.472 1245.66 C 703.172 1245.95 704.425 1246.35 706.953 1245.26 C 709.353 1238.8 702.464 1224.05 700.698 1217.08 C 705.621 1212.66 707.967 1206.9 708.447 1200.26 C 708.76 1195.93 706.91 1191.37 703.964 1188.24 C 698.339 1182.25 692.069 1181.92 684.394 1182.03 L 681.373 1182.09 z M 797.976 1181.99 C 793.431 1184.09 791.367 1185.73 789.578 1190.49 C 784.831 1203.13 784.756 1227.27 790.934 1239.31 C 792.487 1242.34 794.69 1245.02 798.021 1246.09 C 800.012 1246.73 801.996 1246.72 804.065 1246.72 C 810.194 1243 812.444 1238.69 814.123 1231.76 C 816.996 1219.91 817.898 1198.63 811.21 1188.16 C 809.104 1184.86 806.462 1182.85 802.536 1182.18 C 801.095 1181.93 799.419 1182 797.976 1181.99 z M 862.919 1182.07 L 862.792 1245.41 C 870.795 1245.47 877.763 1246.07 883.909 1240.05 C 884.26 1239.7 884.599 1239.34 884.944 1238.99 C 890.814 1227.75 892.408 1209.3 888.898 1197.02 C 887.342 1191.57 884.072 1186.95 879.064 1184.17 C 874.15 1181.45 868.34 1181.96 862.919 1182.07 z M 900.031 1182.05 C 900.019 1196.24 898.135 1232.82 900.796 1244.59 C 903.425 1246.07 905.44 1245.62 908.42 1245.58 C 910.482 1241.19 909.38 1232.81 909.317 1227.75 C 909.453 1225 908.863 1223.24 910.93 1221.28 L 912.287 1220.99 C 916.805 1220 920.343 1219.43 923.066 1215.43 C 926.669 1210.14 928.255 1203.05 926.624 1196.81 C 925.105 1190.99 921.252 1186.46 915.942 1183.68 C 911.267 1181.23 905.125 1181.91 900.031 1182.05 z M 936.081 1182.03 C 936.058 1197.67 934.002 1230.86 936.994 1244.65 C 939.244 1246.02 939.967 1245.79 942.648 1245.72 C 947.126 1241.03 944.792 1222.97 945.298 1216.07 C 948.116 1224.2 950.574 1232.38 952.907 1240.67 C 954.038 1243.67 953.887 1244.57 957.018 1245.77 C 959.262 1246.63 961.601 1246.46 963.774 1245.57 C 965.342 1238.94 957.211 1225.38 954.784 1218.57 C 959.854 1213.58 962.881 1206.75 962.783 1199.5 C 962.721 1194.92 960.801 1190.26 957.476 1187.09 C 951.128 1181.04 944.173 1181.82 936.081 1182.03 z M 973.161 1182.04 C 973.271 1203.32 973.967 1224.64 973.789 1245.91 C 980.31 1246.08 988.15 1247.45 994.287 1245.18 C 996.074 1243.38 997.021 1242.35 997.185 1239.61 C 997.33 1237.17 996.281 1236.59 994.613 1235.23 C 990.284 1234.44 986.006 1234.78 981.633 1234.95 C 981.603 1229.27 981.455 1223.57 981.644 1217.9 C 985.418 1217.93 989.477 1218.51 992.627 1216.11 C 994.214 1213.4 994.5 1213.45 993.832 1210.43 C 991.225 1207.86 990.203 1207.26 986.537 1207.27 C 984.999 1207.27 983.458 1207.34 981.921 1207.4 L 981.945 1192.07 C 985.929 1192.22 990.901 1193.06 994.479 1191.09 C 995.689 1188.68 995.514 1188.27 995.166 1185.55 C 993.551 1183.35 993.058 1182.65 990.269 1181.86 C 985.668 1180.57 978.054 1182.11 973.161 1182.04 z M 1012.83 1182.03 C 1008.67 1184.8 1005.97 1187.43 1004.79 1192.45 C 1003.36 1198.55 1005.66 1205.06 1009.04 1210.12 C 1013.38 1216.62 1020.38 1223.36 1020.85 1231.4 C 1019.84 1233.53 1019.46 1234.19 1016.98 1234.92 C 1012.3 1236.32 1007.17 1231.05 1004.17 1233.67 C 1003.66 1237.17 1004.49 1239.98 1006.66 1242.76 C 1008.87 1245.6 1011.4 1246.2 1014.74 1246.87 C 1020.1 1245.65 1024.74 1243.63 1027.64 1238.67 C 1030.06 1234.54 1029.85 1229.68 1028.57 1225.21 C 1025.64 1214.9 1013.5 1205.38 1013.03 1195.04 C 1013.77 1193.77 1013.64 1193.27 1015.16 1192.88 C 1016.85 1192.44 1018.38 1192.31 1020.1 1192.12 C 1022.87 1191.83 1024.51 1191.38 1026.93 1190.06 L 1028.18 1188.01 C 1027.54 1185.64 1026.81 1184.61 1024.64 1183.31 C 1021.27 1181.28 1016.59 1181.68 1012.83 1182.03 z M 1042.65 1182.08 C 1038.41 1185.62 1035.5 1189.54 1034.85 1195.18 C 1033.14 1210.03 1055.82 1220.49 1049.8 1232.61 C 1045.68 1235.08 1042.66 1233.9 1038.11 1233.28 C 1036.05 1233 1036.82 1233.03 1034.64 1233.74 C 1033.96 1236.47 1034.58 1238.73 1036.08 1241.14 C 1037.85 1243.98 1039.97 1245.1 1043.16 1245.64 C 1045.49 1246.03 1047.66 1245.84 1050 1245.63 C 1055.31 1242.07 1058.43 1238.53 1059.5 1232.05 C 1062.18 1215.69 1039.68 1201.55 1045.9 1192.52 C 1047.42 1191.91 1048.12 1191.2 1049.75 1191.68 C 1052.25 1192.41 1053.87 1193.02 1056.46 1192.13 C 1058.13 1189.92 1057.93 1189.84 1057.74 1187.04 C 1056.28 1184.57 1055.33 1183.23 1052.55 1182.21 C 1049.54 1181.11 1045.74 1181.69 1042.65 1182.08 z M 1092.11 1182.35 C 1092.14 1203.41 1092.3 1224.47 1092.58 1245.53 C 1100.68 1245.87 1108.02 1246.76 1114.69 1241.23 C 1121.43 1229.73 1122.37 1208.11 1119.25 1195.23 C 1118.17 1190.77 1116.27 1186.71 1112.13 1184.38 C 1106.77 1181.35 1098.16 1182.26 1092.11 1182.35 z M 1138.51 1182.17 C 1134.67 1202.87 1130.21 1223.64 1127.16 1244.47 C 1128.78 1245.52 1131.08 1246.51 1133.09 1245.91 C 1134.83 1245.39 1134.82 1245.41 1135.31 1244.01 C 1136.48 1240.64 1135.54 1235.69 1137.99 1233.11 C 1140.99 1232.62 1143.75 1232.45 1146.78 1232.46 C 1146.95 1232.92 1147.13 1233.37 1147.3 1233.82 C 1148.68 1237.6 1148.14 1241.85 1150.93 1244.97 C 1153.19 1245.32 1153.73 1245.5 1155.93 1244.64 C 1159.39 1236.2 1147.62 1195.82 1146.74 1183.02 C 1144.07 1181.61 1141.47 1182.1 1138.51 1182.17 z M 1161.07 1182.02 C 1161.08 1185.6 1160.54 1188.59 1162.43 1191.72 L 1168.43 1193.63 C 1173.66 1205.7 1165.1 1238.83 1172.9 1245.8 C 1175.62 1246.13 1175.92 1246.14 1178.36 1244.92 C 1179.49 1242.56 1179.26 1240.49 1179.15 1237.96 C 1179.05 1223.74 1177.63 1208.07 1179.96 1194.05 C 1182.79 1192.53 1187.35 1193.88 1188.48 1190.17 C 1189.28 1187.55 1188.94 1184.74 1188.82 1182.03 L 1161.07 1182.02 z M 1202.73 1182.04 C 1201.27 1190.39 1190.25 1241.79 1191.47 1245.36 C 1194.06 1246.07 1195.37 1246.06 1197.98 1245.43 C 1199.04 1243.97 1199.32 1243.91 1199.51 1242.03 C 1199.83 1238.85 1199.85 1236.21 1201.76 1233.5 C 1205.23 1232.46 1208.68 1232.74 1212.25 1232.82 C 1212.77 1236.79 1212.8 1241.56 1215.17 1244.89 C 1217.5 1245.96 1219.1 1245.48 1221.54 1245.11 C 1223.3 1242.6 1221.65 1237.01 1221.12 1233.96 C 1219.41 1223.99 1214.76 1189.96 1211.53 1182.73 C 1208.46 1181.9 1205.9 1181.91 1202.73 1182.04 z M 1232.32 1182.09 L 1232.07 1245.26 C 1239.56 1245.36 1248.67 1246.81 1254.38 1240.86 C 1254.68 1240.55 1254.94 1240.21 1255.23 1239.88 C 1262.02 1220.43 1252.19 1217.89 1253.22 1206.83 C 1253.75 1201.13 1258.26 1194.93 1255.83 1189.13 C 1254.33 1185.56 1250.3 1184.05 1246.85 1183.11 C 1242.11 1181.81 1237.2 1182.02 1232.32 1182.09 z M 1276.81 1182.04 C 1274.52 1190.88 1263.84 1237.98 1265.69 1244.19 C 1267.61 1246.11 1267.48 1246.16 1270.17 1246.25 C 1278.98 1239.93 1266.62 1232.17 1285.52 1233.47 C 1285.98 1237.26 1285.93 1242.07 1288.34 1245.16 C 1290.92 1246.22 1292.46 1245.85 1295.13 1245.46 L 1296.25 1244.07 C 1294.25 1231.61 1288.34 1192.86 1284.24 1182.91 C 1281.64 1181.85 1279.54 1181.95 1276.81 1182.04 z M 1309.73 1182.1 C 1305 1185.9 1302.65 1189.14 1302.03 1195.31 C 1300.46 1210.8 1323.04 1221.52 1317.91 1232.35 C 1314.55 1234.75 1314.11 1234.36 1310.14 1233.63 C 1307.07 1233.07 1304.43 1232 1301.33 1232.94 C 1300.38 1235.21 1300.56 1235.2 1301.44 1237.38 C 1302.73 1240.57 1305 1243.96 1308.21 1245.43 C 1310.3 1246.38 1313.62 1246.46 1315.86 1246.65 C 1321.53 1244.05 1325.45 1240.84 1327.58 1234.78 C 1329.51 1229.29 1328.17 1222.59 1325.48 1217.58 C 1321.66 1210.48 1310.74 1203.23 1311.73 1194.78 C 1312.99 1193.03 1313.33 1192.04 1315.68 1191.83 C 1317.51 1191.66 1319.61 1192.06 1321.45 1192.14 C 1323.7 1192.24 1322.85 1192.31 1325.04 1191.35 C 1325.62 1188.62 1325.18 1188.07 1324.13 1185.43 C 1320.67 1182.05 1317.77 1181.9 1313.08 1181.99 C 1311.96 1182.01 1310.85 1182.05 1309.73 1182.1 z M 1336.62 1182.15 C 1336.28 1203.22 1336.12 1224.29 1336.15 1245.35 C 1341.94 1245.52 1354.69 1247.69 1359.06 1243.5 C 1360.12 1242.48 1360.66 1240.56 1360.76 1239.12 C 1360.93 1236.81 1360.01 1236.09 1358.52 1234.66 C 1354.16 1233.46 1349.87 1234.34 1345.42 1234.31 L 1345.46 1218.05 C 1348.49 1218.08 1354.27 1218.76 1356.45 1216.54 C 1358.19 1214.76 1358.3 1214.04 1358.14 1211.76 C 1356.51 1209.82 1355.89 1208.73 1353.21 1208.26 C 1350.96 1207.87 1348.18 1208.17 1345.88 1208.22 L 1346 1193.14 C 1349.8 1193.28 1355.01 1194.23 1358.28 1192.05 C 1359.47 1189.31 1359.36 1188.57 1359.08 1185.55 C 1357.51 1183.34 1357.06 1182.65 1354.3 1181.86 C 1349.55 1180.5 1341.73 1182.14 1336.62 1182.15 z M 1389.96 1182.01 C 1389.92 1193.96 1387.95 1235.81 1390.71 1244.64 C 1393.17 1245.5 1394.59 1245.47 1397.16 1245.13 C 1399.64 1241.33 1398.59 1229.87 1398.65 1225.11 C 1398.94 1224.94 1399.21 1224.74 1399.5 1224.59 C 1406.88 1220.79 1413.86 1222.77 1417.13 1213.05 C 1419.48 1206.08 1418.67 1196.92 1415.24 1190.43 C 1413.41 1186.97 1410.58 1183.86 1406.72 1182.76 C 1401.61 1181.32 1395.25 1181.94 1389.96 1182.01 z M 1428.14 1182.07 L 1428.05 1245.31 C 1432.96 1245.32 1446.49 1246.81 1449.63 1243.81 C 1450.47 1240.78 1450.55 1239.03 1450.17 1235.91 L 1449 1234.28 C 1445.11 1233.66 1439.99 1235.14 1436.7 1233.26 L 1436.17 1231.93 L 1436.37 1216.77 C 1439.53 1216.68 1445.25 1217.15 1447.51 1214.81 C 1449.31 1212.96 1449.22 1212.29 1448.95 1209.94 C 1447.14 1208.13 1446.47 1207.29 1443.72 1207.05 C 1441.39 1206.85 1438.48 1207.36 1436.16 1207.58 L 1436.35 1192.8 C 1440.31 1192.88 1445.52 1193.66 1449.06 1191.76 C 1451.17 1188.92 1450.56 1185.4 1450.5 1182.03 L 1428.14 1182.07 z M 1463.8 1182.43 C 1460.56 1187.45 1461.84 1235.19 1462.72 1243.67 L 1463.9 1245.32 C 1466.73 1245.42 1466.91 1245.32 1469.29 1243.75 C 1472.18 1238.28 1470.16 1224.33 1471.03 1217.5 C 1473.64 1223.84 1476.17 1230.07 1478.06 1236.67 C 1478.89 1239.63 1479.35 1243.23 1481.71 1245.35 C 1484.35 1245.54 1484.89 1245.53 1487.26 1244.41 C 1488.87 1241.42 1488.65 1238.95 1487.65 1235.81 C 1485.77 1229.94 1483.4 1224.13 1481.29 1218.33 C 1486.27 1213.51 1489.22 1208.11 1489.4 1201 C 1489.52 1195.76 1487.43 1190.72 1483.63 1187.11 C 1477.52 1181.34 1471.52 1182.08 1463.8 1182.43 z M 1501.17 1182.38 C 1500.97 1203.39 1500.92 1224.39 1501.01 1245.4 C 1507.47 1245.63 1518.42 1247.51 1523.41 1243.19 C 1524.12 1240.56 1524.06 1238.76 1523.86 1236.09 C 1520.07 1232.76 1514.1 1236.34 1509.94 1233.73 L 1510 1218.2 C 1513.21 1218.23 1519.19 1218.97 1521.62 1216.6 C 1522.39 1215.85 1522.72 1215.21 1523.26 1214.32 C 1522.97 1211.74 1522.68 1211.64 1520.88 1209.72 C 1517.41 1208.18 1513.77 1208.56 1510.06 1208.61 L 1510.13 1192.62 C 1514.58 1192.68 1520.2 1193.47 1524.21 1191.39 C 1525.66 1188.93 1525.29 1188.53 1524.86 1185.66 C 1522.91 1183.32 1521.38 1182.14 1518.23 1181.9 C 1512.64 1181.48 1506.8 1182.4 1501.17 1182.38 z M 1625.35 1182.03 C 1623.5 1192.41 1614.02 1237.84 1615.25 1245.01 C 1617.5 1246.05 1618.34 1245.9 1620.75 1245.78 L 1622.73 1244.3 C 1623.26 1240.52 1623.06 1237.21 1625.63 1234.26 C 1629.02 1233.63 1632.1 1233.69 1635.54 1233.83 C 1636.19 1237.64 1636.36 1242.17 1638.98 1245.17 C 1641.14 1245.86 1642.5 1245.71 1644.73 1245.38 C 1645.04 1244.81 1645.54 1244.31 1645.67 1243.68 C 1645.99 1242.14 1635.66 1188.71 1634.49 1184.9 C 1634.14 1183.77 1634.03 1183.63 1633.56 1182.72 C 1630.68 1182.02 1628.3 1181.93 1625.35 1182.03 z M 1655.33 1182.08 C 1655.18 1200.22 1652.88 1227.79 1656.05 1244.94 L 1657.91 1246.26 C 1660.63 1245.73 1660.86 1245.5 1662.85 1243.54 C 1665.34 1237.13 1663.71 1213.71 1663.96 1205.12 C 1666.13 1212.88 1672.44 1242.61 1677.58 1246.73 C 1680.13 1245.98 1682.05 1245.94 1683.77 1243.82 C 1684.42 1225.82 1685.94 1201.13 1683.6 1183.66 C 1681.36 1182.36 1679.86 1182.67 1677.36 1182.84 C 1674.26 1187.32 1675.92 1212.34 1675.74 1219.63 C 1672.62 1209.24 1669.18 1191.26 1663.53 1182.6 C 1660.7 1182.05 1658.21 1181.98 1655.33 1182.08 z M 1704.7 1181.97 C 1698.72 1185.88 1696.54 1190.26 1695.03 1197.21 C 1692.36 1209.5 1692.33 1229.78 1699.36 1240.48 C 1701.44 1243.64 1704.45 1246.75 1708.34 1247.44 C 1711 1247.91 1713.43 1246.73 1715.41 1245.05 C 1718.63 1242.31 1723.02 1235.43 1723.15 1231.12 C 1723.23 1228.31 1722.4 1227.49 1720.63 1225.63 C 1718.57 1225.22 1716.54 1224.8 1714.46 1224.52 C 1714.23 1228.01 1714.27 1230.65 1712.2 1233.58 C 1709.8 1235.1 1709.69 1235.4 1706.9 1235.11 C 1704.26 1232.95 1703.43 1230.57 1703.02 1227.25 C 1702.11 1219.85 1701.2 1200.05 1705.38 1193.7 C 1706.01 1192.74 1706.17 1192.71 1706.98 1192.13 C 1713.37 1193.06 1715.4 1202.84 1721.69 1200.79 C 1723.05 1198.72 1724.22 1197.05 1723.76 1194.45 C 1722.96 1189.91 1717.67 1185.3 1713.9 1183.12 C 1711.03 1181.46 1707.89 1181.84 1704.7 1181.97 z M 1732 1182.03 L 1731.7 1246.02 C 1736.43 1246.07 1741.14 1246.09 1745.86 1246.38 C 1748.79 1246.55 1751.1 1246.45 1753.44 1244.41 C 1754.64 1243.36 1755.25 1241.7 1755.42 1240.12 C 1755.73 1237.23 1754.92 1236.57 1753.04 1234.75 C 1748.81 1233.83 1744.64 1234.19 1740.34 1234.37 L 1740.41 1218.62 C 1744.41 1218.57 1747.3 1219.04 1750.86 1216.98 C 1752.32 1214.56 1752.66 1214.36 1752.38 1211.59 C 1750.66 1209.43 1750.11 1208.16 1747.19 1207.75 C 1745.1 1207.46 1742.48 1207.88 1740.36 1208.02 C 1740.51 1202.72 1740.53 1197.38 1740.86 1192.09 C 1745.06 1192.21 1750.35 1193.04 1754.1 1190.96 C 1755.4 1188.47 1755.06 1187.99 1754.61 1185.17 C 1752.8 1183.07 1751.66 1182.05 1748.81 1181.64 C 1743.77 1180.92 1737.19 1181.91 1732 1182.03 z M 446.254 1182.64 C 446.165 1196.48 444.011 1232.65 446.682 1244.15 C 449.475 1245.55 451.918 1245.31 454.943 1245.23 C 455.031 1235.56 457.058 1188.8 453.984 1183.15 C 451.247 1182.34 449.044 1182.46 446.254 1182.64 z M 504.11 1182.97 C 504.094 1203.62 503.556 1224.45 504.174 1245.08 L 525.965 1245.14 C 527.566 1243.45 528.39 1241.92 528.25 1239.47 C 528.173 1238.12 527.922 1237.31 527.612 1236.05 C 523.453 1233.27 514.64 1237.14 512.486 1232.76 L 512.728 1218.55 C 515.765 1218.55 521.294 1219.16 523.505 1216.94 C 525.25 1215.2 525.357 1214.34 525.393 1212.06 C 523.954 1210.14 523.291 1208.71 520.728 1208.25 C 518.429 1207.84 515.283 1208.22 512.921 1208.3 L 513.008 1193.23 C 517.467 1193.59 522.645 1194.65 526.875 1192.98 C 528.666 1190.46 528.347 1190.14 528.113 1187.01 C 526.533 1184.63 525.717 1183.48 522.829 1182.76 C 517.475 1181.44 509.749 1182.99 504.11 1182.97 z M 559.453 1183.1 C 565.288 1199 572.456 1213.93 571.767 1231.17 C 571.618 1234.89 570.394 1242.45 573.508 1244.87 C 576.001 1244.97 577.368 1245.24 579.495 1243.73 C 581.542 1234.51 578.409 1224.97 580.87 1215.79 C 583.111 1209.29 592.449 1188.76 590.087 1183.07 C 587.694 1182.81 585.828 1182.68 583.868 1184.35 C 579.476 1188.11 578.096 1198.41 576.63 1203.86 C 575.105 1199.74 573.599 1195.71 572.461 1191.46 C 571.626 1188.34 570.433 1185.31 567.626 1183.46 C 565.916 1182.34 561.499 1182.95 559.453 1183.1 z M 736.071 1182.51 C 738.04 1193.59 739.812 1204.7 741.385 1215.84 C 742.648 1225.08 742.918 1236.03 745.997 1244.76 C 748.417 1245.9 749.649 1245.7 752.249 1245.26 C 756.182 1241.06 757.317 1217.79 758.953 1210.77 C 760.056 1218.23 760.51 1240.88 764.482 1246 C 767.277 1246.02 768.219 1246.34 770.286 1244.18 C 774.784 1239.48 775.84 1213.67 777.286 1205.98 C 778.516 1198.95 780.692 1190.96 780.082 1183.86 L 779.164 1182.96 C 776.292 1183.05 774.103 1182.64 771.623 1184.19 C 768.959 1194.81 769.353 1205.92 766.922 1216.69 C 765.915 1207.75 765.59 1189.68 759.427 1182.6 C 757.691 1182.74 757.939 1182.35 756.966 1183.67 C 751.033 1191.75 750.891 1211.74 749.698 1221.81 C 748.815 1211.56 749.124 1192.62 745.321 1183.48 C 742.322 1182.13 739.282 1182.45 736.071 1182.51 z M 826.336 1182.73 C 826.354 1189.98 825.204 1241.5 827.722 1245.39 C 830.317 1245.88 830.288 1245.88 832.58 1244.57 C 836.65 1237.39 833.146 1228.1 836.619 1221.65 C 839.293 1226.35 840.742 1230.74 842.188 1235.91 C 842.933 1239.23 843.256 1242.8 845.68 1245.35 C 848.485 1245.58 849.15 1245.76 851.63 1244.53 C 855.028 1237.58 847.966 1224.44 846.31 1216.91 C 850.675 1211.1 854.286 1204.08 852.988 1196.54 C 852.185 1191.88 849.512 1188.33 845.607 1185.77 C 839.66 1181.86 833.164 1182.58 826.336 1182.73 z M 1535.79 1182.87 C 1535.58 1197.82 1533.23 1230.69 1535.88 1243.64 C 1537.99 1245.23 1539.14 1244.87 1541.67 1244.98 C 1546.43 1239.26 1543.98 1224.42 1544.73 1216.74 C 1547.53 1224.02 1549.72 1231.35 1551.81 1238.87 C 1552.73 1241.56 1552.98 1243.53 1555.13 1245.43 C 1557.82 1245.53 1558.08 1245.76 1560.2 1244.17 C 1561.99 1236.52 1556.83 1226.9 1555.02 1219.37 C 1559.82 1214.57 1562.78 1208.3 1562.78 1201.38 C 1562.76 1196.19 1560.51 1191.26 1556.62 1187.83 C 1550.17 1182.17 1543.82 1182.69 1535.79 1182.87 z M 1572.03 1182.93 C 1571.94 1202.88 1570.04 1224.84 1572.7 1244.54 L 1574.29 1246.01 C 1577.14 1245.62 1577.29 1245.48 1579.39 1243.51 C 1582.16 1236.57 1579.93 1217.86 1580.24 1209.56 C 1580.33 1209.85 1580.43 1210.14 1580.51 1210.43 C 1583.06 1218.81 1582.82 1232.22 1588.14 1239.03 C 1590.22 1238.27 1590.24 1237.82 1591.15 1235.87 C 1594.85 1227.95 1594.48 1213.72 1598.57 1207.44 L 1598.76 1209.75 C 1598.61 1216.36 1596.6 1239.68 1598.66 1244.45 C 1601.09 1245.86 1601.67 1245.66 1604.53 1245.5 C 1608.11 1239.6 1605.94 1193.55 1605.82 1184.1 C 1603.72 1182.26 1601.68 1182.81 1598.97 1182.71 C 1595.02 1185.64 1590.88 1206.04 1588.97 1211.97 C 1586.68 1204 1585.06 1189.12 1579.31 1183.36 C 1576.76 1182.59 1574.64 1182.75 1572.03 1182.93 z"/>
<path transform="translate(0,0)" fill="rgb(0,0,0)" d="M 999.494 190.31 C 1002.64 178.939 1005.88 167.593 1008.5 156.087 L 1033.58 156.068 C 1036.71 167.438 1039.33 178.979 1042.12 190.438 C 1051.4 191.486 1059.93 194.491 1068.61 197.779 C 1077.49 188.986 1086.64 180.361 1094.79 170.879 C 1101.52 176.08 1108.89 180.337 1116.15 184.739 C 1111.71 196.037 1109.2 208.127 1106.34 219.897 C 1113.3 225.014 1119.17 232.314 1125.1 238.574 C 1136.46 235.933 1147.8 233.174 1159.1 230.298 C 1162.62 237.694 1166.49 244.52 1171.18 251.238 C 1164.04 260.226 1156.35 268.94 1148.61 277.416 C 1151.32 285.653 1153.82 293.961 1156.09 302.331 C 1166.66 306.396 1177.72 309.23 1188.6 312.355 L 1189.13 336.908 C 1178.02 339.836 1166.99 343.07 1156.06 346.606 C 1154.12 355.154 1151.68 363.545 1149.26 371.966 C 1156.41 380.762 1164.87 388.626 1173.25 396.233 C 1169.13 403.443 1166.28 411.249 1162.19 418.483 L 1128.03 409.73 C 1120.78 418.12 1112.51 425.505 1104.29 432.911 C 1107.55 443.939 1111.32 454.844 1114.9 465.776 C 1107.94 470.406 1100.86 474.859 1093.84 479.389 C 1085.41 470.198 1077.06 461.171 1068.13 452.458 C 1059.5 455.939 1050.34 459.699 1041.15 461.236 C 1039.02 469.279 1035.05 489.809 1030.72 495.84 L 1006.5 495.765 C 1004.97 484.346 1001.7 472.643 999.277 461.337 C 989.31 459.27 979.965 455.868 970.421 452.419 C 962.805 461.357 954.197 469.497 945.832 477.726 C 938.783 474.019 932.085 469.137 925.392 464.803 C 928.241 454.068 930.543 442.812 934.998 432.62 C 926.727 425.495 919.242 417.756 911.678 409.903 C 900.962 413.013 889.889 414.381 879.168 417.681 C 874.954 411.015 871.625 403.554 868.03 396.527 C 876.462 388.709 884.768 380.755 892.944 372.669 C 889.036 364.146 887.737 354.967 884.476 346.241 C 873.584 342.272 862.42 339.09 851.072 336.719 C 851.109 328.175 851.647 319.606 852.015 311.069 C 863.376 308.873 874.606 306.067 885.856 303.367 C 887.883 294.277 890.713 285.396 893.409 276.487 C 885.638 267.252 876.947 258.819 868.002 250.738 C 871.955 243.283 876.45 236.048 880.704 228.756 C 892.43 232.077 904.005 235.718 915.806 238.815 C 921.79 231.408 928.556 225.533 936.07 219.727 C 932.926 207.837 929.612 195.993 926.13 184.198 C 933.696 179.965 941.235 175.801 948.395 170.895 C 955.763 180.13 964.166 189.066 972.876 197.042 C 981.466 193.89 990.555 192.165 999.494 190.31 z M 1013.52 224.638 C 957.26 228.493 914.791 277.248 918.69 333.505 C 922.59 389.762 971.379 432.192 1027.63 428.248 C 1083.82 424.308 1126.2 375.586 1122.3 319.392 C 1118.41 263.198 1069.72 220.788 1013.52 224.638 z"/>
<path transform="translate(0,0)" fill="rgb(0,0,0)" d="M 950.373 259.656 C 970.062 244.11 988.651 235.259 1013.75 232.392 C 1021.9 231.579 1030.62 231.93 1038.68 233.454 C 1065.97 238.619 1079.42 252.868 1094.44 274.666 C 1091.31 286.958 1086.3 299.041 1081.88 310.93 L 1062.57 363.074 C 1051.34 336.387 1042.24 308.809 1032.74 281.473 C 1035.29 274.004 1038.41 267.147 1041.92 260.077 L 1023.11 259.97 L 1000.95 259.964 C 1006.47 275.614 1011.9 291.299 1017.22 307.018 C 1007.14 325.387 1000.46 347.051 993.619 366.836 C 983.027 344.939 960.304 272.519 950.373 259.656 z"/>
<path transform="translate(0,0)" fill="rgb(0,0,0)" d="M 1020.14 318.456 C 1025.09 329.672 1045.79 383.118 1045.69 392.758 C 1045.66 394.765 1045.4 396.482 1046.35 398.324 C 1046.56 398.719 1046.79 399.096 1047.01 399.483 L 1046.27 398.478 L 1047.8 399.903 C 1051.16 400.341 1053.6 400.222 1056.91 399.561 C 1060.46 396.788 1096.47 293.84 1102.03 280.729 C 1104.31 284.286 1106.13 288.043 1107.87 291.887 C 1117.79 313.781 1116.8 338.579 1108.29 360.756 C 1099.34 384.238 1081.33 403.142 1058.31 413.222 C 1036.12 423.13 1010.91 423.82 988.223 415.142 C 963.293 405.518 944.073 387.384 933.423 362.85 C 921.559 335.517 924.806 309.894 935.508 282.839 L 946.641 312.726 C 958.219 342.136 968.741 372.175 981.601 401.041 C 985.122 401.11 988.485 400.992 991.986 400.605 C 994.751 395.827 994.991 387.043 996.824 381.375 C 1003.67 360.195 1011.85 339.112 1020.14 318.456 z"/>
<path transform="translate(0,0)" fill="rgb(0,0,0)" d="M 560.028 848.014 C 574.155 806.819 584.829 763.425 601.351 723.212 L 604.297 724.345 C 610.89 733.331 639.866 829.289 645.903 847.932 L 628.767 848.048 C 627.168 840.586 624.551 833.28 622.231 826.01 L 605.5 826.035 L 582.968 826.171 C 580.889 833.498 578.435 840.746 576.134 848.007 L 560.028 848.014 z M 602.037 762.621 L 588.287 809.296 L 605.241 809.433 L 617.119 809.286 C 612.236 793.743 607.78 777.861 602.037 762.621 z"/>
<path transform="translate(0,0)" fill="rgb(0,0,0)" d="M 831.537 838.147 C 824.77 843.331 818.615 847.572 809.989 849.221 C 799.521 851.22 789.077 847.797 780.469 841.869 C 766.587 832.308 758.492 817.15 755.599 800.8 C 752.3 782.151 755.257 761.793 766.408 746.179 C 774.879 734.318 786.727 726.71 801.048 724.247 C 812.277 724.202 822.771 726.826 830.963 734.845 L 830.859 760.272 C 828.399 756.417 825.639 752.816 822.157 749.816 C 816.707 745.121 810.073 742.003 802.744 742.64 C 793.91 743.408 786.261 748.978 780.837 755.706 C 772.234 766.376 769.43 779.897 770.728 793.297 C 771.83 804.681 776.384 815.967 785.558 823.211 C 791.59 827.973 799.632 831.064 807.363 829.964 C 815.155 828.856 821.299 824.82 825.966 818.639 C 827.028 816.825 828.167 815.258 829.492 813.628 L 830.412 814.352 C 832.173 821.587 830.719 830.479 831.537 838.147 z"/>
<path transform="translate(0,0)" fill="rgb(0,0,0)" d="M 658.064 848.038 C 658.151 807.114 657.588 766.166 658.105 725.245 L 665.151 725.274 C 670.954 728.512 712.493 797.913 719.515 809.124 C 720.365 781.468 719.928 753.691 719.952 726.018 L 734.018 726.032 L 734.183 809.058 C 734.178 821.812 735.527 836.311 733.514 848.79 C 729.994 849.013 726.945 849.114 723.468 848.468 C 718.037 839.929 713.623 830.778 708.269 822.176 C 696.322 802.98 683.511 783.987 672.773 764.082 L 672.294 848.007 L 658.064 848.038 z"/>
<path transform="translate(0,0)" fill="rgb(0,0,0)" d="M 1048.7 847.976 L 1072.68 773.588 C 1077.88 757.185 1082.43 740.188 1088.95 724.259 C 1089.9 724.536 1091.66 724.904 1092.55 725.468 C 1092.87 725.676 1094.33 726.846 1094.6 727.331 C 1099.58 736.257 1103.32 753.673 1106.62 764.186 C 1115.29 792.217 1124.27 820.155 1133.54 847.997 L 1116.56 848.057 C 1114.93 840.376 1112.3 832.787 1110.03 825.267 L 1092.57 825.517 C 1085.71 825.53 1078.83 825.322 1071.97 825.22 L 1065.54 848.044 L 1048.7 847.976 z M 1090.27 763.542 C 1085.52 778.543 1081.01 793.618 1076.73 808.761 L 1089.96 808.347 L 1104.74 808.323 C 1102.66 800.867 1095.37 767.917 1090.27 763.542 z"/>
<path transform="translate(0,0)" fill="rgb(0,0,0)" d="M 1354.79 847.713 C 1345.94 849.106 1339.21 848.275 1331.08 844.247 C 1317.55 837.548 1308.08 824.422 1303.41 810.329 C 1297.45 792.358 1298.15 770.772 1306.89 753.815 C 1314.14 739.766 1325.51 729.916 1340.65 725.114 C 1349.02 724.587 1355.92 724.937 1363.65 728.531 C 1377.35 734.905 1387.2 748.484 1391.94 762.532 C 1398.15 780.927 1396.99 802.974 1388.14 820.342 C 1380.93 834.511 1369.64 842.762 1354.79 847.713 z M 1345.61 743.304 C 1335.4 745.583 1328.18 750.03 1322.31 758.886 C 1314.71 770.367 1312.38 784.895 1315.24 798.294 C 1317.42 808.552 1322.9 818.53 1331.92 824.262 C 1337.93 828.08 1343.14 829.1 1350.16 829.018 C 1360.75 826.392 1368.41 821.673 1374.27 812.228 C 1381.44 800.665 1382.93 785.902 1379.56 772.846 C 1376.88 762.462 1370.99 752.757 1361.44 747.429 C 1356.41 744.624 1351.29 743.638 1345.61 743.304 z"/>
<path transform="translate(0,0)" fill="rgb(0,0,0)" d="M 1529 848.008 C 1519.15 848.294 1511.03 847.159 1502.36 841.903 C 1488.82 833.69 1479.81 819.036 1476.17 803.851 C 1471.84 785.791 1473.27 764.622 1483.44 748.734 C 1491.72 735.783 1503.22 728.308 1518.17 725.203 C 1527.94 724.612 1537.31 726.207 1545.84 731.24 C 1558.95 738.969 1566.4 752.803 1569.85 767.2 C 1574.43 786.309 1572.21 808.054 1561.7 824.92 C 1553.85 837.528 1543.24 844.58 1529 848.008 z M 1518.81 744.26 C 1508.82 746.376 1501.48 750.565 1495.81 759.306 C 1488.53 770.517 1487.03 785.927 1490.11 798.791 C 1492.59 809.11 1498.39 819.031 1507.68 824.559 C 1513.75 828.17 1519.7 829.015 1526.65 828.676 C 1536.7 825.825 1543.72 821.241 1549.01 812.009 C 1556.17 799.521 1557.33 783.298 1553.05 769.661 C 1550.16 760.439 1544.69 751.85 1535.92 747.29 C 1530.67 744.556 1524.64 743.973 1518.81 744.26 z"/>
<path transform="translate(0,0)" fill="rgb(0,0,0)" d="M 285.149 848.005 L 285.244 726.004 L 348.29 725.967 L 348.277 743.476 L 301.048 743.491 L 301.022 776.89 L 340.91 776.894 L 340.916 794.666 L 301.312 795.136 L 301.288 810.619 L 301.24 830.312 L 348.865 830.411 L 348.734 847.92 L 285.149 848.005 z"/>
<path transform="translate(0,0)" fill="rgb(0,0,0)" d="M 368.288 847.572 L 368.186 726.055 C 371.348 725.905 374.976 725.439 378.039 726.235 C 381.799 727.211 425.513 800.231 430.244 807.922 L 430.169 725.973 L 446.241 725.997 C 446.211 741.218 447.352 841.347 445.344 847.379 C 445.023 848.343 444.275 849.108 443.74 849.972 C 442.036 849.771 440.069 849.659 438.434 849.146 C 436.111 848.418 390.075 772.693 384.063 763.067 C 384.055 791.184 383.218 819.295 382.943 847.414 L 368.288 847.572 z"/>
<path transform="translate(0,0)" fill="rgb(0,0,0)" d="M 470.98 847.992 L 470.871 725.98 L 487.197 725.909 L 487.169 777.784 C 501.476 777.876 515.784 777.78 530.089 777.496 L 530.24 725.991 L 546.028 725.995 L 545.706 847.848 L 530.006 847.965 L 529.968 796.028 L 487.017 796.011 L 487.022 847.941 L 470.98 847.992 z"/>
<path transform="translate(0,0)" fill="rgb(0,0,0)" d="M 853.028 847.988 C 852.995 807.366 854.306 766.555 852.914 725.96 L 912.172 725.985 L 912.071 744.383 C 897.247 743.91 882.368 744.098 867.534 744.056 L 867.887 775.567 C 881.569 775.719 895.296 775.349 908.981 775.219 L 908.986 795.019 L 867.918 795.03 L 867.904 809.25 L 867.925 829.398 C 882.859 829.711 897.854 829.439 912.795 829.447 L 912.684 848.001 L 853.028 847.988 z"/>
<path transform="translate(0,0)" fill="rgb(0,0,0)" d="M 932.469 848.022 L 932.974 726.018 C 950.283 725.787 973.501 722.422 988.304 733.206 C 1000.98 742.438 1006.77 758.531 1008.76 773.554 C 1011.55 794.624 1007.52 814.933 994.624 831.971 C 994.085 832.539 993.536 833.096 992.978 833.645 C 975.409 850.952 955.157 848.222 932.469 848.022 z M 948.045 744.071 L 947.99 828.335 C 962.169 828.925 971.972 828.955 983.137 818.974 C 992.657 807.316 995.611 792.965 994.059 778.182 C 992.991 768.019 989.507 756.903 981.128 750.405 C 971.683 743.081 959.325 743.792 948.045 744.071 z"/>
<path transform="translate(0,0)" fill="rgb(0,0,0)" d="M 1211.55 745.806 C 1211.51 770.833 1216.31 819.35 1199.68 838.896 C 1194.46 845.034 1187.88 848.697 1179.75 848.951 C 1170.61 849.236 1161.12 845.415 1154.76 838.875 C 1149.37 833.34 1145.82 826.423 1144 818.944 C 1139.22 799.197 1141.88 748.993 1141.96 725.955 L 1157.11 725.938 L 1156.96 777.577 C 1156.93 788.103 1156.02 799.463 1157.89 809.859 C 1158.81 814.957 1160.61 820.136 1164.11 824.057 C 1167.23 827.547 1171.32 829.266 1175.97 829.376 C 1181.04 829.495 1185.71 827.766 1189.2 824.014 C 1192.94 819.988 1194.76 814.554 1195.57 809.213 C 1197.06 799.478 1196.18 788.73 1196.15 778.863 L 1196.01 726.01 L 1211.55 725.969 L 1211.55 745.806 z"/>
<path transform="translate(0,0)" fill="rgb(0,0,0)" d="M 1226.11 743.877 L 1226.17 725.974 L 1292.75 726.001 L 1292.84 743.995 L 1266.94 743.949 L 1266.94 822.5 L 1266.95 848.144 L 1251.81 848.076 C 1251.42 813.388 1252.06 778.687 1251.4 744.002 C 1242.98 743.808 1234.54 743.915 1226.11 743.877 z"/>
<path transform="translate(0,0)" fill="rgb(0,0,0)" d="M 1414.22 847.744 L 1414.47 725.655 L 1429.39 725.704 C 1429.72 760.235 1429.36 794.792 1429.31 829.326 L 1469.79 829.448 L 1469.68 847.783 L 1414.22 847.744 z"/>
<path transform="translate(0,0)" fill="rgb(0,0,0)" d="M 1574.51 847.956 C 1584.17 822.458 1593.38 796.793 1602.13 770.973 C 1606.77 757.057 1609.81 738.829 1617.15 726.254 L 1619.3 727.215 C 1624.54 733.565 1654.84 830.714 1661.29 847.908 L 1643.56 847.993 C 1641.36 842.831 1639.91 837.359 1638.29 831.994 L 1620.47 831.988 L 1598.37 831.898 L 1592.94 848.016 L 1574.51 847.956 z M 1617.66 769.843 C 1611.87 784.851 1607.41 800.476 1602.87 815.906 L 1621.25 815.923 L 1633.35 815.768 C 1630.56 806.257 1622.46 775.344 1617.66 769.843 z"/>
<path transform="translate(0,0)" fill="rgb(0,0,0)" d="M 1672.38 848.013 C 1672.2 807.78 1672.27 767.547 1672.58 727.315 C 1691.74 727.053 1715.41 723.404 1731.35 736.037 C 1743.24 745.458 1749.55 760.534 1751.2 775.314 C 1753.5 795.896 1749.01 817.126 1735.87 833.396 C 1716.23 851.633 1697.19 848.177 1672.38 848.013 z M 1687.98 745.006 L 1687.98 829.926 C 1700.96 829.919 1712.56 830.76 1722.52 821.001 C 1723.21 820.325 1723.88 819.639 1724.55 818.942 C 1733.87 804.952 1737.21 789.226 1733.76 772.668 C 1731.83 763.381 1727.34 754.651 1719.12 749.482 C 1709.94 743.706 1698.37 744.835 1687.98 745.006 z"/>
<path transform="translate(0,0)" fill="rgb(0,0,0)" d="M 799.118 1010.94 C 810.965 970.325 823.28 928.962 838.465 889.475 C 839.91 890.299 840.592 890.896 841.461 892.394 C 848.223 904.055 853.072 925.064 857.211 938.375 C 864.631 962.5 872.359 986.53 880.394 1010.46 L 864.162 1010.84 L 857.73 990.041 L 841.462 990.046 L 820.223 990.027 L 814.325 1010.94 L 799.118 1010.94 z M 838.437 927.772 C 834.099 943.417 829.637 959.027 825.051 974.601 L 842.122 974.678 L 853.502 974.464 C 849.486 960.047 846.046 940.774 838.437 927.772 z"/>
<path transform="translate(0,0)" fill="rgb(0,0,0)" d="M 977.422 1010.48 C 982.186 997.202 986.741 983.849 991.087 970.428 C 996.644 952.859 1009.5 902.02 1019.17 889.398 C 1020.99 890.568 1022.07 891.742 1023.01 893.737 C 1029.59 907.794 1033.51 924.057 1038.13 938.905 C 1045.56 963.105 1053.42 987.172 1061.7 1011.09 L 1045.25 1011.11 L 1039.04 989.937 L 1021.5 989.863 L 999.637 989.866 C 998.009 996.678 995.979 1003.44 994.143 1010.21 L 977.422 1010.48 z M 1019.06 927.579 C 1014.44 943.095 1009.67 958.567 1004.75 973.993 L 1021.08 974.009 L 1033.8 973.853 C 1029.78 959.364 1026.19 940.755 1019.06 927.579 z"/>
<path transform="translate(0,0)" fill="rgb(0,0,0)" d="M 701.982 1009.99 L 702.037 929.607 C 702.043 917.186 700.46 902.523 702.944 890.449 C 704.696 891.248 705.242 891.685 706.337 893.336 C 711.514 901.147 715.069 911.302 719.379 919.799 C 727.649 936.104 736.64 952.098 745.451 968.117 L 767.283 924.664 C 769.827 919.612 781.713 893.638 785.328 892.445 C 789.835 900.436 786.17 993.075 786.108 1010.91 L 770.854 1010.93 L 770.898 998.144 L 770.986 948.937 C 763.013 964.347 754.488 979.464 745.427 994.259 C 734.993 979.122 725.975 962.556 717.099 946.456 C 717.656 967.519 717.124 988.674 716.999 1009.75 L 701.982 1009.99 z"/>
<path transform="translate(0,0)" fill="rgb(0,0,0)" d="M 893.034 1010.96 C 893.112 971.3 893.147 931.6 893.799 891.95 L 899.035 892.314 C 903.359 894.863 944.327 961.17 950.183 970.853 L 950.065 893.181 L 964.215 893.205 L 964.29 1011.21 C 962.915 1011.13 961.349 1011.11 959.987 1010.8 C 958.185 1010.41 957.429 1009.7 956.288 1008.3 C 946.588 996.333 938.844 981.502 930.568 968.498 C 923.229 956.964 914.925 946.065 907.908 934.335 L 908.019 1010.95 L 893.034 1010.96 z"/>
<path transform="translate(0,0)" fill="rgb(0,0,0)" d="M 1147.9 1010.91 C 1143.71 1011 1139.61 1010.98 1135.43 1010.67 C 1132.9 1008.09 1135.16 1004.72 1133.07 1001.67 C 1127.12 1002.37 1122.9 1008.45 1117.24 1010.42 C 1110.45 1012.78 1102.31 1010.14 1096.09 1007.18 C 1083.29 1001.09 1075.27 988.815 1070.62 975.846 C 1064.27 958.148 1064.43 937.282 1072.59 920.169 C 1079.23 906.223 1089.81 897.295 1104.29 892.279 C 1108.22 891.789 1112.42 891.388 1116.37 891.755 C 1129.89 893.01 1138.32 900.953 1146.75 910.649 C 1143.71 914.874 1140.58 918.481 1136.95 922.198 C 1129.25 915.399 1121.82 909.758 1110.94 910.705 C 1102.9 911.404 1095.95 915.899 1091.02 922.134 C 1083.17 932.066 1080.28 945.581 1081.71 958.004 C 1082.99 969.109 1087.76 980.313 1096.93 987.14 C 1101.89 990.837 1108.04 993.616 1114.35 992.573 C 1122.92 991.157 1128.31 984.419 1133.1 977.86 C 1133.47 974.279 1133.47 970.6 1133.62 966.999 L 1114 967.028 C 1113.96 964.194 1113.86 961.327 1113.96 958.495 C 1114.08 955.323 1113.6 952.791 1115.92 950.554 L 1147.92 950.834 L 1147.9 1010.91 z"/>
<path transform="translate(0,0)" fill="rgb(0,0,0)" d="M 1169.17 1010.52 L 1169.55 893.988 L 1226.05 893.818 L 1226.09 912.215 L 1183.9 912.046 L 1184.01 939.736 L 1221.91 939.604 L 1221.83 958.787 C 1209.04 958.684 1196.24 958.679 1183.45 958.77 L 1183.56 978.341 L 1183.54 992.014 L 1227.96 992.024 L 1227.95 1010.46 L 1169.17 1010.52 z"/>
<path transform="translate(0,0)" fill="rgb(0,0,0)" d="M 1248.11 1010.9 L 1248.35 893.98 C 1264.21 893.786 1286.89 890.46 1299.18 902.683 C 1306.22 909.677 1308.64 920.376 1308.28 930.011 C 1307.78 943.339 1301.95 952.722 1292.65 961.688 C 1299.26 978.466 1308.35 994.589 1316.71 1010.54 L 1298.41 1010.79 L 1293.97 1000.7 L 1277.78 965.787 L 1263.02 965.673 L 1262.95 1010.03 L 1248.11 1010.9 z M 1262.58 912.665 C 1262.54 924.106 1262.27 935.606 1262.51 947.041 C 1271.74 947.186 1281.71 948.641 1289.73 943.28 C 1293.02 938.005 1296.18 930.794 1294.76 924.407 C 1293.91 920.568 1291.09 917.477 1287.69 915.65 C 1280.04 911.535 1270.96 912.553 1262.58 912.665 z"/>
<path transform="translate(0,0)" fill="rgb(0,0,0)" d="M 655.94 907.074 C 626.209 907.195 293.802 909.361 287.876 906.905 C 286.477 906.325 286.089 903.655 285.614 902.264 C 301.5 901.073 317.98 901.875 333.92 901.851 L 425.361 901.735 L 575.169 901.7 C 600.521 901.702 625.974 901.177 651.312 901.734 C 652.71 901.765 653.495 901.974 654.705 902.655 L 655.94 907.074 z"/>
<path transform="translate(0,0)" fill="rgb(0,0,0)" d="M 1754.34 907.746 L 1461.01 907.943 C 1450.41 907.948 1378.29 909.24 1373.43 907.911 C 1372.76 907.726 1372.22 907.202 1371.62 906.847 L 1370.74 901.997 L 1625.27 901.85 C 1667.07 901.846 1709.29 900.664 1751.05 901.964 C 1752.25 902.002 1752.88 902.302 1753.82 903.013 L 1754.34 907.746 z"/>
<path transform="translate(0,0)" fill="rgb(0,0,0)" d="M 286.946 971.934 L 286.936 933.772 L 512.755 933.699 L 512.796 971.838 C 437.542 972.633 362.208 971.922 286.946 971.934 z"/>
<path transform="translate(0,0)" fill="rgb(0,0,0)" d="M 518.022 971.881 L 517.986 933.959 L 654.648 933.973 L 654.703 971.288 C 609.145 971.842 563.583 972.04 518.022 971.881 z"/>
<path transform="translate(0,0)" fill="rgb(0,0,0)" d="M 1371.06 973.643 L 1371.04 933.782 L 1754.22 933.873 C 1754.26 946.656 1754.64 959.553 1753.92 972.313 C 1626.39 975.129 1498.61 973.259 1371.06 973.643 z"/>
<path transform="translate(0,0)" fill="rgb(0,0,0)" d="M 656.282 1002.88 L 357.837 1002.9 C 350.255 1002.9 290.905 1004.11 287.988 1003.07 C 287.369 1002.85 286.945 1002.27 286.423 1001.87 L 285.868 997.063 C 321.099 996.954 650.951 995.061 655.528 998.311 L 656.282 1002.88 z"/>
<path transform="translate(0,0)" fill="rgb(0,0,0)" d="M 1754.87 1004.06 L 1471.96 1004.06 C 1456.27 1004.1 1379.62 1006.22 1370.68 1003.55 L 1370.31 998.038 L 1672.68 997.984 C 1682 997.983 1748.1 996.821 1752.51 998.112 C 1753.21 998.316 1753.74 998.895 1754.36 999.287 L 1754.87 1004.06 z"/>
<path transform="translate(0,0)" fill="rgb(0,0,0)" d="M 317.153 1211.73 C 316.127 1212.05 314.53 1212.68 313.411 1212.75 C 312.108 1212.83 310.775 1212.89 309.904 1211.82 C 306.546 1207.68 308.71 1196.73 309.123 1191.47 C 312.647 1192.49 315.342 1192.98 317.322 1196.4 C 320.052 1201.12 318.455 1206.85 317.153 1211.73 z"/>
<path transform="translate(0,0)" fill="rgb(0,0,0)" d="M 696.742 1210 C 694.004 1210.66 693.291 1211.06 690.674 1210.16 C 688.086 1204.72 689.427 1197.42 689.711 1191.49 C 692.841 1191.92 694.198 1192.03 696.625 1194.26 C 699.334 1199.43 697.695 1204.56 696.742 1210 z"/>
<path transform="translate(0,0)" fill="rgb(0,0,0)" d="M 802.312 1236.36 C 801.874 1236.13 801.413 1235.94 800.999 1235.66 C 798.001 1233.69 797.057 1231.44 796.425 1228.01 C 794.535 1217.75 794.106 1200.27 800.117 1191.63 C 800.639 1191.84 801.179 1192.02 801.685 1192.28 C 803.9 1193.38 804.973 1195.18 805.57 1197.49 C 808.186 1207.64 807.862 1227.53 802.312 1236.36 z"/>
<path transform="translate(0,0)" fill="rgb(0,0,0)" d="M 842.148 1209.89 C 840.619 1210.3 839.49 1210.55 837.886 1210.47 C 836.64 1210.4 836.69 1210.58 835.977 1209.57 C 833.079 1205.47 835.072 1196.63 835.569 1191.86 C 838.234 1192.54 840.571 1192.94 842.149 1195.45 C 844.987 1199.97 843.518 1205.16 842.148 1209.89 z"/>
<path transform="translate(0,0)" fill="rgb(0,0,0)" d="M 951.727 1210.08 C 950.13 1210.8 948.657 1211.15 946.945 1211.5 L 945.384 1210.33 C 943.349 1204.78 944.657 1197.41 944.858 1191.52 C 947.805 1192.27 949.853 1192.32 951.71 1195.09 C 954.468 1199.19 952.864 1205.71 951.727 1210.08 z"/>
<path transform="translate(0,0)" fill="rgb(0,0,0)" d="M 1477.54 1211.08 C 1476.76 1211.26 1475.51 1211.6 1474.74 1211.66 C 1473.52 1211.76 1472.2 1211.87 1471.39 1210.85 C 1468.15 1206.76 1470.42 1196.32 1470.88 1191.39 C 1474.17 1192.39 1476.83 1192.87 1478.69 1196.07 C 1481.21 1200.4 1479.04 1206.77 1477.54 1211.08 z"/>
<path transform="translate(0,0)" fill="rgb(0,0,0)" d="M 1551.28 1211.1 C 1549.45 1211.68 1547.96 1211.86 1546.05 1211.93 L 1544.67 1210.42 C 1542.84 1204.64 1544.24 1198.08 1544.81 1192.11 C 1548.14 1192.86 1550.75 1193.46 1552.56 1196.62 C 1554.91 1200.73 1552.81 1207.07 1551.28 1211.1 z"/>
<path transform="translate(0,0)" fill="rgb(0,0,0)" d="M 276.277 1235.58 C 275.221 1235.6 275.099 1235.72 274.106 1235.28 C 272.211 1234.42 270.957 1232.6 270.197 1230.72 C 266.806 1222.32 267.333 1200.68 271.104 1192.45 C 272.83 1192.69 274.195 1193.12 275.837 1193.68 C 276.836 1194.85 277.774 1195.96 278.273 1197.45 C 281.365 1206.65 280.525 1227.04 276.277 1235.58 z"/>
<path transform="translate(0,0)" fill="rgb(0,0,0)" d="M 615.498 1235.53 C 614.445 1235.17 613.817 1235.03 612.873 1234.43 C 610.242 1232.77 609.519 1230.1 608.989 1227.22 C 607.135 1217.15 606.904 1200.99 612.767 1192.45 C 614.101 1192.7 615.591 1192.87 616.701 1193.73 C 618.96 1195.48 619.59 1198.95 619.977 1201.59 C 621.471 1211.8 621.701 1226.97 615.498 1235.53 z"/>
<path transform="translate(0,0)" fill="rgb(0,0,0)" d="M 878.44 1232.37 C 876.289 1233.73 875.105 1234.55 872.493 1234.75 C 869.463 1231.24 871.11 1199.26 871.183 1192.49 C 873.334 1192.57 874.73 1192.52 876.707 1193.49 C 878.53 1194.39 879.561 1196.23 880.196 1198.11 C 883.2 1207.01 882.449 1223.99 878.44 1232.37 z"/>
<path transform="translate(0,0)" fill="rgb(0,0,0)" d="M 916.439 1211.13 C 913.363 1211.64 912.508 1212.28 909.778 1210.61 C 907.662 1205.06 908.911 1198 909.049 1192.07 C 911.64 1192.56 913.08 1193.04 915.225 1194.59 C 918.439 1199.85 917.098 1205.33 916.439 1211.13 z"/>
<path transform="translate(0,0)" fill="rgb(0,0,0)" d="M 1108.49 1233.26 C 1105.71 1233.99 1104.29 1234.95 1101.55 1233.8 C 1099.46 1220.88 1101.13 1205.62 1101.42 1192.48 C 1103.6 1192.63 1105.24 1192.6 1107.22 1193.61 C 1109.06 1194.54 1110.04 1196.54 1110.59 1198.45 C 1113.2 1207.42 1112.88 1224.92 1108.49 1233.26 z"/>
<path transform="translate(0,0)" fill="rgb(0,0,0)" d="M 1408.24 1212.2 C 1407.29 1212.61 1405.85 1213.27 1404.88 1213.5 C 1402.27 1214.12 1401.56 1213.98 1399.53 1212.56 C 1397.24 1206.61 1398.67 1198.92 1398.94 1192.59 C 1400.2 1192.66 1401.28 1192.69 1402.54 1192.91 C 1405.09 1193.37 1407.15 1194.4 1408.55 1196.67 C 1411.32 1201.12 1409.39 1207.55 1408.24 1212.2 z"/>
<path transform="translate(0,0)" fill="rgb(0,0,0)" d="M 1246.27 1205.85 L 1242.4 1206.43 L 1240.83 1204.74 C 1240.24 1200.92 1240.61 1197.15 1240.85 1193.31 C 1243.65 1193.79 1244.7 1193.69 1246.85 1195.62 C 1248.1 1198.8 1246.89 1202.57 1246.27 1205.85 z"/>
<path transform="translate(0,0)" fill="rgb(0,0,0)" d="M 1207.89 1225.46 L 1204.44 1224.02 C 1201.9 1218.41 1205.87 1205.94 1206.99 1199.6 C 1209.29 1204.56 1209.81 1213.88 1210.03 1219.29 C 1210.18 1222.81 1210.33 1222.79 1207.89 1225.46 z"/>
<path transform="translate(0,0)" fill="rgb(0,0,0)" d="M 1280.84 1226.23 C 1279.65 1225.74 1277.66 1225.39 1277.09 1224.15 C 1274.76 1219.03 1278.93 1205.17 1280.2 1199.67 C 1282.08 1205.94 1283.54 1216.05 1283.2 1222.63 C 1283.08 1224.83 1282.37 1224.81 1280.84 1226.23 z"/>
<path transform="translate(0,0)" fill="rgb(0,0,0)" d="M 1630.86 1224.81 L 1627.68 1223.76 C 1624.58 1218.36 1628.11 1207.8 1629.14 1201.66 C 1630.56 1206.21 1631.38 1211.33 1632.12 1216.04 C 1632.73 1219.91 1633.24 1221.63 1630.86 1224.81 z"/>
<path transform="translate(0,0)" fill="rgb(0,0,0)" d="M 1144.01 1225.12 C 1141.96 1224.62 1141.26 1224.52 1139.63 1223.1 C 1138.56 1216.32 1140.79 1209.25 1142.2 1202.62 C 1142.41 1203.19 1142.65 1203.74 1142.82 1204.32 C 1144.38 1209.76 1146.5 1220.15 1144.01 1225.12 z"/>
<path transform="translate(0,0)" fill="rgb(0,0,0)" d="M 1247.86 1233.5 C 1247.15 1233.62 1246.54 1233.75 1245.8 1233.79 C 1243.07 1233.93 1242.71 1234 1240.77 1232.24 C 1238.83 1227.08 1240.16 1220.81 1240.64 1215.4 C 1243.9 1215.97 1246.37 1216.35 1248.34 1219.28 C 1250.96 1223.17 1249.08 1229.44 1247.86 1233.5 z"/>
<path transform="translate(0,0)" fill="rgb(0,0,0)" d="M 227.439 1663.36 C 163.192 1585.76 111.372 1498.66 73.8267 1405.17 C 66.6324 1387.11 60.5704 1368.52 54.2037 1350.16 L 1993.62 1350.06 C 1985.53 1371.56 1977.9 1393.32 1969.01 1414.5 C 1946.72 1466.48 1920.97 1516.9 1891.93 1565.42 C 1871.19 1599.53 1846.61 1633.77 1820.36 1663.8 C 1751.98 1662.36 1683.47 1663.41 1615.07 1663.56 L 1324.12 1663.41 L 227.439 1663.36 z M 1293.22 1421.07 C 1246.32 1427.69 1213.57 1470.96 1219.96 1517.9 C 1226.34 1564.84 1269.45 1597.8 1316.42 1591.64 C 1363.72 1585.45 1396.96 1541.97 1390.53 1494.7 C 1384.1 1447.43 1340.46 1414.41 1293.22 1421.07 z M 1598.39 1421.98 C 1552 1428.33 1519.54 1471.11 1525.92 1517.51 C 1532.29 1563.9 1575.09 1596.34 1621.48 1589.94 C 1667.84 1583.54 1700.25 1540.79 1693.88 1494.42 C 1687.5 1448.06 1644.76 1415.63 1598.39 1421.98 z M 416.579 1423.35 C 370.011 1428.52 336.374 1470.35 341.315 1516.94 C 346.255 1563.53 387.916 1597.38 434.533 1592.67 C 481.475 1587.92 515.607 1545.91 510.632 1498.99 C 505.656 1452.07 463.472 1418.14 416.579 1423.35 z M 719.999 1424.41 C 673.727 1428.43 639.469 1469.19 643.473 1515.46 C 647.476 1561.74 688.226 1596.01 734.501 1592.02 C 780.795 1588.03 815.083 1547.26 811.078 1500.96 C 807.072 1454.67 766.29 1420.39 719.999 1424.41 z M 1018.42 1424.37 C 997.223 1426.63 978.225 1434.73 964.676 1451.71 C 951.38 1468.37 954.025 1476.53 946.3 1492.1 C 942.891 1498.98 936.484 1503.96 933.341 1511.12 C 933.653 1513.07 933.688 1513.41 934.986 1515.02 C 937.31 1515.63 938.533 1515.35 940.589 1514 C 946.699 1509.97 951.053 1502.36 955.038 1496.35 C 963.59 1497.68 972.011 1498.54 979.337 1492.81 C 980.733 1491.72 981.994 1490.43 983.232 1489.17 L 980.985 1491.29 C 993.297 1491.64 1005.6 1491.13 1017.9 1491.29 L 1017.8 1526.26 C 1008.3 1527.88 999.723 1532.48 991.192 1536.76 C 993.14 1539.18 996.862 1542.7 997.026 1545.88 C 993.428 1544.21 992.072 1540.31 990.583 1536.87 C 986.615 1538.8 982.456 1540.37 979.467 1543.71 C 979.036 1545.26 978.409 1546.05 979.152 1547.6 C 981.593 1552.7 989.84 1556.55 994.203 1560.29 L 1003.44 1549.79 C 1008.39 1548.39 1013.32 1547.1 1018.04 1545.01 L 1018.35 1572.48 C 998.313 1569.6 981.768 1561.82 969.376 1545.26 C 962.097 1535.54 961.025 1525.12 955.268 1515.55 C 954.322 1513.98 953.376 1513.06 951.647 1512.47 C 949.348 1513.61 948.716 1514.52 947.858 1516.97 C 945.34 1524.15 951.41 1536.59 954.963 1543.06 C 958.81 1550.06 963.997 1556.54 969.734 1562.09 C 986.086 1575.84 1004.96 1584.68 1026.81 1582.96 C 1047.71 1581.32 1068.24 1569.65 1081.63 1553.72 C 1090.13 1543.59 1098.87 1527.41 1097.54 1513.85 C 1096.75 1505.81 1091.4 1498.34 1085.17 1493.47 C 1081.92 1490.93 1069.73 1485.36 1068.22 1482.18 C 1067.31 1480.28 1066.92 1477.13 1066.32 1475.02 C 1063.31 1464.48 1058.55 1456.39 1048.73 1451.08 C 1043.15 1448.06 1028.33 1443.29 1026.84 1437.34 L 1027.48 1435.25 C 1035.04 1433.76 1050.13 1441.5 1056.58 1445.78 C 1073.8 1457.2 1074.58 1469.18 1085.45 1484.18 C 1088.15 1487.92 1113.59 1509.8 1117.44 1509.42 C 1118.07 1504.25 1113.87 1496.73 1110.84 1492.67 C 1106.75 1487.19 1100.99 1484.74 1094.79 1482.35 C 1085.56 1458.71 1074.17 1440.51 1050.05 1430.05 C 1040.1 1425.71 1029.26 1423.77 1018.42 1424.37 z"/>
<path transform="translate(0,0)" fill="rgb(0,0,0)" d="M 1315.4 1581.5 C 1273.91 1587.22 1235.65 1558.22 1229.94 1516.73 C 1224.23 1475.24 1253.24 1436.98 1294.73 1431.28 C 1336.21 1425.58 1374.45 1454.58 1380.16 1496.06 C 1385.87 1537.53 1356.88 1575.78 1315.4 1581.5 z M 1343.27 1453.64 C 1332.12 1460.72 1259.16 1529.93 1254.39 1539.69 C 1254.76 1547.23 1258.51 1551.89 1264.01 1556.83 C 1268.67 1561.1 1273.95 1564.64 1279.67 1567.35 C 1290.57 1559.09 1300.08 1547.73 1309.93 1538.15 C 1325.95 1522.57 1343.14 1507.38 1358.13 1490.86 C 1360.92 1487.79 1364.71 1483.97 1365.69 1479.9 C 1363.94 1473.76 1351.65 1458.32 1346.2 1454.79 C 1345.17 1454.13 1344.43 1453.85 1343.27 1453.64 z"/>
<path transform="translate(0,0)" fill="rgb(0,0,0)" d="M 1618.54 1579.65 C 1577.98 1584.64 1541.02 1555.92 1535.81 1515.4 C 1530.61 1474.87 1559.12 1437.75 1599.62 1432.32 C 1640.43 1426.86 1677.9 1455.63 1683.14 1496.47 C 1688.39 1537.31 1659.41 1574.62 1618.54 1579.65 z M 1599.68 1457.55 C 1572.91 1462.78 1555.42 1488.7 1560.59 1515.48 C 1565.77 1542.27 1591.65 1559.81 1618.45 1554.68 C 1645.32 1549.55 1662.92 1523.57 1657.73 1496.71 C 1652.54 1469.85 1626.53 1452.31 1599.68 1457.55 z"/>
<path transform="translate(0,0)" fill="rgb(0,0,0)" d="M 433.552 1581.96 C 392.47 1586.2 355.744 1556.3 351.576 1515.21 C 347.407 1474.12 377.379 1437.45 418.475 1433.35 C 459.467 1429.27 496.024 1459.15 500.182 1500.13 C 504.34 1541.11 474.528 1577.73 433.552 1581.96 z M 460.301 1449.7 C 451.793 1456 447.485 1460.98 445.4 1471.62 C 444.498 1476.23 441.754 1479.73 439.157 1483.53 C 443.528 1487.16 449.455 1491.34 450.044 1497.5 C 450.833 1505.77 439.963 1512.47 439.276 1521.27 L 440.165 1521.7 C 441.088 1522.16 441.976 1522.68 442.859 1523.21 C 442.901 1525.29 442.683 1526.94 442.247 1528.95 C 441.693 1531.5 441.886 1532.71 442.685 1535.16 L 444.696 1537.36 C 445.294 1537.38 446.625 1537.53 447.176 1537.37 C 450.214 1534.25 453.33 1531.42 455.299 1527.49 C 454.906 1522.65 449.988 1520.7 453.759 1515.23 C 456.28 1511.57 458.889 1509.44 460.954 1505.17 C 460.803 1499.24 460.482 1493.4 459.92 1487.49 C 457.315 1484.18 454.739 1481.13 451.658 1478.26 C 455.692 1472.44 467.78 1460.9 467.613 1454.1 C 465.522 1451.54 463.504 1450.66 460.301 1449.7 z M 434.53 1471.82 C 425.116 1476.24 421.49 1480.02 417.119 1489.69 C 419.651 1493.28 422.11 1496.96 424.843 1500.4 C 417.422 1509.14 404.968 1520.23 401.873 1531.14 C 402.294 1533.6 401.93 1533.75 403.847 1535.55 C 407.887 1534.62 410.11 1531.48 412.874 1528.49 C 414.416 1532.32 415.924 1536.03 417.959 1539.64 C 413.303 1544.57 401.399 1554.1 400.669 1560.75 C 401.686 1562.37 402.582 1563.58 404.004 1564.87 C 407.313 1566.13 409.886 1567.3 413.466 1566.9 C 415.786 1565.16 415.974 1565.12 416.747 1562.35 C 415.847 1560.32 415.196 1558.89 414.762 1556.69 C 422.543 1547.89 429.842 1542.24 435.392 1531.46 C 428.523 1529.34 424.076 1527.77 419.054 1522.35 C 422.159 1518.61 425.252 1513.95 429.413 1511.38 L 431.702 1512.72 C 433.558 1511.11 434.175 1508.38 434.354 1505.99 C 434.445 1504.77 434.353 1502.72 433.45 1501.86 C 431.873 1500.35 429.156 1499.79 427.11 1499.11 C 428.691 1491.09 438.735 1481.06 438.151 1473.27 C 436.429 1471.84 436.55 1472.07 434.53 1471.82 z M 479.748 1476.62 C 473.655 1482.14 468.154 1488.03 462.645 1494.13 C 464.685 1496.6 466.916 1500.12 469.82 1501.41 L 487.702 1484.52 C 485.568 1481.53 483.508 1477.65 479.748 1476.62 z M 408.271 1484.62 C 401.44 1490.78 396.225 1497.25 391.319 1505.02 C 394.161 1507.5 396.908 1509.99 400.093 1512.03 C 403.903 1506.45 415.387 1495.65 415.151 1489.25 C 413.977 1487.01 412.095 1485.79 409.715 1485 C 409.242 1484.85 408.752 1484.75 408.271 1484.62 z M 387.786 1522.58 C 380.896 1530.65 372.852 1537.97 366.286 1546.24 C 369.21 1549.16 371.748 1552.05 375.777 1553.44 C 382.602 1546.45 389.168 1539.06 396.344 1532.44 C 393.822 1529.27 391.121 1524.83 387.786 1522.58 z"/>
<path transform="translate(0,0)" fill="rgb(0,0,0)" d="M 739.444 1581.32 C 699.07 1588.14 660.847 1560.83 654.21 1520.43 C 647.573 1480.02 675.051 1441.92 715.485 1435.47 C 755.663 1429.05 793.471 1456.32 800.066 1496.47 C 806.661 1536.62 779.564 1574.55 739.444 1581.32 z M 698.988 1452.15 C 688.057 1454.62 679.856 1459.08 673.581 1468.64 C 667.857 1477.36 665.625 1487.85 668.031 1498.07 C 670.247 1507.57 676.172 1515.78 684.486 1520.88 C 694.897 1527.31 703.077 1527.67 714.591 1525.23 C 715.503 1525.04 718.48 1524.05 719.295 1524.21 C 719.743 1524.31 721.503 1525.75 721.578 1525.81 C 730.48 1533.52 742.157 1553.56 751.227 1564.07 L 756.316 1570.01 C 761.222 1567.1 765.518 1564.25 769.816 1560.46 C 757.299 1543.17 740.213 1530.23 727.92 1512.78 C 734.78 1505.94 738.371 1498.16 738.224 1488.34 C 738.043 1477.98 733.509 1468.18 725.733 1461.33 C 718.247 1454.69 708.9 1451.8 698.988 1452.15 z"/>
<path transform="translate(0,0)" fill="rgb(0,0,0)" d="M 965.507 1487.26 C 964.011 1487.16 962.686 1486.9 961.223 1486.59 C 961.071 1486.24 960.883 1485.91 960.767 1485.55 C 959.312 1481.04 962.519 1474.96 964.705 1471.13 C 975.983 1451.41 991.112 1441.03 1012.82 1435.12 C 1014.81 1434.82 1014.94 1434.83 1016.95 1435.66 C 1017.37 1438.22 1017.74 1439.08 1016.9 1441.59 C 1012.48 1442.92 1008.08 1444.31 1003.7 1445.76 C 987.254 1451.34 983.849 1463.76 976.684 1477.79 C 973.797 1483.44 971.516 1485.33 965.507 1487.26 z"/>
<path transform="translate(0,0)" fill="rgb(0,0,0)" d="M 989.039 1482.13 L 986.972 1482.5 C 986.02 1479.56 987.79 1476.66 989.178 1473.97 C 994.973 1462.78 1002.68 1456.5 1014.47 1452.89 L 1016.42 1453.17 C 1020.03 1458.78 1018.02 1475.04 1017.95 1482.02 L 989.039 1482.13 z"/>
<path transform="translate(0,0)" fill="rgb(0,0,0)" d="M 1026.96 1482.21 L 1027.09 1453.44 C 1031.62 1454.76 1035.96 1456.46 1040.06 1458.81 C 1049.71 1464.35 1055.32 1471.45 1058.26 1482.12 L 1026.96 1482.21 z"/>
<path transform="translate(0,0)" fill="rgb(0,0,0)" d="M 698.714 1492.05 C 699.001 1496.86 698.861 1502.59 700.446 1507.15 C 701.633 1510.57 703.312 1511.5 706.386 1513 C 708.125 1513.86 709.308 1514.09 710.429 1515.68 C 703.652 1517.27 696.661 1516.67 690.383 1513.5 C 684.235 1510.46 679.632 1505 677.683 1498.42 C 675.396 1490.44 676.574 1481.86 680.928 1474.79 C 685.26 1467.79 691.643 1464.28 699.408 1462.23 C 704.969 1462.31 709.949 1463.14 714.918 1465.76 C 721.218 1469.09 725.876 1474.66 727.711 1481.58 C 730.341 1491.49 726.826 1499.96 721.807 1508.31 C 717.516 1505.49 713.955 1502.3 710.242 1498.8 C 712.187 1494.35 714.175 1489.64 715.061 1484.85 C 715.931 1480.14 715.043 1475.51 712.182 1471.71 C 709.487 1470.61 709.592 1470.71 706.855 1471.75 C 703.959 1474.34 703.91 1477.41 703.318 1481.09 L 687.352 1481.08 C 687.31 1481.15 687.258 1481.21 687.226 1481.28 C 686.115 1483.77 685.766 1484.22 686.371 1486.81 C 689.488 1489.84 694.628 1490.78 698.714 1492.05 z"/>
<path transform="translate(0,0)" fill="rgb(0,0,0)" d="M 1277.49 1554.1 C 1273.04 1550.62 1268.66 1547.74 1266.86 1542.19 C 1267.02 1539.97 1267.81 1539.02 1269.21 1537.39 C 1275.61 1529.93 1283.53 1523.41 1290.54 1516.5 C 1307.22 1500.05 1324.16 1483.67 1340.29 1466.69 C 1342.11 1468.5 1342.92 1468.86 1343.65 1471.4 C 1321.25 1493.31 1297.04 1514.39 1275.52 1537.1 C 1273.56 1539.18 1271.99 1540.29 1272 1543.18 C 1273.82 1545.07 1275.05 1545.74 1277.52 1546.61 C 1285.55 1544.55 1340.15 1488.01 1351.05 1477.98 L 1352.84 1478.32 L 1353.82 1480.97 L 1352.9 1482.66 C 1339.67 1495.86 1325.95 1508.67 1312.58 1521.75 C 1301.38 1532.7 1290.23 1544.96 1277.49 1554.1 z"/>
<path transform="translate(0,0)" fill="rgb(0,0,0)" d="M 1616.52 1544.24 C 1595.81 1548.17 1575.79 1534.76 1571.53 1514.12 C 1567.27 1493.48 1580.36 1473.24 1600.93 1468.65 C 1614.53 1465.62 1628.71 1470.15 1638.03 1480.52 C 1647.35 1490.88 1650.36 1505.46 1645.9 1518.67 C 1641.44 1531.87 1630.21 1541.65 1616.52 1544.24 z"/>
<path transform="translate(0,0)" fill="rgb(0,0,0)" d="M 1027.02 1526.31 L 1027.14 1491.43 C 1040.47 1491.2 1055.66 1489.99 1068.37 1494.57 C 1078.05 1498.06 1083.62 1504.24 1087.8 1513.42 C 1085.78 1521.96 1083.61 1529.63 1079.23 1537.28 C 1069.45 1554.35 1054.45 1565.49 1035.56 1570.49 C 1032.36 1571.34 1030.01 1572.37 1027.1 1570.71 L 1027.26 1540.7 C 1037.49 1545.42 1045.08 1551.6 1053.65 1558.9 C 1061.48 1554.43 1066.5 1549.57 1071.02 1541.85 C 1064.58 1540.3 1060.76 1539.48 1054.23 1540.79 C 1049.53 1541.74 1033.92 1529.14 1028.15 1526.76 L 1027.02 1526.31 z"/>
<path transform="translate(0,0)" fill="rgb(0,0,0)" d="M 1007.7 1539.86 C 1006.64 1540.13 1007.28 1540.09 1005.78 1539.55 L 1007.1 1538.96 L 1007.7 1539.86 z"/>
<path transform="translate(0,0)" fill="rgb(0,0,0)" d="M 980.315 2048 L 979.233 2047.83 C 961.623 2045.22 943.49 2045.2 925.758 2043.29 C 881.772 2038.56 837.281 2032.05 794.162 2022.04 C 608.639 1978.04 438.992 1883.35 304.157 1748.54 C 284.043 1728.3 262.069 1707.62 244.942 1684.79 C 244.044 1683.61 243.178 1682.41 242.344 1681.18 L 1805.62 1681.43 C 1782.55 1714.43 1741.08 1754.2 1710.71 1781.32 C 1568.81 1909.83 1394.01 1996.41 1205.79 2031.41 C 1173.64 2036.93 1141.31 2041.27 1108.85 2044.44 C 1093.76 2045.84 1074.88 2045 1060.61 2048 L 980.315 2048 z M 396.496 1740.12 C 415.086 1758.02 436.752 1773.02 456.706 1789.37 L 774.828 1788.92 L 774.908 1740.02 C 648.824 1739.87 522.565 1738.71 396.496 1740.12 z M 804.679 1740.15 C 804.583 1811.15 803.101 1882.48 804.862 1953.45 C 815.562 1955.56 826.383 1956.9 837.076 1958.96 L 836.829 1740.24 L 804.679 1740.15 z M 909.251 1740.02 L 909.13 1970.04 C 918.827 1970.8 928.461 1971.51 938.063 1973.13 L 938.314 1740.04 L 909.251 1740.02 z M 1009.34 1740.08 C 1008.71 1818.99 1008.66 1897.91 1009.18 1976.82 C 1019.43 1976.83 1029.69 1976.94 1039.94 1976.85 L 1039.98 1740.19 C 1029.77 1740.09 1019.56 1740.05 1009.34 1740.08 z M 1109.07 1740.03 L 1108.97 1973.02 C 1118.3 1972.01 1127.68 1971.15 1136.98 1969.92 L 1138.71 1968.96 C 1139.99 1960.44 1139.17 1951.26 1139.1 1942.63 L 1138.95 1899.24 L 1138.86 1740.03 L 1109.07 1740.03 z M 1211.9 1740 L 1211.66 1958.62 C 1221.07 1957.28 1230.45 1955.7 1239.79 1953.87 L 1241.67 1952.94 C 1243.99 1942.4 1242.16 1907.76 1242.14 1894.32 L 1241.96 1740.04 L 1211.9 1740 z M 1273.97 1740.01 L 1273.98 1787.93 C 1378.89 1787.96 1484.13 1789.45 1589 1787.12 C 1601.65 1779.31 1613.58 1770.04 1625.37 1761 C 1633.95 1754.16 1642.84 1747.51 1650.85 1740.01 L 1273.97 1740.01 z M 589.855 1865.42 C 601.84 1875.09 618.255 1882.2 631.987 1889.11 C 645.063 1895.69 664 1906.78 677.915 1910.59 C 693.96 1914.99 754.384 1912.47 775.324 1912.49 L 775.294 1865.24 L 589.855 1865.42 z M 1274 1865 L 1274.01 1911.99 L 1328.37 1912.11 C 1338.91 1912.12 1350.13 1912.91 1360.55 1911.24 C 1379.51 1908.2 1415.81 1891.24 1433.55 1881.83 C 1444.19 1876.46 1454.66 1871.1 1464.81 1864.83 L 1274 1865 z"/>
</svg>