<svg version="1.1" xmlns="http://www.w3.org/2000/svg" style="display: block;" viewBox="0 0 2048 2048" width="1024" height="1024">
<path transform="translate(0,0)" fill="rgb(241,241,240)" d="M 0 0 L 2048 0 L 2048 2048 L 0 2048 L 0 0 z"/>
<path transform="translate(0,0)" fill="rgb(13,59,134)" d="M 1126.69 379.448 C 1147.79 378.321 1169.41 379.09 1190.49 380.151 C 1300.74 385.793 1408.46 415.319 1506.18 466.686 C 1656.56 545.61 1778.33 669.794 1854.3 821.689 C 1868.55 850.216 1882.48 880.061 1892.14 910.495 C 1887.11 912.287 1881.94 913.793 1876.85 915.412 C 1862.39 865.434 1837.84 816.869 1810.59 772.711 C 1705.83 602.947 1532.91 464.75 1337.15 418.171 C 1337.94 441.979 1341.77 466.053 1341.45 489.842 C 1341.39 494.042 1341.41 496.809 1338.33 499.806 C 1335.99 500.754 1334.08 500.508 1331.64 500.185 C 1323.17 499.064 1314.49 495.933 1306.1 494.091 C 1290.12 490.578 1273.86 487.702 1257.7 485.046 C 1228.42 480.439 1198.85 477.978 1169.21 477.68 C 1168.94 506.458 1169.37 535.274 1169.45 564.056 C 1169.49 577.527 1170.88 592.679 1168.79 605.962 C 1168.3 609.13 1167.22 611.982 1165.23 614.516 C 1161.52 619.242 1154.74 622.296 1148.81 622.674 C 1144.17 622.969 1139.7 620.96 1136.39 617.786 C 1133.52 615.032 1131.54 611.523 1130.83 607.602 C 1128.35 594.033 1129.97 577.795 1129.99 563.913 L 1129.95 478.53 C 1102.24 478.843 1074.58 481.075 1047.18 485.208 C 1006.34 491.192 966.04 500.359 926.634 512.624 C 787.487 557.24 656.541 646.117 569.453 764.168 C 593.935 782.842 620.601 799.753 646.122 817.026 C 657.152 824.492 670.631 831.849 680.073 841.252 C 682.91 844.077 684.697 847.45 685.444 851.393 C 686.331 856.075 685.492 860.471 682.74 864.374 C 679.317 869.227 674.512 873.176 668.507 874.097 C 664.684 874.683 661.084 873.717 657.664 872.038 C 645.314 865.976 633.205 855.748 621.874 847.849 L 548.944 796.729 C 475.287 904.209 434.476 1027.05 417.217 1155.52 C 477.225 1157.78 569.654 1170.57 613.113 1215.34 C 619.792 1222.22 625.746 1230.42 628.623 1239.67 C 633.828 1256.39 630.814 1302.68 630.595 1322.75 L 629.694 1505.3 C 630.477 1504.52 631.26 1503.78 632.081 1503.04 C 645.359 1491.13 660.987 1494.2 677.351 1495.13 L 684.205 1481.48 C 675.154 1473.03 664.988 1465.23 656.855 1455.88 C 653.209 1451.69 649.185 1446.46 649.715 1440.59 C 651.13 1424.91 675.629 1405.4 687.399 1395.89 C 693.811 1390.71 702.178 1384.52 710.85 1385.74 C 725.881 1387.86 738.445 1409.8 747.294 1421.14 L 761.398 1415.66 C 761.215 1400.01 755.296 1374.71 766.338 1362.12 C 771.739 1355.96 783.315 1354.75 791.017 1354.45 C 806.333 1353.85 842.035 1350.84 853.404 1362.17 C 862.691 1371.43 858.081 1402.58 857.997 1415.58 C 863.018 1417.65 868.322 1418.98 873.536 1420.47 C 879.079 1413.77 884.771 1407.2 890.608 1400.76 C 896.159 1394.73 903.528 1386.61 912.34 1386.57 C 927.103 1386.5 941.709 1402.35 951.082 1412.21 C 958.961 1420.51 970.418 1432.22 969.648 1444.55 C 968.802 1458.12 945.415 1472.7 935.965 1480.91 L 943.077 1496.38 C 954.267 1495.08 966.348 1492.79 977.57 1493.46 C 983.055 1493.79 988.967 1494.95 992.684 1499.34 C 1003.96 1512.65 1001.53 1541.27 1000.45 1557.32 C 999.761 1567.44 998.611 1581.35 990.123 1588.18 C 980.264 1596.12 956.795 1591.09 944.92 1589.67 C 942.41 1594.53 939.813 1599.34 937.13 1604.11 C 947.595 1612.88 967.59 1625.89 970.76 1639.96 C 972.119 1645.99 969.295 1652.43 966.072 1657.38 C 957.998 1669.81 935.087 1692.74 922.183 1699.37 C 919.123 1700.95 915.271 1701.53 911.915 1702.21 C 894.483 1697.57 883.685 1680.46 871.705 1668 L 858.792 1673.02 C 859.069 1686.11 862.524 1712.33 853.271 1722.72 C 845.711 1731.2 830.1 1732.18 819.433 1732.68 C 805.377 1733.33 779.422 1734.74 768.585 1724.1 C 759.426 1715.11 762.693 1686.59 762.349 1673.86 C 757.72 1671.27 752.838 1669.05 748.071 1666.72 C 741.901 1675.94 735.926 1686.14 727.963 1693.93 C 722.873 1698.91 717.556 1701.96 710.3 1701.7 C 693.178 1701.09 671.723 1676.69 661.111 1664.49 C 656.083 1658.71 649.405 1649.29 650.943 1641.09 C 653.035 1629.93 675.347 1613.29 684.068 1605.87 C 681.403 1601.08 679.271 1596.04 677.064 1591.03 C 669.362 1591.05 661.673 1591.52 653.981 1591.58 C 643.366 1591.67 636.669 1588.28 629.351 1581.03 L 629.53 1631.1 C 629.55 1640.65 630.204 1650.8 628.93 1660.28 C 628.073 1666.65 626.114 1672.38 622.888 1677.93 C 604.448 1709.66 558.976 1723.9 525.327 1732.35 C 433.089 1755.51 288.468 1753.89 205.074 1703.49 C 188.184 1693.28 169.629 1677.94 165.191 1657.63 C 161.778 1642.02 164.165 1597.54 164.151 1579.77 L 164.308 1380.19 L 164.415 1296.61 C 164.335 1281.21 163.028 1264.82 164.575 1249.55 C 165.431 1241.09 169.729 1232.48 174.535 1225.52 C 201.771 1186.09 269.65 1170.95 314.787 1163.06 C 318.259 1129.63 322.204 1096.17 328.788 1063.19 C 359.859 905.681 433.337 759.643 541.298 640.822 C 666.862 506.313 833.935 417.835 1015.76 389.559 C 1052.6 383.655 1089.45 381.05 1126.69 379.448 z"/>
<path transform="translate(0,0)" fill="rgb(151,216,250)" d="M 1122.45 394.439 C 1189.95 391.359 1257.21 399.233 1323.08 413.612 C 1323.53 437.027 1325.96 460.37 1326.11 483.802 C 1141.9 439.45 947.72 466.7 782.831 560.043 C 658.507 630.904 566.422 726.079 498.682 851.912 C 478.124 889.758 460.493 929.124 445.945 969.662 C 438.574 990.719 432.634 1012.27 426.738 1033.78 C 416.049 1073.81 408.465 1114.61 404.054 1155.8 C 378.7 1156.04 353.812 1157.55 328.686 1161.02 C 329.915 1133.31 335.712 1104.24 340.791 1077.02 C 370.371 918.47 443.941 765.349 554.42 647.178 C 703.041 491.343 907.191 400.509 1122.45 394.439 z"/>
<path transform="translate(0,0)" fill="rgb(151,216,250)" d="M 779.001 1369.25 C 790.133 1368.58 801.558 1368.99 812.722 1368.89 C 819.403 1368.82 826.594 1368.03 833.204 1368.67 C 835.69 1368.92 838.478 1369.71 840.424 1371.34 C 847.824 1377.53 843.033 1413.85 842.933 1424.42 C 854.488 1428.9 864.606 1432.74 874.999 1439.64 C 883.747 1429.39 899.314 1407.97 910.963 1402.15 C 912.885 1401.19 914.657 1400.9 916.68 1401.59 C 927.627 1405.28 951.456 1431.96 956.729 1442.65 C 945.752 1456.16 931.128 1465.84 919.293 1478.5 C 924.906 1489.23 929.224 1500.36 933.44 1511.68 C 942.215 1510.71 976.7 1505.13 982.215 1509.04 C 984.829 1510.9 985.092 1519.19 985.254 1522.34 C 985.868 1534.25 988.751 1568.91 980.875 1577.65 C 971.41 1580.64 945.926 1575.09 934.776 1574.02 C 930.921 1586.24 926.18 1597.36 920.155 1608.68 C 932.094 1620.75 947.239 1630.06 958.375 1642.81 C 951.754 1656.29 927.478 1680.33 914.789 1689.45 C 899.836 1680.16 886.782 1663.43 874.725 1650.54 C 864.902 1656.93 855.323 1660.56 844.145 1664.01 C 845.91 1675.47 846.777 1703.45 843.923 1714.46 C 826.891 1720.7 794.533 1720.39 777.17 1715.36 C 776.583 1698.16 777.028 1680.9 777.196 1663.69 C 765.744 1661.6 754.997 1655.84 744.988 1650.16 C 735.826 1663.54 723.992 1679.67 711.211 1689.79 C 695.895 1682.99 673.315 1658.55 662.966 1644.85 C 674.636 1632.03 688.034 1620.89 702.168 1610.91 C 695.411 1600.4 691.186 1589.11 688.068 1577.06 C 677.501 1577.56 651.458 1580.64 642.913 1575.54 C 641.02 1574.41 640.548 1572.19 640.102 1570.16 C 637.569 1558.61 637.764 1520.56 643.773 1510.84 C 652.292 1505.94 678.304 1509.43 688.818 1510.01 C 691.554 1498.43 695.714 1488.14 701.155 1477.57 C 688.072 1465.69 675.006 1453.88 662.769 1441.11 C 664.909 1438.42 667.16 1435.82 669.517 1433.32 C 676.133 1426.21 698.99 1399.64 707.892 1400.39 C 716.089 1401.07 737.541 1432.02 743.963 1439.54 C 754.501 1433.2 765.683 1429.22 777.181 1425.04 C 776.276 1409.19 773.35 1392.26 774.788 1376.46 C 775.136 1372.64 776.063 1371.65 779.001 1369.25 z"/>
<path transform="translate(0,0)" fill="rgb(13,59,134)" d="M 802.231 1459.52 C 848.006 1453.88 889.731 1486.29 895.601 1532.04 C 901.471 1577.78 869.28 1619.67 823.566 1625.78 C 777.516 1631.93 735.248 1599.45 729.334 1553.37 C 723.421 1507.29 756.119 1465.19 802.231 1459.52 z"/>
<path transform="translate(0,0)" fill="rgb(241,241,240)" d="M 801.502 1473.58 C 839.259 1467.6 874.782 1493.16 881.103 1530.86 C 887.425 1568.56 862.183 1604.32 824.54 1610.98 C 786.413 1617.73 750.099 1592.09 743.696 1553.9 C 737.293 1515.72 763.259 1479.63 801.502 1473.58 z"/>
<path transform="translate(0,0)" fill="rgb(241,241,240)" d="M 383.534 1170.58 C 446.029 1165.86 549.592 1179.24 598.215 1221.2 C 608.448 1230.03 616.664 1241.37 617.445 1255.3 C 618.189 1268.6 612.831 1280.48 604.117 1290.26 C 594.84 1300.68 583.207 1307.62 570.977 1314.05 C 522.14 1339.74 466.859 1345.87 412.655 1348.92 C 348.027 1350.08 253.469 1339.55 201.463 1298.08 C 190.215 1289.11 179.402 1276.77 178.084 1261.85 C 177.015 1249.74 183.059 1238.1 190.91 1229.27 C 230.503 1184.74 327.245 1174.23 383.534 1170.58 z"/>
<path transform="translate(0,0)" fill="rgb(13,59,134)" d="M 377.184 1192.44 C 432.165 1189.06 523.674 1196.11 567.853 1231.11 C 576.224 1237.75 583.528 1246.59 584.471 1257.63 C 585.291 1267.23 581.117 1276.31 574.692 1283.24 C 545.45 1314.77 462.314 1324.63 419.751 1326.06 C 368.388 1328.37 272.604 1321.14 231.479 1290.11 C 223.267 1283.91 214.462 1274.83 213.412 1264.14 C 212.509 1254.95 217.949 1244.77 223.925 1238.16 C 255.238 1203.54 332.163 1194.73 377.184 1192.44 z"/>
<path transform="translate(0,0)" fill="rgb(241,241,240)" d="M 392 1206.45 C 437.756 1205.23 521.588 1212.01 557.459 1241.57 C 562.802 1245.97 568.031 1252.06 568.554 1259.28 C 568.988 1265.27 566.162 1270.61 562.172 1274.89 C 554.004 1283.65 541.305 1288.62 530.28 1292.63 C 490.246 1307.18 448.469 1311.5 406.178 1312.28 C 360.138 1312.06 274.311 1306.41 238.653 1277.39 C 234.131 1273.71 228.971 1268.13 228.596 1261.98 C 228.26 1256.47 231.628 1251.36 235.248 1247.52 C 267.558 1213.2 347.004 1208.13 392 1206.45 z"/>
<path transform="translate(0,0)" fill="rgb(151,216,250)" d="M 179.044 1521.71 C 181.634 1523.94 183.799 1527.02 186.262 1529.45 C 236.041 1578.62 339.797 1588.92 406.704 1588.15 C 473.375 1587.39 565.628 1577.88 614.316 1528.06 C 614.631 1550.62 617.338 1597.38 613.805 1617.8 C 613.053 1622.14 611.001 1625.97 608.999 1629.85 C 605.937 1634.53 602.597 1639.12 598.727 1643.18 C 560.596 1683.17 473.293 1694.84 419.156 1696.02 C 353.845 1697.46 246.475 1688.85 197.916 1641.6 C 191.049 1634.92 184.983 1626.78 182.086 1617.56 C 177.481 1602.9 179.323 1541.18 179.044 1521.71 z"/>
<path transform="translate(0,0)" fill="rgb(241,241,240)" d="M 179.098 1408.45 C 189.841 1417.35 199.426 1426.43 211.622 1433.55 C 267.166 1465.95 348.24 1473.71 411.59 1472.29 C 476.886 1470.83 568.754 1458.83 615.817 1409.49 C 615.404 1432.48 619.397 1490.56 611.29 1507.96 C 608.137 1513.11 604.676 1517.86 600.481 1522.22 C 560.505 1563.82 464.911 1573.54 409.242 1574.5 C 347.009 1575.56 242.855 1565.19 196.918 1520.18 C 190.373 1513.77 184.693 1506.14 181.94 1497.31 C 177.041 1481.6 179.32 1428.3 179.098 1408.45 z"/>
<path transform="translate(0,0)" fill="rgb(151,216,250)" d="M 178.688 1296.52 C 180.847 1298.63 183.059 1300.68 185.323 1302.68 C 246.745 1356.17 355.001 1367.23 433.347 1361.63 C 491.251 1357.49 576.783 1342.91 616.137 1297.52 C 616.498 1319.59 619.435 1370.02 612.674 1388.99 C 609.658 1394.53 606.432 1399.39 602.037 1403.95 C 561.01 1446.49 463.392 1458.24 406.108 1458.94 C 344.319 1459.69 240.266 1449.3 194.637 1404.06 C 188.016 1397.49 183.111 1389.83 180.696 1380.75 C 176.38 1364.51 178.904 1316.15 178.688 1296.52 z"/>
<path transform="translate(0,0)" fill="rgb(241,241,240)" d="M 178.055 1640.76 C 185.724 1646.8 192.147 1654.65 200.113 1660.76 C 265.192 1710.64 393.404 1716.49 472.3 1705.77 C 522.486 1698.96 583.531 1686.21 615.766 1643.9 C 615.415 1651.04 615.383 1658.26 613.548 1665.2 C 610.996 1670.47 608.243 1675.07 604.28 1679.43 C 572.113 1714.83 486.373 1728.96 439.215 1731.49 C 370.785 1735.17 248.735 1727.93 196.236 1679.99 C 183.986 1668.8 178.84 1657.22 178.055 1640.76 z"/>
<path transform="translate(0,0)" fill="rgb(13,59,134)" d="M 1639.21 1227.16 C 1658.61 1224.88 1680.58 1227.62 1699.92 1230.02 C 1713.09 1231.65 1725.82 1234.28 1734.26 1245.62 C 1746.62 1262.23 1736.94 1284.85 1734.5 1303.34 C 1746.79 1309.11 1757.89 1316.06 1769.11 1323.62 C 1778.63 1317.25 1787.72 1309.11 1797.83 1303.78 C 1806.8 1299.05 1815.54 1297.55 1825.32 1300.69 C 1845.43 1307.15 1859.53 1334.39 1868.89 1352.37 C 1874.16 1362.49 1877.1 1373.79 1873.18 1384.94 C 1867.34 1401.53 1845.29 1409.32 1830.72 1416.28 C 1830.89 1426.94 1833.2 1437.33 1833.18 1448.09 C 1844.71 1450.02 1857.26 1451.33 1868.42 1454.71 C 1877.92 1457.57 1884.78 1461.97 1889.29 1470.97 C 1892.17 1476.71 1893.58 1483.07 1893.41 1489.49 C 1892.98 1503.45 1885.06 1528.95 1880.5 1542.9 C 1876.98 1553.7 1869.65 1562.7 1859.4 1567.75 C 1841.09 1576.76 1817.13 1562.44 1799.28 1556.18 C 1792.75 1563.8 1785.46 1570.84 1778.44 1578.01 C 1782.9 1588.34 1789.47 1597.77 1794.13 1608.05 C 1798.67 1618.06 1799.24 1629.42 1795.05 1639.72 C 1791.05 1649.55 1782.59 1655.95 1772.98 1659.82 C 1766.12 1662.57 1758.95 1664.6 1752.03 1667.24 C 1736.15 1673.29 1718.29 1682.83 1701.32 1674.89 C 1689.06 1669.15 1683.91 1657.12 1679.32 1645.28 C 1676.03 1636.31 1673.87 1627.2 1671.79 1617.91 L 1644.42 1617.81 C 1640.36 1629.91 1636.07 1642.35 1629.88 1653.55 C 1624.4 1663.47 1616.88 1670.55 1605.69 1673.5 C 1601.59 1674.57 1597.52 1674.83 1593.35 1673.98 C 1580.28 1671.3 1554.79 1657.83 1542.5 1650.98 C 1531.83 1645.02 1521.52 1635.87 1518.46 1623.56 C 1513.68 1604.33 1531.54 1582.94 1540.73 1567.45 C 1533.4 1557.55 1526.88 1547.11 1518.73 1537.82 C 1510.29 1540.13 1501.87 1542.2 1493.15 1543.22 C 1480.96 1544.64 1468.14 1544.12 1458.27 1535.91 C 1443.36 1523.5 1441.52 1488.43 1439.6 1469.69 C 1438.53 1459.25 1440.55 1448.71 1447.52 1440.56 C 1459.69 1426.33 1481.53 1425.47 1498.86 1423.84 C 1501.2 1414.58 1503.6 1405.32 1506.05 1396.09 C 1498.96 1390.28 1491.05 1385.46 1484.08 1379.5 C 1476.41 1372.94 1470.02 1364.44 1469.38 1354.05 C 1468.14 1333.84 1492.66 1310.67 1505.72 1296.47 C 1514.14 1287.3 1525.03 1281.37 1537.66 1281.12 C 1556.81 1280.73 1570.31 1297.63 1583.13 1309.46 C 1594.35 1303.89 1605.77 1299.37 1617.52 1295.08 C 1616.34 1279.81 1611.27 1262.36 1616.9 1247.46 C 1620.94 1236.76 1629.22 1231.47 1639.21 1227.16 z"/>
<path transform="translate(0,0)" fill="rgb(151,216,250)" d="M 1640.9 1241.12 C 1658.86 1239.4 1692.32 1240.73 1709.7 1245.35 C 1718.88 1247.79 1722.35 1251.13 1726.9 1259.29 C 1727.35 1271.64 1719.61 1304.27 1720.84 1308.73 C 1721.43 1310.87 1723.12 1312.47 1724.92 1313.66 C 1731.38 1317.94 1739.31 1320.32 1746.09 1324.19 C 1754.28 1328.86 1761.31 1334.94 1769.3 1339.85 C 1783.26 1332.38 1799.31 1312.11 1815.75 1312.12 C 1822.51 1312.13 1829.38 1316.71 1833.83 1321.45 C 1842.86 1331.07 1862.81 1364.17 1862.02 1376.6 C 1860.9 1394.31 1828.92 1399.73 1817.48 1410 C 1817.21 1410.24 1816.94 1410.5 1816.67 1410.75 C 1817.24 1421.93 1818.03 1443.23 1821.1 1453.2 C 1825.07 1466.08 1856.37 1463.11 1867.92 1469.04 C 1875.89 1473.12 1878.58 1478.91 1881.19 1487.08 C 1878.36 1502.59 1873.94 1518.32 1869.66 1533.51 C 1867.21 1542.21 1863.35 1551.66 1854.84 1556.04 C 1842.41 1562.45 1811.24 1545.28 1797.81 1540.87 C 1791.2 1546.33 1785.51 1553.27 1779.46 1559.35 C 1774.04 1564.8 1768.11 1569.58 1762.8 1575.16 C 1768.34 1589.4 1778.25 1601.75 1782.97 1616.32 C 1785.33 1623.58 1785.33 1630.96 1781.49 1637.76 C 1779.68 1640.98 1777.03 1643.06 1773.85 1644.83 C 1765.95 1649.24 1734.05 1660.79 1724.96 1663.32 C 1718.29 1665.17 1711.27 1666.05 1705.07 1662.3 C 1694.15 1655.68 1690.02 1636.43 1687.19 1624.86 L 1687.04 1623.8 C 1686.2 1618.07 1685.95 1609.64 1680.97 1605.97 C 1669.8 1604.03 1648.07 1603.4 1637.32 1606.2 C 1628.22 1614.43 1626.05 1633.52 1620.22 1644.6 C 1615.35 1653.84 1609.73 1658.49 1599.92 1661.6 C 1584.34 1658.24 1562.4 1646.77 1548.2 1638.92 C 1538.61 1633.62 1533.61 1628.19 1530.51 1617.68 C 1535.81 1594.39 1551.7 1584.28 1558.49 1565.33 C 1545.63 1551.8 1535.46 1537.25 1524.28 1522.43 C 1514.21 1524.75 1504.36 1528.13 1494.15 1529.84 C 1486.18 1531.18 1475.68 1532.08 1468.9 1526.92 C 1461.05 1520.96 1458.89 1511.99 1457.54 1502.73 C 1455.27 1487.21 1448.31 1461.52 1458.92 1448.08 C 1468.95 1435.38 1495.24 1438.66 1509.94 1436.64 C 1512.83 1421.06 1516.87 1406.85 1522.42 1392.01 C 1514.03 1382.38 1501.92 1377.23 1492.35 1368.94 C 1487.88 1365.07 1483.19 1360.11 1482.84 1353.9 C 1482.11 1340.86 1500.97 1322.54 1509.28 1312.77 C 1516.61 1304.15 1525.29 1295.41 1537.31 1294.78 C 1553.58 1293.92 1568.02 1314.71 1578.97 1325.07 C 1586.51 1322.69 1593.87 1318.34 1601.26 1315.36 C 1609.53 1312.01 1618.99 1310.12 1626.83 1305.94 C 1637.07 1300.5 1625.11 1266.47 1628.84 1253.92 C 1630.84 1247.2 1634.99 1244.36 1640.9 1241.12 z"/>
<path transform="translate(0,0)" fill="rgb(13,59,134)" d="M 1658.24 1354.53 C 1711.54 1350.93 1757.83 1390.88 1762.07 1444.13 C 1766.31 1497.39 1726.92 1544.15 1673.72 1549.03 C 1638.73 1552.24 1604.72 1536.38 1584.68 1507.53 C 1564.64 1478.67 1561.66 1441.26 1576.89 1409.6 C 1592.11 1377.93 1623.18 1356.9 1658.24 1354.53 z"/>
<path transform="translate(0,0)" fill="rgb(241,241,240)" d="M 1653.24 1368.68 C 1698.93 1362.16 1741.34 1393.68 1748.26 1439.32 C 1755.18 1484.95 1724.02 1527.63 1678.45 1534.94 C 1632.32 1542.34 1589 1510.72 1582 1464.53 C 1574.99 1418.34 1606.99 1375.29 1653.24 1368.68 z"/>
<path transform="translate(0,0)" fill="rgb(13,59,134)" d="M 1388.5 1084.41 L 1470.95 1084.13 L 1470.95 1103.36 C 1456.74 1106.79 1448.65 1118.53 1439.39 1128.99 C 1448.62 1129.16 1457.86 1129.09 1467.1 1129.13 L 1467.07 1149.05 C 1449.05 1149.88 1430.99 1149.69 1412.95 1149.67 L 1412.95 1174.04 L 1472.07 1173.96 L 1472.26 1195.92 C 1464.27 1195.91 1394.64 1196.6 1393.64 1196.04 C 1392.56 1195.45 1391.77 1194.43 1390.83 1193.63 C 1378.01 1205.76 1366.04 1219.42 1354.08 1232.42 L 1294.58 1297.25 C 1237.6 1357.78 1181.51 1419.14 1126.33 1481.32 C 1129.55 1492.35 1130 1502.06 1128.81 1513.42 C 1125.39 1528.75 1117.74 1541.54 1104.9 1550.79 C 1091.47 1560.46 1073.92 1563.67 1057.73 1560.9 C 1041.06 1558.05 1026.68 1548.16 1017.17 1534.29 C 1008.09 1520.89 1004.78 1504.41 1007.97 1488.55 C 1011.1 1472.95 1020.42 1459.29 1033.81 1450.69 C 1050.57 1439.98 1067.89 1439.4 1086.8 1443.7 C 1100.77 1432.83 1113.73 1419.81 1127.13 1408.17 L 1206.56 1340.23 L 1303.28 1256.14 C 1323.83 1238.4 1345.89 1221.25 1365.1 1202.08 C 1373.39 1193.8 1380.74 1184.4 1388.69 1175.78 C 1389.04 1145.35 1388.56 1114.85 1388.5 1084.41 z"/>
<path transform="translate(0,0)" fill="rgb(241,241,240)" d="M 1063.48 1469.69 C 1080.87 1466.85 1097.3 1478.55 1100.3 1495.91 C 1103.3 1513.28 1091.76 1529.81 1074.43 1532.98 C 1056.86 1536.19 1040.05 1524.46 1037.01 1506.86 C 1033.96 1489.27 1045.86 1472.57 1063.48 1469.69 z"/>
<path transform="translate(0,0)" fill="rgb(241,241,240)" d="M 1414.28 1106.11 C 1428.37 1105.85 1442.48 1105.95 1456.56 1105.88 L 1443.94 1118.9 C 1440.13 1122.69 1436.13 1125.93 1431.88 1129.21 C 1425.88 1129.67 1419.81 1129.48 1413.79 1129.47 C 1413.63 1121.63 1413.83 1113.93 1414.28 1106.11 z"/>
<path transform="translate(0,0)" fill="rgb(13,59,134)" d="M 476.971 306.79 C 478.787 306.861 480.861 306.805 482.517 307.692 C 490.37 311.901 508.739 348.735 515.279 358.757 C 520.627 366.953 526.786 375.469 533.927 382.211 C 542.561 390.363 555.95 396.51 566.294 402.369 C 575.807 407.757 603.047 419.622 606.752 429.676 C 606.31 432.63 604.196 434.508 601.944 436.262 C 596.475 440.522 589.761 443.451 583.63 446.634 C 569.229 454.11 552.84 461.629 539.966 471.54 C 522.417 485.049 510.259 502.507 499.91 521.902 C 495.096 530.924 490.197 544.854 482.332 551.351 C 481.012 551.557 479.355 551.921 477.992 551.867 C 475.3 551.76 473.32 550.865 471.582 548.842 C 465.932 542.264 462.432 532.169 458.307 524.454 C 451.514 511.749 443.504 499.119 434.262 488.042 C 420.496 471.546 399.813 460.624 381.129 450.567 C 373.443 446.429 359.78 441.334 354.556 434.589 C 352.765 432.278 353.159 429.794 353.376 427.065 C 356.698 421.84 410.226 396.163 422.498 384.861 C 442.173 366.739 465.906 314.353 476.971 306.79 z"/>
<path transform="translate(0,0)" fill="rgb(241,241,240)" d="M 479.297 327.667 C 487.011 336.536 493.791 352.66 500.566 363.02 C 522.826 397.056 550.166 410.364 584.332 429.589 C 528.716 457.554 508.652 472.879 479.031 529.657 C 477.39 528.623 451.461 485.226 444.289 477.23 C 425.718 456.523 399.516 443.149 375.127 430.49 C 434.146 401.762 447.464 383.586 479.297 327.667 z"/>
<path transform="translate(0,0)" fill="rgb(13,59,134)" d="M 285.94 547.857 C 289.184 547.866 291.723 548.025 294.373 550.111 C 300.852 555.211 318.201 590.065 326.611 600.051 C 340.475 616.51 362.678 626.708 381.249 636.794 C 385.495 639.1 392.796 642.103 396.083 645.473 C 397.684 647.114 397.268 648.686 397.384 650.775 C 396.574 652.867 395.761 654.453 393.892 655.804 C 389.287 659.134 383.327 661.455 378.243 664.1 C 365.094 670.941 351.709 677.731 340.005 686.917 C 323.081 700.198 313.555 718.541 303.419 737.041 C 300.189 742.936 297.331 749.216 292.769 754.209 C 290.398 754.773 288.399 755.133 286.065 754.103 C 279.892 751.379 268.705 725.606 264.09 718.87 C 257.52 709.28 249.952 699.353 241.477 691.386 C 235.51 685.777 228.45 681.262 221.365 677.207 C 212.226 671.977 185.715 662.4 182.492 652.452 C 184.284 643.612 203.453 636.526 211.252 632.234 C 241.149 615.778 254.787 599.955 271.322 570.32 C 275.597 562.657 279.491 553.929 285.94 547.857 z"/>
<path transform="translate(0,0)" fill="rgb(241,241,240)" d="M 288.747 569.56 C 294.448 573.844 299.508 585.514 303.365 591.742 C 321.385 620.843 344.291 634.305 373.993 649.631 C 364.872 655.847 354.389 660.369 344.883 666.026 C 318.8 681.548 304.14 704.384 290.134 730.534 L 289.002 730.952 C 283.388 727.384 270.739 702.592 264.779 695.422 C 248.487 675.827 228.068 664.147 206.128 652.029 C 215.308 646.311 225.077 641.539 234.179 635.692 C 259.27 619.572 274.912 595.401 288.747 569.56 z"/>
<path transform="translate(0,0)" fill="rgb(13,59,134)" d="M 1310.47 918.194 C 1339.95 912.641 1368.36 931.969 1374.03 961.424 C 1379.7 990.88 1360.48 1019.37 1331.05 1025.16 C 1301.45 1030.97 1272.77 1011.63 1267.07 982.006 C 1261.37 952.388 1280.83 923.777 1310.47 918.194 z"/>
<path transform="translate(0,0)" fill="rgb(241,241,240)" d="M 1317.43 927.303 C 1325.34 927.083 1332.85 928.293 1339.94 931.994 C 1350.32 937.413 1357.5 947.51 1360.7 958.621 C 1364.3 970.88 1362.69 984.08 1356.24 995.108 C 1349.5 1006.46 1339.35 1011.96 1326.94 1015.09 C 1315.93 1016.44 1305.4 1015.12 1296.1 1008.64 C 1286.98 1002.3 1281.36 992.266 1279.43 981.448 C 1277.08 968.357 1279.59 953.979 1287.72 943.257 C 1295.28 933.273 1305.37 928.937 1317.43 927.303 z"/>
<path transform="translate(0,0)" fill="rgb(13,59,134)" d="M 1119.28 918.036 C 1148.9 913.449 1176.66 933.67 1181.38 963.275 C 1186.1 992.879 1166 1020.73 1136.41 1025.57 C 1106.65 1030.45 1078.59 1010.2 1073.84 980.412 C 1069.09 950.624 1089.47 922.653 1119.28 918.036 z"/>
<path transform="translate(0,0)" fill="rgb(241,241,240)" d="M 1118.8 928.212 C 1127.96 927.599 1136.64 927.556 1145.24 931.369 C 1155.21 935.796 1162.32 944.317 1166.22 954.376 C 1170.75 966.043 1170.38 980.177 1165.09 991.537 C 1159.22 1004.14 1149.24 1010.39 1136.62 1014.77 C 1126.7 1015.46 1117.9 1015.8 1108.65 1011.36 C 1099 1006.68 1091.67 998.272 1088.35 988.072 C 1084.14 975.374 1085.25 960.043 1091.74 948.284 C 1097.82 937.261 1107.03 931.541 1118.8 928.212 z"/>
<path transform="translate(0,0)" fill="rgb(13,59,134)" d="M 1488.19 752.276 C 1512.57 751.897 1541.37 748.517 1561.21 765.639 C 1571.96 774.921 1577.32 787.683 1578.18 801.667 C 1579.2 818.459 1574.74 833.54 1563.4 846.226 C 1542.18 864 1513.93 860.157 1488.12 860.03 L 1488.19 752.276 z"/>
<path transform="translate(0,0)" fill="rgb(241,241,240)" d="M 1499.27 762.046 C 1517.99 761.836 1538.79 759.596 1553.74 773.353 C 1562.54 781.455 1566.81 793.213 1567.2 804.997 C 1567.64 818.408 1563.34 829.675 1554.2 839.39 C 1537.54 851.803 1518.85 850.76 1499.21 850.629 C 1498.82 821.123 1499.24 791.558 1499.27 762.046 z"/>
<path transform="translate(0,0)" fill="rgb(13,59,134)" d="M 1490.24 918.819 C 1513.27 918.622 1543.77 914.278 1562.5 930.044 C 1572.63 938.57 1578.52 950.903 1579.77 963.994 C 1581.44 981.415 1576.47 996.982 1565.37 1010.44 C 1544.83 1030.15 1516.47 1025.31 1490.27 1025.08 C 1490.49 989.659 1490.48 954.239 1490.24 918.819 z"/>
<path transform="translate(0,0)" fill="rgb(241,241,240)" d="M 1501.92 928.038 C 1518.71 927.915 1538.29 925.798 1552.49 936.476 C 1561.92 943.572 1567.59 954.479 1568.91 966.123 C 1570.47 979.864 1566.41 992.205 1557.84 1002.85 C 1541.57 1018.11 1522.51 1015.19 1501.92 1014.89 C 1501.48 985.967 1501.79 956.97 1501.92 928.038 z"/>
<path transform="translate(0,0)" fill="rgb(13,59,134)" d="M 1486.52 1084.3 C 1506.04 1084.1 1534.09 1081.37 1552.42 1086.24 C 1561.77 1088.72 1570.1 1094.06 1574.74 1102.74 C 1579.7 1112.03 1580.54 1125.72 1577.02 1135.67 C 1573.16 1146.61 1564.67 1152.13 1554.73 1156.87 C 1565.03 1169.12 1573.22 1182.91 1583.29 1195.36 L 1570.04 1195.5 L 1553.97 1195.28 C 1546.24 1182.92 1537.71 1171.09 1528.45 1159.84 L 1511.79 1160.28 L 1511.42 1195.71 C 1503.08 1195.93 1494.69 1195.67 1486.35 1195.61 C 1486.03 1158.51 1486.08 1121.4 1486.52 1084.3 z"/>
<path transform="translate(0,0)" fill="rgb(241,241,240)" d="M 1511.82 1105.79 C 1522.86 1105.66 1541.4 1103.16 1550.33 1110.66 C 1554.12 1113.84 1555 1118.08 1555.18 1122.82 C 1555.36 1127.9 1554.15 1130.1 1550.79 1133.81 C 1539.13 1140.38 1524.91 1139.15 1511.95 1139.24 L 1511.82 1105.79 z"/>
<path transform="translate(0,0)" fill="rgb(13,59,134)" d="M 788.146 1084.01 L 815.179 1084.37 C 824.901 1101.01 836.9 1116.09 846.531 1132.73 C 857.887 1116.97 868.466 1100.43 879.214 1084.25 C 888.15 1083.87 897.171 1084.15 906.117 1084.17 L 905.843 1195.16 C 897.466 1195.38 889.035 1195.13 880.653 1195.08 L 880.949 1145.75 L 881.112 1122.48 C 870.314 1138.93 858.926 1157.33 845.888 1172.01 C 834.611 1155.14 823.426 1138.05 811.335 1121.76 C 812.749 1146.14 812.08 1170.82 812.124 1195.25 L 788.022 1195.41 L 788.146 1084.01 z"/>
<path transform="translate(0,0)" fill="rgb(13,59,134)" d="M 1116.82 1084.13 L 1139.95 1084.11 L 1139.9 1194.84 C 1133.79 1196.7 1124.84 1195.58 1118.38 1195.47 C 1101.65 1172.41 1084.46 1148.64 1066.02 1126.94 C 1065.52 1149.64 1066.08 1172.35 1065.47 1195.06 L 1041.82 1195.48 C 1042.12 1158.4 1042.2 1121.32 1042.07 1084.25 L 1063.1 1084.12 C 1079.94 1103.47 1101.22 1132.87 1116.29 1154.14 C 1116.78 1130.81 1116.96 1107.47 1116.82 1084.13 z"/>
<path transform="translate(0,0)" fill="rgb(13,59,134)" d="M 1315.82 1082.38 C 1316.73 1082.29 1317.63 1082.19 1318.53 1082.15 C 1337.02 1081.14 1353.78 1086.67 1367.59 1099.07 C 1361.41 1104.77 1355.63 1110.79 1349.84 1116.87 C 1346.66 1112.74 1342.87 1109.75 1338.12 1107.56 C 1329.55 1103.62 1318.72 1103.17 1309.93 1106.69 C 1302.39 1109.71 1296.88 1115.51 1293.86 1123 C 1289.85 1132.92 1290.05 1145.38 1294.24 1155.21 C 1297.95 1164.01 1305.21 1170.82 1314.23 1173.95 C 1325.5 1177.89 1334.76 1175.18 1345 1170.28 L 1345.16 1153.49 L 1321.43 1153.65 C 1321.44 1147.97 1320.03 1135.55 1323.23 1131.09 L 1368.18 1131.01 C 1368.26 1148.14 1368.15 1165.28 1367.84 1182.41 C 1358.64 1189.17 1347.92 1194.59 1336.59 1196.57 C 1319.85 1199.49 1301.12 1196.17 1287.33 1186 C 1275.88 1177.55 1269.16 1164.85 1267.04 1150.94 C 1264.46 1134.06 1267.21 1116.14 1277.85 1102.36 C 1287.4 1089.99 1300.68 1084.11 1315.82 1082.38 z"/>
<path transform="translate(0,0)" fill="rgb(13,59,134)" d="M 1194.12 1084.09 L 1219.45 1084.03 C 1236.55 1120.35 1249.37 1158.6 1266.12 1195.02 L 1239.38 1195.23 C 1236.63 1187.33 1233.47 1179.78 1229.99 1172.17 L 1216.5 1172.16 L 1184.18 1172.26 C 1180.49 1179.76 1176.94 1187.12 1174.18 1195.03 C 1164.79 1195.39 1155.36 1195.42 1145.97 1195.6 C 1155.61 1175.69 1164.32 1155.28 1173.14 1134.99 C 1180.45 1118.2 1188.16 1101.42 1194.12 1084.09 z"/>
<path transform="translate(0,0)" fill="rgb(241,241,240)" d="M 1206.38 1110.58 C 1211.81 1115.64 1219.62 1143.44 1221.93 1151.7 L 1208.33 1151.86 C 1202.36 1151.91 1196.38 1151.69 1190.41 1151.55 C 1195.99 1138 1201.32 1124.34 1206.38 1110.58 z"/>
<path transform="translate(0,0)" fill="rgb(13,59,134)" d="M 959.58 1084.1 L 986.204 1084.06 C 990.527 1097.1 996.516 1110 1001.82 1122.69 C 1012.06 1147.17 1022.52 1171.71 1034.05 1195.61 C 1024.73 1195.83 1015.31 1195.33 1005.99 1195.07 C 1003.75 1188.41 1001.41 1179.46 996.958 1173.96 C 995.362 1171.98 994.659 1172.25 992.25 1171.99 C 978.098 1171.9 963.945 1172.03 949.796 1172.36 C 945.719 1179.7 942.283 1187.21 939.236 1195.03 L 914.329 1195.17 C 928.985 1157.98 945.041 1121.35 959.58 1084.1 z"/>
<path transform="translate(0,0)" fill="rgb(241,241,240)" d="M 972.75 1112.61 C 978.574 1117.32 985.723 1142.96 988.422 1151.13 L 974.388 1151.24 L 957.754 1151.17 C 961.982 1138.01 967.417 1125.34 972.75 1112.61 z"/>
<path transform="translate(0,0)" fill="rgb(13,59,134)" d="M 826.628 918.431 L 839.081 918.821 C 851.91 954.741 867.798 990.176 883.428 1024.97 L 870.609 1025.75 C 866.424 1014.93 861.551 1004.28 856.971 993.616 L 838.177 993.58 L 807.518 993.904 C 802.239 1004.16 798.491 1014.66 795.021 1025.63 L 781.153 1025.56 C 797.151 990.259 811.777 954.233 826.628 918.431 z"/>
<path transform="translate(0,0)" fill="rgb(241,241,240)" d="M 832.324 933.439 C 836.693 936.807 849.769 975.985 852.489 983.333 L 834.25 983.638 C 826.739 983.709 819.227 983.654 811.717 983.472 C 817.55 966.518 825.214 949.895 832.324 933.439 z"/>
<path transform="translate(0,0)" fill="rgb(13,59,134)" d="M 1117.54 753.505 C 1120.81 753.569 1123.97 753.783 1127.21 754.19 C 1128.49 754.897 1129.06 755.462 1129.75 756.768 C 1135.59 767.878 1139.69 780.61 1144.39 792.315 C 1153.42 814.974 1162.68 837.536 1172.19 859.996 L 1159.2 860.388 C 1156.04 850.53 1152.08 841.24 1147.92 831.783 L 1128.38 831.829 L 1097.44 831.266 C 1093.89 840.972 1090.12 850.595 1086.13 860.127 L 1073.88 859.985 C 1088.83 824.654 1103.38 789.159 1117.54 753.505 z"/>
<path transform="translate(0,0)" fill="rgb(241,241,240)" d="M 1122.48 768.769 C 1128.35 775.52 1140.17 810.992 1144 821.661 L 1122.98 821.845 L 1101.87 821.726 C 1107.96 803.874 1115.71 786.39 1122.48 768.769 z"/>
<path transform="translate(0,0)" fill="rgb(13,59,134)" d="M 1421.75 918.244 L 1434.3 918.614 C 1448.57 954.167 1463.19 989.579 1478.16 1024.84 L 1465.86 1025.04 C 1461.83 1014.28 1457.33 1003.72 1452.88 993.138 L 1436.89 993.023 L 1403.29 993.026 C 1398.73 1003.61 1394.47 1014.32 1390.5 1025.14 L 1377.95 1025.47 C 1382.66 1012.47 1388.6 999.845 1393.88 987.057 L 1421.75 918.244 z"/>
<path transform="translate(0,0)" fill="rgb(241,241,240)" d="M 1427.2 932.472 C 1432.98 937.468 1444.27 973.094 1448.36 982.877 L 1429.5 983.012 L 1407.58 983.102 C 1413.37 966.043 1420.63 949.261 1427.2 932.472 z"/>
<path transform="translate(0,0)" fill="rgb(13,59,134)" d="M 868.516 752.902 C 872.629 752.68 876.782 752.699 880.902 752.607 L 941.877 840.195 C 941.973 811.188 941.337 782.146 941.181 753.134 L 952.912 753.166 C 952.756 788.663 951.848 824.224 952.652 859.711 L 941.793 859.789 C 931.233 843.412 919.599 827.505 908.504 811.465 C 899.149 797.942 890.068 783.517 879.632 770.826 C 879.584 780.89 880.815 855.441 878.413 858.82 C 877.585 859.985 875.993 860.076 874.665 860.2 C 872.529 860.4 870.693 860.271 869.141 858.775 C 867.608 844.954 868.606 830.426 868.696 816.518 C 868.801 795.312 868.741 774.106 868.516 752.902 z"/>
<path transform="translate(0,0)" fill="rgb(13,59,134)" d="M 1257.92 752.778 C 1261.97 752.749 1266.71 752.187 1270.09 754.598 C 1269.13 769.29 1270.37 854.929 1268.11 860.052 C 1266.64 860.399 1265.4 860.594 1263.88 860.453 C 1263.15 860.384 1260.98 860.323 1260.35 859.998 C 1255.23 857.342 1207.18 785.074 1197.83 773.572 C 1196.47 800.966 1197.56 828.808 1197.71 856.25 C 1197.65 858.453 1197.9 857.335 1196.75 859.554 C 1195.71 859.906 1194.32 860.484 1193.2 860.576 C 1190.84 860.769 1189.34 860.531 1187.47 859.12 C 1186.12 847.253 1185.49 757.745 1187.92 754.241 C 1190.17 754.106 1192.5 753.878 1194.75 754.237 C 1195.21 754.311 1197.36 754.763 1197.54 754.859 C 1200.36 756.302 1251.75 830.263 1258.12 839.548 L 1257.92 752.778 z"/>
<path transform="translate(0,0)" fill="rgb(13,59,134)" d="M 978.118 753.042 C 981.728 752.927 984.916 752.861 988.453 753.648 C 991.152 762.872 989.31 788.344 989.303 798.95 C 1009.36 799.005 1029.42 798.795 1049.48 798.323 C 1049.63 785.091 1048.21 771.111 1049.27 757.987 C 1049.39 756.513 1049.35 755.533 1050.62 754.698 C 1052.51 753.453 1054.77 753.33 1056.96 753.748 C 1058.91 754.122 1059.39 754.018 1060.58 755.698 C 1062.89 776.301 1060.95 798.477 1060.92 819.254 C 1060.91 830.975 1062.74 848.154 1060.51 859.297 L 1058.22 860.232 C 1055.07 860.23 1052.34 860.291 1049.31 859.249 C 1047.13 843.378 1048.92 825.271 1049.04 809.153 L 989.148 809.168 C 989.177 816.852 990.769 854.306 988.805 858.182 C 988.268 859.242 986.78 860.056 985.677 860.309 C 983.115 860.895 981.128 860.239 979.012 858.895 C 977.504 846.648 978.377 833.765 978.342 821.428 L 978.118 753.042 z"/>
<path transform="translate(0,0)" fill="rgb(13,59,134)" d="M 782.772 753.918 C 796.307 753.872 839.141 751.257 849.094 754.797 C 849.414 757.856 849.457 760.077 848.706 763.071 C 841.773 766.643 804.164 764.045 794.179 764.057 C 793.875 775.82 794.136 787.661 794.139 799.433 C 809.218 799.854 829.678 796.906 843.934 800.771 C 844.324 801.485 844.565 801.809 844.688 802.709 C 844.983 804.866 844.887 808.116 843.481 809.733 C 827.668 811.603 810.401 810.133 794.427 810.005 C 793.813 823.185 794.222 836.496 794.315 849.692 C 810.306 849.884 826.265 849.658 842.249 849.692 C 845.952 849.7 848.053 849.944 850.795 852.693 C 851.504 855.473 851.424 855.744 850.448 858.456 C 844.273 862.327 794.661 860.073 782.821 860.059 L 782.772 753.918 z"/>
<path transform="translate(0,0)" fill="rgb(13,59,134)" d="M 890.845 918.727 L 903.071 918.646 C 902.938 938.295 899.02 986.515 908.386 1002.55 C 911.978 1008.71 917.407 1013.07 924.359 1014.82 C 932.993 1017 944.083 1015.62 951.532 1010.6 C 975.481 994.432 960.389 944.734 965.509 919.944 C 967.353 918.715 968.561 917.948 970.956 918.276 C 973.609 918.639 974.581 919.786 976.194 921.645 C 976.706 924.915 976.391 927.967 976.114 931.25 C 975.676 954.979 981.18 997.582 963.583 1015.11 C 955.877 1022.78 945.121 1026.82 934.296 1026.71 C 922.996 1026.6 909.89 1021.84 901.985 1013.61 C 897.495 1008.94 894.536 1003.16 892.91 996.917 C 888.196 978.8 890.786 939.24 890.845 918.727 z"/>
<path transform="translate(0,0)" fill="rgb(13,59,134)" d="M 1334.84 752.318 C 1338.23 752.098 1341.7 751.833 1345.1 752.083 C 1363.24 753.418 1374.52 762.055 1386.14 775.118 L 1376.11 781.311 C 1372.62 777.054 1369.16 773.003 1364.55 769.873 C 1354.9 763.312 1342.85 761.778 1331.54 764.144 C 1320.96 766.264 1311.76 772.73 1306.18 781.963 C 1299.51 792.985 1298.25 807.258 1301.35 819.614 C 1304.01 830.242 1310.18 839.64 1319.71 845.281 C 1330.82 851.86 1343.7 852.55 1355.91 849.23 C 1365.81 844.702 1371.8 838.25 1378.47 829.971 C 1381.79 832.53 1384.8 835.559 1387.86 838.421 C 1378.78 848.86 1369.08 857.284 1355.16 860.465 C 1340.71 863.765 1325.35 861.583 1312.8 853.56 C 1300.43 845.656 1292.58 832.936 1289.83 818.665 C 1286.93 803.569 1289.28 786.407 1298.24 773.711 C 1307.15 761.098 1319.97 754.727 1334.84 752.318 z"/>
<path transform="translate(0,0)" fill="rgb(13,59,134)" d="M 1405.83 752.105 C 1415.25 752.027 1463.96 749.651 1468.56 753.774 C 1468.66 756.477 1468.64 758.524 1468 761.187 C 1457.78 764.122 1429.08 762.016 1416.83 761.959 L 1416.93 798.888 C 1429.68 798.95 1451.16 797.228 1462.56 799.411 C 1464.52 801.414 1463.95 802.501 1464 805.169 C 1458.4 815.807 1426.91 803.783 1417.73 809.932 C 1416.53 810.733 1416.89 812.443 1416.78 813.75 L 1416.96 850.034 C 1425.68 850.05 1464.87 848.793 1469.99 850.132 C 1470.67 850.311 1471.02 851.097 1471.53 851.58 C 1472.12 854.576 1472.11 855.829 1471.06 858.823 C 1463.1 862.506 1417.75 860.052 1406.05 860.06 L 1405.83 752.105 z"/>
<path transform="translate(0,0)" fill="rgb(13,59,134)" d="M 832.396 569.025 C 835.98 569.12 839.276 569.256 842.516 570.954 C 852.22 576.041 863.212 601.23 866.323 611.794 C 868.037 617.611 868.287 624.07 865.154 629.481 C 862.171 634.633 857.824 636.371 852.366 637.984 C 849.507 637.923 846.558 637.863 843.859 636.825 C 833.291 632.76 827.393 617.261 823.241 607.615 C 819.393 598.674 815.572 588.348 819.767 578.831 C 822.297 573.091 826.851 571.161 832.396 569.025 z"/>
<path transform="translate(0,0)" fill="rgb(13,59,134)" d="M 1464.02 568.099 C 1468.58 567.952 1473.42 568.166 1477.44 570.562 C 1483.46 574.142 1484.86 580.525 1486.27 586.844 C 1486.09 587.418 1485.91 587.995 1485.72 588.566 C 1482.23 599.031 1469.64 622.92 1462.13 630.495 C 1460.1 632.536 1457.5 633.781 1454.94 635.01 C 1451.53 635.084 1448.3 635.089 1445.03 633.959 C 1440.69 632.459 1437.13 629.513 1435.29 625.259 C 1432.67 619.204 1433.98 612.677 1436.29 606.766 C 1441.33 593.844 1450.73 573.694 1464.02 568.099 z"/>
<path transform="translate(0,0)" fill="rgb(13,59,134)" d="M 475.194 1081.33 C 487.031 1082.42 502.984 1084.55 513.83 1089.21 C 519.008 1091.43 523.675 1094.88 525.751 1100.29 C 527.428 1104.66 527.011 1110.54 524.782 1114.66 C 521.7 1120.35 516.499 1122.61 510.536 1124.16 C 496.829 1121.67 477.21 1120.44 465.248 1113.02 C 461.471 1110.67 458.208 1107.19 457.338 1102.7 C 456.399 1097.87 457.944 1092.29 460.724 1088.29 C 464.121 1083.4 469.688 1082.25 475.194 1081.33 z"/>
<path transform="translate(0,0)" fill="rgb(13,59,134)" d="M 1843.33 945.065 C 1846.71 944.876 1850.47 945.32 1853.5 946.957 C 1857.62 949.183 1861.3 954.316 1862.5 958.785 C 1863.4 962.13 1862.92 965.494 1861.18 968.48 C 1854.2 980.417 1826.12 986.537 1813.23 990.229 C 1809.92 990.157 1806.24 990.31 1803.16 988.93 C 1798.91 987.025 1795.46 982.384 1793.88 978.105 C 1792.55 974.504 1792.66 970.807 1794.53 967.418 C 1801.53 954.724 1830.11 949.216 1843.33 945.065 z"/>
<path transform="translate(0,0)" fill="rgb(13,59,134)" d="M 1699.66 729.076 C 1702.79 728.928 1705.96 728.973 1709.04 729.676 C 1713.89 730.787 1718.3 734.709 1720.59 739.061 C 1722.65 742.994 1722.57 747.517 1721.01 751.608 C 1716.41 763.699 1694.64 779.575 1682.89 784.978 C 1681.1 785.148 1679.27 785.333 1677.47 785.274 C 1672.1 785.098 1667.68 782.054 1664.37 778.002 C 1661.89 774.956 1660.85 771.201 1661.51 767.309 C 1663.71 754.345 1688.99 736.24 1699.66 729.076 z"/>
<path transform="translate(0,0)" fill="rgb(13,59,134)" d="M 989.153 918.411 C 1011.46 918.86 1046.8 916.178 1067.09 918.897 C 1068.3 920.82 1068.21 922.116 1068.16 924.317 C 1068.1 926.915 1068.3 926.914 1066.47 928.678 C 1057.45 931.438 1045.49 929.926 1036.03 929.721 L 1035.97 993.5 L 1035.98 1025.97 C 1032.33 1026.04 1027.73 1026.68 1024.32 1025.27 C 1022.08 994.763 1023.94 960.489 1023.99 929.576 C 1012.69 929.102 1000.99 930.31 989.804 928.681 C 988.466 925.591 989.029 921.738 989.153 918.411 z"/>
<path transform="translate(0,0)" fill="rgb(13,59,134)" d="M 1199.95 919.183 C 1203.17 919.167 1207.9 918.558 1210.51 920.576 C 1212.08 930.646 1211.04 942.066 1211.03 952.318 L 1211.02 1014.66 C 1226.19 1014.46 1248.9 1012.23 1263.11 1015.13 C 1264.61 1018.31 1264.14 1022.17 1264.09 1025.63 C 1242.8 1026.34 1221.27 1025.76 1199.96 1025.75 L 1199.95 919.183 z"/>
</svg>